G04 #@! TF.GenerationSoftware,KiCad,Pcbnew,5.0.0*
G04 #@! TF.CreationDate,2018-10-21T13:27:24+10:00*
G04 #@! TF.ProjectId,sensor,73656E736F722E6B696361645F706362,rev?*
G04 #@! TF.SameCoordinates,Original*
G04 #@! TF.FileFunction,Legend,Top*
G04 #@! TF.FilePolarity,Positive*
%FSLAX46Y46*%
G04 Gerber Fmt 4.6, Leading zero omitted, Abs format (unit mm)*
G04 Created by KiCad (PCBNEW 5.0.0) date Sun Oct 21 13:27:24 2018*
%MOMM*%
%LPD*%
G01*
G04 APERTURE LIST*
%ADD10C,0.100000*%
%ADD11C,0.150000*%
%ADD12C,0.300000*%
%ADD13C,0.400000*%
%ADD14C,0.200000*%
%ADD15C,0.120000*%
G04 APERTURE END LIST*
D10*
D11*
X177002200Y-166007200D02*
X177002200Y-198007200D01*
X285002200Y-198007200D01*
X285002200Y-166007200D01*
X177002200Y-166007200D01*
D10*
D11*
X10000000Y-10000000D02*
X10000000Y-200007200D01*
X287002200Y-200007200D01*
X287002200Y-10000000D01*
X10000000Y-10000000D01*
D10*
D11*
X12000000Y-12000000D02*
X12000000Y-198007200D01*
X285002200Y-198007200D01*
X285002200Y-12000000D01*
X12000000Y-12000000D01*
D10*
D11*
X60000000Y-12000000D02*
X60000000Y-10000000D01*
D10*
D11*
X110000000Y-12000000D02*
X110000000Y-10000000D01*
D10*
D11*
X160000000Y-12000000D02*
X160000000Y-10000000D01*
D10*
D11*
X210000000Y-12000000D02*
X210000000Y-10000000D01*
D10*
D11*
X260000000Y-12000000D02*
X260000000Y-10000000D01*
D10*
D11*
X36065476Y-11588095D02*
X35322619Y-11588095D01*
X35694047Y-11588095D02*
X35694047Y-10288095D01*
X35570238Y-10473809D01*
X35446428Y-10597619D01*
X35322619Y-10659523D01*
D10*
D11*
X85322619Y-10411904D02*
X85384523Y-10350000D01*
X85508333Y-10288095D01*
X85817857Y-10288095D01*
X85941666Y-10350000D01*
X86003571Y-10411904D01*
X86065476Y-10535714D01*
X86065476Y-10659523D01*
X86003571Y-10845238D01*
X85260714Y-11588095D01*
X86065476Y-11588095D01*
D10*
D11*
X135260714Y-10288095D02*
X136065476Y-10288095D01*
X135632142Y-10783333D01*
X135817857Y-10783333D01*
X135941666Y-10845238D01*
X136003571Y-10907142D01*
X136065476Y-11030952D01*
X136065476Y-11340476D01*
X136003571Y-11464285D01*
X135941666Y-11526190D01*
X135817857Y-11588095D01*
X135446428Y-11588095D01*
X135322619Y-11526190D01*
X135260714Y-11464285D01*
D10*
D11*
X185941666Y-10721428D02*
X185941666Y-11588095D01*
X185632142Y-10226190D02*
X185322619Y-11154761D01*
X186127380Y-11154761D01*
D10*
D11*
X236003571Y-10288095D02*
X235384523Y-10288095D01*
X235322619Y-10907142D01*
X235384523Y-10845238D01*
X235508333Y-10783333D01*
X235817857Y-10783333D01*
X235941666Y-10845238D01*
X236003571Y-10907142D01*
X236065476Y-11030952D01*
X236065476Y-11340476D01*
X236003571Y-11464285D01*
X235941666Y-11526190D01*
X235817857Y-11588095D01*
X235508333Y-11588095D01*
X235384523Y-11526190D01*
X235322619Y-11464285D01*
D10*
D11*
X285941666Y-10288095D02*
X285694047Y-10288095D01*
X285570238Y-10350000D01*
X285508333Y-10411904D01*
X285384523Y-10597619D01*
X285322619Y-10845238D01*
X285322619Y-11340476D01*
X285384523Y-11464285D01*
X285446428Y-11526190D01*
X285570238Y-11588095D01*
X285817857Y-11588095D01*
X285941666Y-11526190D01*
X286003571Y-11464285D01*
X286065476Y-11340476D01*
X286065476Y-11030952D01*
X286003571Y-10907142D01*
X285941666Y-10845238D01*
X285817857Y-10783333D01*
X285570238Y-10783333D01*
X285446428Y-10845238D01*
X285384523Y-10907142D01*
X285322619Y-11030952D01*
D10*
D11*
X60000000Y-198007200D02*
X60000000Y-200007200D01*
D10*
D11*
X110000000Y-198007200D02*
X110000000Y-200007200D01*
D10*
D11*
X160000000Y-198007200D02*
X160000000Y-200007200D01*
D10*
D11*
X210000000Y-198007200D02*
X210000000Y-200007200D01*
D10*
D11*
X260000000Y-198007200D02*
X260000000Y-200007200D01*
D10*
D11*
X36065476Y-199595295D02*
X35322619Y-199595295D01*
X35694047Y-199595295D02*
X35694047Y-198295295D01*
X35570238Y-198481009D01*
X35446428Y-198604819D01*
X35322619Y-198666723D01*
D10*
D11*
X85322619Y-198419104D02*
X85384523Y-198357200D01*
X85508333Y-198295295D01*
X85817857Y-198295295D01*
X85941666Y-198357200D01*
X86003571Y-198419104D01*
X86065476Y-198542914D01*
X86065476Y-198666723D01*
X86003571Y-198852438D01*
X85260714Y-199595295D01*
X86065476Y-199595295D01*
D10*
D11*
X135260714Y-198295295D02*
X136065476Y-198295295D01*
X135632142Y-198790533D01*
X135817857Y-198790533D01*
X135941666Y-198852438D01*
X136003571Y-198914342D01*
X136065476Y-199038152D01*
X136065476Y-199347676D01*
X136003571Y-199471485D01*
X135941666Y-199533390D01*
X135817857Y-199595295D01*
X135446428Y-199595295D01*
X135322619Y-199533390D01*
X135260714Y-199471485D01*
D10*
D11*
X185941666Y-198728628D02*
X185941666Y-199595295D01*
X185632142Y-198233390D02*
X185322619Y-199161961D01*
X186127380Y-199161961D01*
D10*
D11*
X236003571Y-198295295D02*
X235384523Y-198295295D01*
X235322619Y-198914342D01*
X235384523Y-198852438D01*
X235508333Y-198790533D01*
X235817857Y-198790533D01*
X235941666Y-198852438D01*
X236003571Y-198914342D01*
X236065476Y-199038152D01*
X236065476Y-199347676D01*
X236003571Y-199471485D01*
X235941666Y-199533390D01*
X235817857Y-199595295D01*
X235508333Y-199595295D01*
X235384523Y-199533390D01*
X235322619Y-199471485D01*
D10*
D11*
X285941666Y-198295295D02*
X285694047Y-198295295D01*
X285570238Y-198357200D01*
X285508333Y-198419104D01*
X285384523Y-198604819D01*
X285322619Y-198852438D01*
X285322619Y-199347676D01*
X285384523Y-199471485D01*
X285446428Y-199533390D01*
X285570238Y-199595295D01*
X285817857Y-199595295D01*
X285941666Y-199533390D01*
X286003571Y-199471485D01*
X286065476Y-199347676D01*
X286065476Y-199038152D01*
X286003571Y-198914342D01*
X285941666Y-198852438D01*
X285817857Y-198790533D01*
X285570238Y-198790533D01*
X285446428Y-198852438D01*
X285384523Y-198914342D01*
X285322619Y-199038152D01*
D10*
D11*
X10000000Y-60000000D02*
X12000000Y-60000000D01*
D10*
D11*
X10000000Y-110000000D02*
X12000000Y-110000000D01*
D10*
D11*
X10000000Y-160000000D02*
X12000000Y-160000000D01*
D10*
D11*
X10690476Y-35216666D02*
X11309523Y-35216666D01*
X10566666Y-35588095D02*
X11000000Y-34288095D01*
X11433333Y-35588095D01*
D10*
D11*
X11092857Y-84907142D02*
X11278571Y-84969047D01*
X11340476Y-85030952D01*
X11402380Y-85154761D01*
X11402380Y-85340476D01*
X11340476Y-85464285D01*
X11278571Y-85526190D01*
X11154761Y-85588095D01*
X10659523Y-85588095D01*
X10659523Y-84288095D01*
X11092857Y-84288095D01*
X11216666Y-84350000D01*
X11278571Y-84411904D01*
X11340476Y-84535714D01*
X11340476Y-84659523D01*
X11278571Y-84783333D01*
X11216666Y-84845238D01*
X11092857Y-84907142D01*
X10659523Y-84907142D01*
D10*
D11*
X11402380Y-135464285D02*
X11340476Y-135526190D01*
X11154761Y-135588095D01*
X11030952Y-135588095D01*
X10845238Y-135526190D01*
X10721428Y-135402380D01*
X10659523Y-135278571D01*
X10597619Y-135030952D01*
X10597619Y-134845238D01*
X10659523Y-134597619D01*
X10721428Y-134473809D01*
X10845238Y-134350000D01*
X11030952Y-134288095D01*
X11154761Y-134288095D01*
X11340476Y-134350000D01*
X11402380Y-134411904D01*
D10*
D11*
X10659523Y-185588095D02*
X10659523Y-184288095D01*
X10969047Y-184288095D01*
X11154761Y-184350000D01*
X11278571Y-184473809D01*
X11340476Y-184597619D01*
X11402380Y-184845238D01*
X11402380Y-185030952D01*
X11340476Y-185278571D01*
X11278571Y-185402380D01*
X11154761Y-185526190D01*
X10969047Y-185588095D01*
X10659523Y-185588095D01*
D10*
D11*
X287002200Y-60000000D02*
X285002200Y-60000000D01*
D10*
D11*
X287002200Y-110000000D02*
X285002200Y-110000000D01*
D10*
D11*
X287002200Y-160000000D02*
X285002200Y-160000000D01*
D10*
D11*
X285692676Y-35216666D02*
X286311723Y-35216666D01*
X285568866Y-35588095D02*
X286002200Y-34288095D01*
X286435533Y-35588095D01*
D10*
D11*
X286095057Y-84907142D02*
X286280771Y-84969047D01*
X286342676Y-85030952D01*
X286404580Y-85154761D01*
X286404580Y-85340476D01*
X286342676Y-85464285D01*
X286280771Y-85526190D01*
X286156961Y-85588095D01*
X285661723Y-85588095D01*
X285661723Y-84288095D01*
X286095057Y-84288095D01*
X286218866Y-84350000D01*
X286280771Y-84411904D01*
X286342676Y-84535714D01*
X286342676Y-84659523D01*
X286280771Y-84783333D01*
X286218866Y-84845238D01*
X286095057Y-84907142D01*
X285661723Y-84907142D01*
D10*
D11*
X286404580Y-135464285D02*
X286342676Y-135526190D01*
X286156961Y-135588095D01*
X286033152Y-135588095D01*
X285847438Y-135526190D01*
X285723628Y-135402380D01*
X285661723Y-135278571D01*
X285599819Y-135030952D01*
X285599819Y-134845238D01*
X285661723Y-134597619D01*
X285723628Y-134473809D01*
X285847438Y-134350000D01*
X286033152Y-134288095D01*
X286156961Y-134288095D01*
X286342676Y-134350000D01*
X286404580Y-134411904D01*
D10*
D11*
X285661723Y-185588095D02*
X285661723Y-184288095D01*
X285971247Y-184288095D01*
X286156961Y-184350000D01*
X286280771Y-184473809D01*
X286342676Y-184597619D01*
X286404580Y-184845238D01*
X286404580Y-185030952D01*
X286342676Y-185278571D01*
X286280771Y-185402380D01*
X286156961Y-185526190D01*
X285971247Y-185588095D01*
X285661723Y-185588095D01*
D10*
D11*
X200434342Y-193785771D02*
X200434342Y-192285771D01*
X200791485Y-192285771D01*
X201005771Y-192357200D01*
X201148628Y-192500057D01*
X201220057Y-192642914D01*
X201291485Y-192928628D01*
X201291485Y-193142914D01*
X201220057Y-193428628D01*
X201148628Y-193571485D01*
X201005771Y-193714342D01*
X200791485Y-193785771D01*
X200434342Y-193785771D01*
X202577200Y-193785771D02*
X202577200Y-193000057D01*
X202505771Y-192857200D01*
X202362914Y-192785771D01*
X202077200Y-192785771D01*
X201934342Y-192857200D01*
X202577200Y-193714342D02*
X202434342Y-193785771D01*
X202077200Y-193785771D01*
X201934342Y-193714342D01*
X201862914Y-193571485D01*
X201862914Y-193428628D01*
X201934342Y-193285771D01*
X202077200Y-193214342D01*
X202434342Y-193214342D01*
X202577200Y-193142914D01*
X203077200Y-192785771D02*
X203648628Y-192785771D01*
X203291485Y-192285771D02*
X203291485Y-193571485D01*
X203362914Y-193714342D01*
X203505771Y-193785771D01*
X203648628Y-193785771D01*
X204720057Y-193714342D02*
X204577200Y-193785771D01*
X204291485Y-193785771D01*
X204148628Y-193714342D01*
X204077200Y-193571485D01*
X204077200Y-193000057D01*
X204148628Y-192857200D01*
X204291485Y-192785771D01*
X204577200Y-192785771D01*
X204720057Y-192857200D01*
X204791485Y-193000057D01*
X204791485Y-193142914D01*
X204077200Y-193285771D01*
X205434342Y-193642914D02*
X205505771Y-193714342D01*
X205434342Y-193785771D01*
X205362914Y-193714342D01*
X205434342Y-193642914D01*
X205434342Y-193785771D01*
X205434342Y-192857200D02*
X205505771Y-192928628D01*
X205434342Y-193000057D01*
X205362914Y-192928628D01*
X205434342Y-192857200D01*
X205434342Y-193000057D01*
D10*
D11*
X177002200Y-194507200D02*
X285002200Y-194507200D01*
D10*
D11*
X178434342Y-196585771D02*
X178434342Y-195085771D01*
X179291485Y-196585771D02*
X178648628Y-195728628D01*
X179291485Y-195085771D02*
X178434342Y-195942914D01*
X179934342Y-196585771D02*
X179934342Y-195585771D01*
X179934342Y-195085771D02*
X179862914Y-195157200D01*
X179934342Y-195228628D01*
X180005771Y-195157200D01*
X179934342Y-195085771D01*
X179934342Y-195228628D01*
X181505771Y-196442914D02*
X181434342Y-196514342D01*
X181220057Y-196585771D01*
X181077200Y-196585771D01*
X180862914Y-196514342D01*
X180720057Y-196371485D01*
X180648628Y-196228628D01*
X180577200Y-195942914D01*
X180577200Y-195728628D01*
X180648628Y-195442914D01*
X180720057Y-195300057D01*
X180862914Y-195157200D01*
X181077200Y-195085771D01*
X181220057Y-195085771D01*
X181434342Y-195157200D01*
X181505771Y-195228628D01*
X182791485Y-196585771D02*
X182791485Y-195800057D01*
X182720057Y-195657200D01*
X182577200Y-195585771D01*
X182291485Y-195585771D01*
X182148628Y-195657200D01*
X182791485Y-196514342D02*
X182648628Y-196585771D01*
X182291485Y-196585771D01*
X182148628Y-196514342D01*
X182077200Y-196371485D01*
X182077200Y-196228628D01*
X182148628Y-196085771D01*
X182291485Y-196014342D01*
X182648628Y-196014342D01*
X182791485Y-195942914D01*
X184148628Y-196585771D02*
X184148628Y-195085771D01*
X184148628Y-196514342D02*
X184005771Y-196585771D01*
X183720057Y-196585771D01*
X183577200Y-196514342D01*
X183505771Y-196442914D01*
X183434342Y-196300057D01*
X183434342Y-195871485D01*
X183505771Y-195728628D01*
X183577200Y-195657200D01*
X183720057Y-195585771D01*
X184005771Y-195585771D01*
X184148628Y-195657200D01*
X186005771Y-195800057D02*
X186505771Y-195800057D01*
X186720057Y-196585771D02*
X186005771Y-196585771D01*
X186005771Y-195085771D01*
X186720057Y-195085771D01*
X187362914Y-196442914D02*
X187434342Y-196514342D01*
X187362914Y-196585771D01*
X187291485Y-196514342D01*
X187362914Y-196442914D01*
X187362914Y-196585771D01*
X188077200Y-196585771D02*
X188077200Y-195085771D01*
X188434342Y-195085771D01*
X188648628Y-195157200D01*
X188791485Y-195300057D01*
X188862914Y-195442914D01*
X188934342Y-195728628D01*
X188934342Y-195942914D01*
X188862914Y-196228628D01*
X188791485Y-196371485D01*
X188648628Y-196514342D01*
X188434342Y-196585771D01*
X188077200Y-196585771D01*
X189577200Y-196442914D02*
X189648628Y-196514342D01*
X189577200Y-196585771D01*
X189505771Y-196514342D01*
X189577200Y-196442914D01*
X189577200Y-196585771D01*
X190220057Y-196157200D02*
X190934342Y-196157200D01*
X190077200Y-196585771D02*
X190577200Y-195085771D01*
X191077200Y-196585771D01*
X191577200Y-196442914D02*
X191648628Y-196514342D01*
X191577200Y-196585771D01*
X191505771Y-196514342D01*
X191577200Y-196442914D01*
X191577200Y-196585771D01*
X194577200Y-196585771D02*
X194577200Y-195085771D01*
X194720057Y-196014342D02*
X195148628Y-196585771D01*
X195148628Y-195585771D02*
X194577200Y-196157200D01*
X195791485Y-196585771D02*
X195791485Y-195585771D01*
X195791485Y-195085771D02*
X195720057Y-195157200D01*
X195791485Y-195228628D01*
X195862914Y-195157200D01*
X195791485Y-195085771D01*
X195791485Y-195228628D01*
X197148628Y-196514342D02*
X197005771Y-196585771D01*
X196720057Y-196585771D01*
X196577200Y-196514342D01*
X196505771Y-196442914D01*
X196434342Y-196300057D01*
X196434342Y-195871485D01*
X196505771Y-195728628D01*
X196577200Y-195657200D01*
X196720057Y-195585771D01*
X197005771Y-195585771D01*
X197148628Y-195657200D01*
X198434342Y-196585771D02*
X198434342Y-195800057D01*
X198362914Y-195657200D01*
X198220057Y-195585771D01*
X197934342Y-195585771D01*
X197791485Y-195657200D01*
X198434342Y-196514342D02*
X198291485Y-196585771D01*
X197934342Y-196585771D01*
X197791485Y-196514342D01*
X197720057Y-196371485D01*
X197720057Y-196228628D01*
X197791485Y-196085771D01*
X197934342Y-196014342D01*
X198291485Y-196014342D01*
X198434342Y-195942914D01*
X199791485Y-196585771D02*
X199791485Y-195085771D01*
X199791485Y-196514342D02*
X199648628Y-196585771D01*
X199362914Y-196585771D01*
X199220057Y-196514342D01*
X199148628Y-196442914D01*
X199077200Y-196300057D01*
X199077200Y-195871485D01*
X199148628Y-195728628D01*
X199220057Y-195657200D01*
X199362914Y-195585771D01*
X199648628Y-195585771D01*
X199791485Y-195657200D01*
X202362914Y-195085771D02*
X201648628Y-195085771D01*
X201577200Y-195800057D01*
X201648628Y-195728628D01*
X201791485Y-195657200D01*
X202148628Y-195657200D01*
X202291485Y-195728628D01*
X202362914Y-195800057D01*
X202434342Y-195942914D01*
X202434342Y-196300057D01*
X202362914Y-196442914D01*
X202291485Y-196514342D01*
X202148628Y-196585771D01*
X201791485Y-196585771D01*
X201648628Y-196514342D01*
X201577200Y-196442914D01*
X203077200Y-196442914D02*
X203148628Y-196514342D01*
X203077200Y-196585771D01*
X203005771Y-196514342D01*
X203077200Y-196442914D01*
X203077200Y-196585771D01*
X204077200Y-195085771D02*
X204220057Y-195085771D01*
X204362914Y-195157200D01*
X204434342Y-195228628D01*
X204505771Y-195371485D01*
X204577200Y-195657200D01*
X204577200Y-196014342D01*
X204505771Y-196300057D01*
X204434342Y-196442914D01*
X204362914Y-196514342D01*
X204220057Y-196585771D01*
X204077200Y-196585771D01*
X203934342Y-196514342D01*
X203862914Y-196442914D01*
X203791485Y-196300057D01*
X203720057Y-196014342D01*
X203720057Y-195657200D01*
X203791485Y-195371485D01*
X203862914Y-195228628D01*
X203934342Y-195157200D01*
X204077200Y-195085771D01*
X205220057Y-196442914D02*
X205291485Y-196514342D01*
X205220057Y-196585771D01*
X205148628Y-196514342D01*
X205220057Y-196442914D01*
X205220057Y-196585771D01*
X206220057Y-195085771D02*
X206362914Y-195085771D01*
X206505771Y-195157200D01*
X206577200Y-195228628D01*
X206648628Y-195371485D01*
X206720057Y-195657200D01*
X206720057Y-196014342D01*
X206648628Y-196300057D01*
X206577200Y-196442914D01*
X206505771Y-196514342D01*
X206362914Y-196585771D01*
X206220057Y-196585771D01*
X206077200Y-196514342D01*
X206005771Y-196442914D01*
X205934342Y-196300057D01*
X205862914Y-196014342D01*
X205862914Y-195657200D01*
X205934342Y-195371485D01*
X206005771Y-195228628D01*
X206077200Y-195157200D01*
X206220057Y-195085771D01*
D10*
D11*
X177002200Y-191507200D02*
X285002200Y-191507200D01*
D10*
D12*
X264411485Y-193785771D02*
X263911485Y-193071485D01*
X263554342Y-193785771D02*
X263554342Y-192285771D01*
X264125771Y-192285771D01*
X264268628Y-192357200D01*
X264340057Y-192428628D01*
X264411485Y-192571485D01*
X264411485Y-192785771D01*
X264340057Y-192928628D01*
X264268628Y-193000057D01*
X264125771Y-193071485D01*
X263554342Y-193071485D01*
X265625771Y-193714342D02*
X265482914Y-193785771D01*
X265197200Y-193785771D01*
X265054342Y-193714342D01*
X264982914Y-193571485D01*
X264982914Y-193000057D01*
X265054342Y-192857200D01*
X265197200Y-192785771D01*
X265482914Y-192785771D01*
X265625771Y-192857200D01*
X265697200Y-193000057D01*
X265697200Y-193142914D01*
X264982914Y-193285771D01*
X266197200Y-192785771D02*
X266554342Y-193785771D01*
X266911485Y-192785771D01*
X267482914Y-193642914D02*
X267554342Y-193714342D01*
X267482914Y-193785771D01*
X267411485Y-193714342D01*
X267482914Y-193642914D01*
X267482914Y-193785771D01*
X267482914Y-192857200D02*
X267554342Y-192928628D01*
X267482914Y-193000057D01*
X267411485Y-192928628D01*
X267482914Y-192857200D01*
X267482914Y-193000057D01*
D10*
D11*
X178362914Y-193714342D02*
X178577200Y-193785771D01*
X178934342Y-193785771D01*
X179077200Y-193714342D01*
X179148628Y-193642914D01*
X179220057Y-193500057D01*
X179220057Y-193357200D01*
X179148628Y-193214342D01*
X179077200Y-193142914D01*
X178934342Y-193071485D01*
X178648628Y-193000057D01*
X178505771Y-192928628D01*
X178434342Y-192857200D01*
X178362914Y-192714342D01*
X178362914Y-192571485D01*
X178434342Y-192428628D01*
X178505771Y-192357200D01*
X178648628Y-192285771D01*
X179005771Y-192285771D01*
X179220057Y-192357200D01*
X179862914Y-193785771D02*
X179862914Y-192785771D01*
X179862914Y-192285771D02*
X179791485Y-192357200D01*
X179862914Y-192428628D01*
X179934342Y-192357200D01*
X179862914Y-192285771D01*
X179862914Y-192428628D01*
X180434342Y-192785771D02*
X181220057Y-192785771D01*
X180434342Y-193785771D01*
X181220057Y-193785771D01*
X182362914Y-193714342D02*
X182220057Y-193785771D01*
X181934342Y-193785771D01*
X181791485Y-193714342D01*
X181720057Y-193571485D01*
X181720057Y-193000057D01*
X181791485Y-192857200D01*
X181934342Y-192785771D01*
X182220057Y-192785771D01*
X182362914Y-192857200D01*
X182434342Y-193000057D01*
X182434342Y-193142914D01*
X181720057Y-193285771D01*
X183077200Y-193642914D02*
X183148628Y-193714342D01*
X183077200Y-193785771D01*
X183005771Y-193714342D01*
X183077200Y-193642914D01*
X183077200Y-193785771D01*
X183077200Y-192857200D02*
X183148628Y-192928628D01*
X183077200Y-193000057D01*
X183005771Y-192928628D01*
X183077200Y-192857200D01*
X183077200Y-193000057D01*
X184862914Y-193357200D02*
X185577200Y-193357200D01*
X184720057Y-193785771D02*
X185220057Y-192285771D01*
X185720057Y-193785771D01*
X186862914Y-192785771D02*
X186862914Y-193785771D01*
X186505771Y-192214342D02*
X186148628Y-193285771D01*
X187077200Y-193285771D01*
D10*
D11*
X263434342Y-196585771D02*
X263434342Y-195085771D01*
X264791485Y-196585771D02*
X264791485Y-195085771D01*
X264791485Y-196514342D02*
X264648628Y-196585771D01*
X264362914Y-196585771D01*
X264220057Y-196514342D01*
X264148628Y-196442914D01*
X264077200Y-196300057D01*
X264077200Y-195871485D01*
X264148628Y-195728628D01*
X264220057Y-195657200D01*
X264362914Y-195585771D01*
X264648628Y-195585771D01*
X264791485Y-195657200D01*
X265505771Y-196442914D02*
X265577200Y-196514342D01*
X265505771Y-196585771D01*
X265434342Y-196514342D01*
X265505771Y-196442914D01*
X265505771Y-196585771D01*
X265505771Y-195657200D02*
X265577200Y-195728628D01*
X265505771Y-195800057D01*
X265434342Y-195728628D01*
X265505771Y-195657200D01*
X265505771Y-195800057D01*
X268148628Y-196585771D02*
X267291485Y-196585771D01*
X267720057Y-196585771D02*
X267720057Y-195085771D01*
X267577200Y-195300057D01*
X267434342Y-195442914D01*
X267291485Y-195514342D01*
X269862914Y-195014342D02*
X268577200Y-196942914D01*
X271148628Y-196585771D02*
X270291485Y-196585771D01*
X270720057Y-196585771D02*
X270720057Y-195085771D01*
X270577200Y-195300057D01*
X270434342Y-195442914D01*
X270291485Y-195514342D01*
D10*
D11*
X177002200Y-187507200D02*
X285002200Y-187507200D01*
D10*
D13*
X178714580Y-188211961D02*
X179857438Y-188211961D01*
X179036009Y-190211961D02*
X179286009Y-188211961D01*
X180274104Y-190211961D02*
X180440771Y-188878628D01*
X180524104Y-188211961D02*
X180416961Y-188307200D01*
X180500295Y-188402438D01*
X180607438Y-188307200D01*
X180524104Y-188211961D01*
X180500295Y-188402438D01*
X181107438Y-188878628D02*
X181869342Y-188878628D01*
X181476485Y-188211961D02*
X181262200Y-189926247D01*
X181333628Y-190116723D01*
X181512200Y-190211961D01*
X181702676Y-190211961D01*
X182655057Y-190211961D02*
X182476485Y-190116723D01*
X182405057Y-189926247D01*
X182619342Y-188211961D01*
X184190771Y-190116723D02*
X183988390Y-190211961D01*
X183607438Y-190211961D01*
X183428866Y-190116723D01*
X183357438Y-189926247D01*
X183452676Y-189164342D01*
X183571723Y-188973866D01*
X183774104Y-188878628D01*
X184155057Y-188878628D01*
X184333628Y-188973866D01*
X184405057Y-189164342D01*
X184381247Y-189354819D01*
X183405057Y-189545295D01*
X185155057Y-190021485D02*
X185238390Y-190116723D01*
X185131247Y-190211961D01*
X185047914Y-190116723D01*
X185155057Y-190021485D01*
X185131247Y-190211961D01*
X185286009Y-188973866D02*
X185369342Y-189069104D01*
X185262200Y-189164342D01*
X185178866Y-189069104D01*
X185286009Y-188973866D01*
X185262200Y-189164342D01*
D10*
D11*
X178934342Y-185600057D02*
X178434342Y-185600057D01*
X178434342Y-186385771D02*
X178434342Y-184885771D01*
X179148628Y-184885771D01*
X179720057Y-186385771D02*
X179720057Y-185385771D01*
X179720057Y-184885771D02*
X179648628Y-184957200D01*
X179720057Y-185028628D01*
X179791485Y-184957200D01*
X179720057Y-184885771D01*
X179720057Y-185028628D01*
X180648628Y-186385771D02*
X180505771Y-186314342D01*
X180434342Y-186171485D01*
X180434342Y-184885771D01*
X181791485Y-186314342D02*
X181648628Y-186385771D01*
X181362914Y-186385771D01*
X181220057Y-186314342D01*
X181148628Y-186171485D01*
X181148628Y-185600057D01*
X181220057Y-185457200D01*
X181362914Y-185385771D01*
X181648628Y-185385771D01*
X181791485Y-185457200D01*
X181862914Y-185600057D01*
X181862914Y-185742914D01*
X181148628Y-185885771D01*
X182505771Y-186242914D02*
X182577200Y-186314342D01*
X182505771Y-186385771D01*
X182434342Y-186314342D01*
X182505771Y-186242914D01*
X182505771Y-186385771D01*
X182505771Y-185457200D02*
X182577200Y-185528628D01*
X182505771Y-185600057D01*
X182434342Y-185528628D01*
X182505771Y-185457200D01*
X182505771Y-185600057D01*
X184291485Y-186314342D02*
X184434342Y-186385771D01*
X184720057Y-186385771D01*
X184862914Y-186314342D01*
X184934342Y-186171485D01*
X184934342Y-186100057D01*
X184862914Y-185957200D01*
X184720057Y-185885771D01*
X184505771Y-185885771D01*
X184362914Y-185814342D01*
X184291485Y-185671485D01*
X184291485Y-185600057D01*
X184362914Y-185457200D01*
X184505771Y-185385771D01*
X184720057Y-185385771D01*
X184862914Y-185457200D01*
X186148628Y-186314342D02*
X186005771Y-186385771D01*
X185720057Y-186385771D01*
X185577200Y-186314342D01*
X185505771Y-186171485D01*
X185505771Y-185600057D01*
X185577200Y-185457200D01*
X185720057Y-185385771D01*
X186005771Y-185385771D01*
X186148628Y-185457200D01*
X186220057Y-185600057D01*
X186220057Y-185742914D01*
X185505771Y-185885771D01*
X186862914Y-185385771D02*
X186862914Y-186385771D01*
X186862914Y-185528628D02*
X186934342Y-185457200D01*
X187077200Y-185385771D01*
X187291485Y-185385771D01*
X187434342Y-185457200D01*
X187505771Y-185600057D01*
X187505771Y-186385771D01*
X188148628Y-186314342D02*
X188291485Y-186385771D01*
X188577200Y-186385771D01*
X188720057Y-186314342D01*
X188791485Y-186171485D01*
X188791485Y-186100057D01*
X188720057Y-185957200D01*
X188577200Y-185885771D01*
X188362914Y-185885771D01*
X188220057Y-185814342D01*
X188148628Y-185671485D01*
X188148628Y-185600057D01*
X188220057Y-185457200D01*
X188362914Y-185385771D01*
X188577200Y-185385771D01*
X188720057Y-185457200D01*
X189648628Y-186385771D02*
X189505771Y-186314342D01*
X189434342Y-186242914D01*
X189362914Y-186100057D01*
X189362914Y-185671485D01*
X189434342Y-185528628D01*
X189505771Y-185457200D01*
X189648628Y-185385771D01*
X189862914Y-185385771D01*
X190005771Y-185457200D01*
X190077200Y-185528628D01*
X190148628Y-185671485D01*
X190148628Y-186100057D01*
X190077200Y-186242914D01*
X190005771Y-186314342D01*
X189862914Y-186385771D01*
X189648628Y-186385771D01*
X190791485Y-186385771D02*
X190791485Y-185385771D01*
X190791485Y-185671485D02*
X190862914Y-185528628D01*
X190934342Y-185457200D01*
X191077200Y-185385771D01*
X191220057Y-185385771D01*
X191720057Y-186242914D02*
X191791485Y-186314342D01*
X191720057Y-186385771D01*
X191648628Y-186314342D01*
X191720057Y-186242914D01*
X191720057Y-186385771D01*
X192434342Y-186385771D02*
X192434342Y-184885771D01*
X192577200Y-185814342D02*
X193005771Y-186385771D01*
X193005771Y-185385771D02*
X192434342Y-185957200D01*
X193648628Y-186385771D02*
X193648628Y-185385771D01*
X193648628Y-184885771D02*
X193577200Y-184957200D01*
X193648628Y-185028628D01*
X193720057Y-184957200D01*
X193648628Y-184885771D01*
X193648628Y-185028628D01*
X195005771Y-186314342D02*
X194862914Y-186385771D01*
X194577200Y-186385771D01*
X194434342Y-186314342D01*
X194362914Y-186242914D01*
X194291485Y-186100057D01*
X194291485Y-185671485D01*
X194362914Y-185528628D01*
X194434342Y-185457200D01*
X194577200Y-185385771D01*
X194862914Y-185385771D01*
X195005771Y-185457200D01*
X196291485Y-186385771D02*
X196291485Y-185600057D01*
X196220057Y-185457200D01*
X196077200Y-185385771D01*
X195791485Y-185385771D01*
X195648628Y-185457200D01*
X196291485Y-186314342D02*
X196148628Y-186385771D01*
X195791485Y-186385771D01*
X195648628Y-186314342D01*
X195577200Y-186171485D01*
X195577200Y-186028628D01*
X195648628Y-185885771D01*
X195791485Y-185814342D01*
X196148628Y-185814342D01*
X196291485Y-185742914D01*
X197648628Y-186385771D02*
X197648628Y-184885771D01*
X197648628Y-186314342D02*
X197505771Y-186385771D01*
X197220057Y-186385771D01*
X197077200Y-186314342D01*
X197005771Y-186242914D01*
X196934342Y-186100057D01*
X196934342Y-185671485D01*
X197005771Y-185528628D01*
X197077200Y-185457200D01*
X197220057Y-185385771D01*
X197505771Y-185385771D01*
X197648628Y-185457200D01*
X198005771Y-186528628D02*
X199148628Y-186528628D01*
X199505771Y-185385771D02*
X199505771Y-186885771D01*
X199505771Y-185457200D02*
X199648628Y-185385771D01*
X199934342Y-185385771D01*
X200077200Y-185457200D01*
X200148628Y-185528628D01*
X200220057Y-185671485D01*
X200220057Y-186100057D01*
X200148628Y-186242914D01*
X200077200Y-186314342D01*
X199934342Y-186385771D01*
X199648628Y-186385771D01*
X199505771Y-186314342D01*
X201505771Y-186314342D02*
X201362914Y-186385771D01*
X201077200Y-186385771D01*
X200934342Y-186314342D01*
X200862914Y-186242914D01*
X200791485Y-186100057D01*
X200791485Y-185671485D01*
X200862914Y-185528628D01*
X200934342Y-185457200D01*
X201077200Y-185385771D01*
X201362914Y-185385771D01*
X201505771Y-185457200D01*
X202148628Y-186385771D02*
X202148628Y-184885771D01*
X202148628Y-185457200D02*
X202291485Y-185385771D01*
X202577200Y-185385771D01*
X202720057Y-185457200D01*
X202791485Y-185528628D01*
X202862914Y-185671485D01*
X202862914Y-186100057D01*
X202791485Y-186242914D01*
X202720057Y-186314342D01*
X202577200Y-186385771D01*
X202291485Y-186385771D01*
X202148628Y-186314342D01*
D10*
D11*
X177002200Y-181507200D02*
X285002200Y-181507200D01*
D10*
D11*
X178362914Y-183614342D02*
X178577200Y-183685771D01*
X178934342Y-183685771D01*
X179077200Y-183614342D01*
X179148628Y-183542914D01*
X179220057Y-183400057D01*
X179220057Y-183257200D01*
X179148628Y-183114342D01*
X179077200Y-183042914D01*
X178934342Y-182971485D01*
X178648628Y-182900057D01*
X178505771Y-182828628D01*
X178434342Y-182757200D01*
X178362914Y-182614342D01*
X178362914Y-182471485D01*
X178434342Y-182328628D01*
X178505771Y-182257200D01*
X178648628Y-182185771D01*
X179005771Y-182185771D01*
X179220057Y-182257200D01*
X179862914Y-183685771D02*
X179862914Y-182185771D01*
X180505771Y-183685771D02*
X180505771Y-182900057D01*
X180434342Y-182757200D01*
X180291485Y-182685771D01*
X180077200Y-182685771D01*
X179934342Y-182757200D01*
X179862914Y-182828628D01*
X181791485Y-183614342D02*
X181648628Y-183685771D01*
X181362914Y-183685771D01*
X181220057Y-183614342D01*
X181148628Y-183471485D01*
X181148628Y-182900057D01*
X181220057Y-182757200D01*
X181362914Y-182685771D01*
X181648628Y-182685771D01*
X181791485Y-182757200D01*
X181862914Y-182900057D01*
X181862914Y-183042914D01*
X181148628Y-183185771D01*
X183077200Y-183614342D02*
X182934342Y-183685771D01*
X182648628Y-183685771D01*
X182505771Y-183614342D01*
X182434342Y-183471485D01*
X182434342Y-182900057D01*
X182505771Y-182757200D01*
X182648628Y-182685771D01*
X182934342Y-182685771D01*
X183077200Y-182757200D01*
X183148628Y-182900057D01*
X183148628Y-183042914D01*
X182434342Y-183185771D01*
X183577200Y-182685771D02*
X184148628Y-182685771D01*
X183791485Y-182185771D02*
X183791485Y-183471485D01*
X183862914Y-183614342D01*
X184005771Y-183685771D01*
X184148628Y-183685771D01*
X184648628Y-183542914D02*
X184720057Y-183614342D01*
X184648628Y-183685771D01*
X184577200Y-183614342D01*
X184648628Y-183542914D01*
X184648628Y-183685771D01*
X184648628Y-182757200D02*
X184720057Y-182828628D01*
X184648628Y-182900057D01*
X184577200Y-182828628D01*
X184648628Y-182757200D01*
X184648628Y-182900057D01*
D10*
D11*
X197002200Y-191507200D02*
X197002200Y-194507200D01*
D10*
D11*
X261002200Y-191507200D02*
X261002200Y-198007200D01*
D14*
X133000000Y-100500000D02*
X127000000Y-100500000D01*
X130000000Y-102500000D02*
X127000000Y-102500000D01*
X127000000Y-98500000D02*
X127000000Y-102500000D01*
X133000000Y-98500000D02*
X127000000Y-98500000D01*
X133000000Y-102500000D02*
X133000000Y-98500000D01*
X130000000Y-102500000D02*
X133000000Y-102500000D01*
X130000000Y-98500000D02*
X130000000Y-102500000D01*
D10*
X130641190Y-99061904D02*
X130907857Y-99861904D01*
X131174523Y-99061904D01*
X131898333Y-99785714D02*
X131860238Y-99823809D01*
X131745952Y-99861904D01*
X131669761Y-99861904D01*
X131555476Y-99823809D01*
X131479285Y-99747619D01*
X131441190Y-99671428D01*
X131403095Y-99519047D01*
X131403095Y-99404761D01*
X131441190Y-99252380D01*
X131479285Y-99176190D01*
X131555476Y-99100000D01*
X131669761Y-99061904D01*
X131745952Y-99061904D01*
X131860238Y-99100000D01*
X131898333Y-99138095D01*
X132698333Y-99785714D02*
X132660238Y-99823809D01*
X132545952Y-99861904D01*
X132469761Y-99861904D01*
X132355476Y-99823809D01*
X132279285Y-99747619D01*
X132241190Y-99671428D01*
X132203095Y-99519047D01*
X132203095Y-99404761D01*
X132241190Y-99252380D01*
X132279285Y-99176190D01*
X132355476Y-99100000D01*
X132469761Y-99061904D01*
X132545952Y-99061904D01*
X132660238Y-99100000D01*
X132698333Y-99138095D01*
X127907857Y-99061904D02*
X127984047Y-99061904D01*
X128060238Y-99100000D01*
X128098333Y-99138095D01*
X128136428Y-99214285D01*
X128174523Y-99366666D01*
X128174523Y-99557142D01*
X128136428Y-99709523D01*
X128098333Y-99785714D01*
X128060238Y-99823809D01*
X127984047Y-99861904D01*
X127907857Y-99861904D01*
X127831666Y-99823809D01*
X127793571Y-99785714D01*
X127755476Y-99709523D01*
X127717380Y-99557142D01*
X127717380Y-99366666D01*
X127755476Y-99214285D01*
X127793571Y-99138095D01*
X127831666Y-99100000D01*
X127907857Y-99061904D01*
X128403095Y-99061904D02*
X128669761Y-99861904D01*
X128936428Y-99061904D01*
X130717380Y-101823809D02*
X130831666Y-101861904D01*
X131022142Y-101861904D01*
X131098333Y-101823809D01*
X131136428Y-101785714D01*
X131174523Y-101709523D01*
X131174523Y-101633333D01*
X131136428Y-101557142D01*
X131098333Y-101519047D01*
X131022142Y-101480952D01*
X130869761Y-101442857D01*
X130793571Y-101404761D01*
X130755476Y-101366666D01*
X130717380Y-101290476D01*
X130717380Y-101214285D01*
X130755476Y-101138095D01*
X130793571Y-101100000D01*
X130869761Y-101061904D01*
X131060238Y-101061904D01*
X131174523Y-101100000D01*
X131517380Y-101861904D02*
X131517380Y-101061904D01*
X131707857Y-101061904D01*
X131822142Y-101100000D01*
X131898333Y-101176190D01*
X131936428Y-101252380D01*
X131974523Y-101404761D01*
X131974523Y-101519047D01*
X131936428Y-101671428D01*
X131898333Y-101747619D01*
X131822142Y-101823809D01*
X131707857Y-101861904D01*
X131517380Y-101861904D01*
X132279285Y-101633333D02*
X132660238Y-101633333D01*
X132203095Y-101861904D02*
X132469761Y-101061904D01*
X132736428Y-101861904D01*
X127717380Y-101823809D02*
X127831666Y-101861904D01*
X128022142Y-101861904D01*
X128098333Y-101823809D01*
X128136428Y-101785714D01*
X128174523Y-101709523D01*
X128174523Y-101633333D01*
X128136428Y-101557142D01*
X128098333Y-101519047D01*
X128022142Y-101480952D01*
X127869761Y-101442857D01*
X127793571Y-101404761D01*
X127755476Y-101366666D01*
X127717380Y-101290476D01*
X127717380Y-101214285D01*
X127755476Y-101138095D01*
X127793571Y-101100000D01*
X127869761Y-101061904D01*
X128060238Y-101061904D01*
X128174523Y-101100000D01*
X128974523Y-101785714D02*
X128936428Y-101823809D01*
X128822142Y-101861904D01*
X128745952Y-101861904D01*
X128631666Y-101823809D01*
X128555476Y-101747619D01*
X128517380Y-101671428D01*
X128479285Y-101519047D01*
X128479285Y-101404761D01*
X128517380Y-101252380D01*
X128555476Y-101176190D01*
X128631666Y-101100000D01*
X128745952Y-101061904D01*
X128822142Y-101061904D01*
X128936428Y-101100000D01*
X128974523Y-101138095D01*
X129698333Y-101861904D02*
X129317380Y-101861904D01*
X129317380Y-101061904D01*
D14*
X133500000Y-99500000D02*
X133500000Y-103000000D01*
D10*
X134928571Y-105633333D02*
X135309523Y-105633333D01*
X134852380Y-105861904D02*
X135119047Y-105061904D01*
X135385714Y-105861904D01*
X136071428Y-105861904D02*
X135614285Y-105861904D01*
X135842857Y-105861904D02*
X135842857Y-105061904D01*
X135766666Y-105176190D01*
X135690476Y-105252380D01*
X135614285Y-105290476D01*
X134928571Y-100633333D02*
X135309523Y-100633333D01*
X134852380Y-100861904D02*
X135119047Y-100061904D01*
X135385714Y-100861904D01*
X135804761Y-100061904D02*
X135880952Y-100061904D01*
X135957142Y-100100000D01*
X135995238Y-100138095D01*
X136033333Y-100214285D01*
X136071428Y-100366666D01*
X136071428Y-100557142D01*
X136033333Y-100709523D01*
X135995238Y-100785714D01*
X135957142Y-100823809D01*
X135880952Y-100861904D01*
X135804761Y-100861904D01*
X135728571Y-100823809D01*
X135690476Y-100785714D01*
X135652380Y-100709523D01*
X135614285Y-100557142D01*
X135614285Y-100366666D01*
X135652380Y-100214285D01*
X135690476Y-100138095D01*
X135728571Y-100100000D01*
X135804761Y-100061904D01*
D14*
X133500000Y-108000000D02*
X142000000Y-108000000D01*
X133500000Y-103000000D02*
X133500000Y-108000000D01*
X142000000Y-103000000D02*
X142000000Y-108000000D01*
X133500000Y-98000000D02*
X133500000Y-103000000D01*
X137500000Y-98000000D02*
X133500000Y-98000000D01*
X142000000Y-103000000D02*
X133500000Y-103000000D01*
X142000000Y-98000000D02*
X142000000Y-103000000D01*
X137500000Y-98000000D02*
X142000000Y-98000000D01*
D10*
X129255476Y-96211904D02*
X129255476Y-95411904D01*
X129598333Y-95221428D02*
X129674523Y-95183333D01*
X129788809Y-95183333D01*
X129865000Y-95221428D01*
X129903095Y-95297619D01*
X129903095Y-95373809D01*
X129865000Y-95450000D01*
X129598333Y-95716666D01*
X129903095Y-95716666D01*
X130703095Y-96135714D02*
X130665000Y-96173809D01*
X130550714Y-96211904D01*
X130474523Y-96211904D01*
X130360238Y-96173809D01*
X130284047Y-96097619D01*
X130245952Y-96021428D01*
X130207857Y-95869047D01*
X130207857Y-95754761D01*
X130245952Y-95602380D01*
X130284047Y-95526190D01*
X130360238Y-95450000D01*
X130474523Y-95411904D01*
X130550714Y-95411904D01*
X130665000Y-95450000D01*
X130703095Y-95488095D01*
X131617380Y-95983333D02*
X131998333Y-95983333D01*
X131541190Y-96211904D02*
X131807857Y-95411904D01*
X132074523Y-96211904D01*
X132684047Y-96211904D02*
X132684047Y-95411904D01*
X132684047Y-96173809D02*
X132607857Y-96211904D01*
X132455476Y-96211904D01*
X132379285Y-96173809D01*
X132341190Y-96135714D01*
X132303095Y-96059523D01*
X132303095Y-95830952D01*
X132341190Y-95754761D01*
X132379285Y-95716666D01*
X132455476Y-95678571D01*
X132607857Y-95678571D01*
X132684047Y-95716666D01*
X133407857Y-96211904D02*
X133407857Y-95411904D01*
X133407857Y-96173809D02*
X133331666Y-96211904D01*
X133179285Y-96211904D01*
X133103095Y-96173809D01*
X133065000Y-96135714D01*
X133026904Y-96059523D01*
X133026904Y-95830952D01*
X133065000Y-95754761D01*
X133103095Y-95716666D01*
X133179285Y-95678571D01*
X133331666Y-95678571D01*
X133407857Y-95716666D01*
X133788809Y-96211904D02*
X133788809Y-95678571D01*
X133788809Y-95830952D02*
X133826904Y-95754761D01*
X133865000Y-95716666D01*
X133941190Y-95678571D01*
X134017380Y-95678571D01*
X134588809Y-96173809D02*
X134512619Y-96211904D01*
X134360238Y-96211904D01*
X134284047Y-96173809D01*
X134245952Y-96097619D01*
X134245952Y-95792857D01*
X134284047Y-95716666D01*
X134360238Y-95678571D01*
X134512619Y-95678571D01*
X134588809Y-95716666D01*
X134626904Y-95792857D01*
X134626904Y-95869047D01*
X134245952Y-95945238D01*
X134931666Y-96173809D02*
X135007857Y-96211904D01*
X135160238Y-96211904D01*
X135236428Y-96173809D01*
X135274523Y-96097619D01*
X135274523Y-96059523D01*
X135236428Y-95983333D01*
X135160238Y-95945238D01*
X135045952Y-95945238D01*
X134969761Y-95907142D01*
X134931666Y-95830952D01*
X134931666Y-95792857D01*
X134969761Y-95716666D01*
X135045952Y-95678571D01*
X135160238Y-95678571D01*
X135236428Y-95716666D01*
X135579285Y-96173809D02*
X135655476Y-96211904D01*
X135807857Y-96211904D01*
X135884047Y-96173809D01*
X135922142Y-96097619D01*
X135922142Y-96059523D01*
X135884047Y-95983333D01*
X135807857Y-95945238D01*
X135693571Y-95945238D01*
X135617380Y-95907142D01*
X135579285Y-95830952D01*
X135579285Y-95792857D01*
X135617380Y-95716666D01*
X135693571Y-95678571D01*
X135807857Y-95678571D01*
X135884047Y-95716666D01*
X136836428Y-96173809D02*
X136950714Y-96211904D01*
X137141190Y-96211904D01*
X137217380Y-96173809D01*
X137255476Y-96135714D01*
X137293571Y-96059523D01*
X137293571Y-95983333D01*
X137255476Y-95907142D01*
X137217380Y-95869047D01*
X137141190Y-95830952D01*
X136988809Y-95792857D01*
X136912619Y-95754761D01*
X136874523Y-95716666D01*
X136836428Y-95640476D01*
X136836428Y-95564285D01*
X136874523Y-95488095D01*
X136912619Y-95450000D01*
X136988809Y-95411904D01*
X137179285Y-95411904D01*
X137293571Y-95450000D01*
X137941190Y-96173809D02*
X137865000Y-96211904D01*
X137712619Y-96211904D01*
X137636428Y-96173809D01*
X137598333Y-96097619D01*
X137598333Y-95792857D01*
X137636428Y-95716666D01*
X137712619Y-95678571D01*
X137865000Y-95678571D01*
X137941190Y-95716666D01*
X137979285Y-95792857D01*
X137979285Y-95869047D01*
X137598333Y-95945238D01*
X138436428Y-96211904D02*
X138360238Y-96173809D01*
X138322142Y-96097619D01*
X138322142Y-95411904D01*
X139045952Y-96173809D02*
X138969761Y-96211904D01*
X138817380Y-96211904D01*
X138741190Y-96173809D01*
X138703095Y-96097619D01*
X138703095Y-95792857D01*
X138741190Y-95716666D01*
X138817380Y-95678571D01*
X138969761Y-95678571D01*
X139045952Y-95716666D01*
X139084047Y-95792857D01*
X139084047Y-95869047D01*
X138703095Y-95945238D01*
X139769761Y-96173809D02*
X139693571Y-96211904D01*
X139541190Y-96211904D01*
X139465000Y-96173809D01*
X139426904Y-96135714D01*
X139388809Y-96059523D01*
X139388809Y-95830952D01*
X139426904Y-95754761D01*
X139465000Y-95716666D01*
X139541190Y-95678571D01*
X139693571Y-95678571D01*
X139769761Y-95716666D01*
X139998333Y-95678571D02*
X140303095Y-95678571D01*
X140112619Y-95411904D02*
X140112619Y-96097619D01*
X140150714Y-96173809D01*
X140226904Y-96211904D01*
X140303095Y-96211904D01*
X129484047Y-97816666D02*
X129445952Y-97778571D01*
X129369761Y-97664285D01*
X129331666Y-97588095D01*
X129293571Y-97473809D01*
X129255476Y-97283333D01*
X129255476Y-97130952D01*
X129293571Y-96940476D01*
X129331666Y-96826190D01*
X129369761Y-96750000D01*
X129445952Y-96635714D01*
X129484047Y-96597619D01*
X130245952Y-97511904D02*
X129979285Y-97130952D01*
X129788809Y-97511904D02*
X129788809Y-96711904D01*
X130093571Y-96711904D01*
X130169761Y-96750000D01*
X130207857Y-96788095D01*
X130245952Y-96864285D01*
X130245952Y-96978571D01*
X130207857Y-97054761D01*
X130169761Y-97092857D01*
X130093571Y-97130952D01*
X129788809Y-97130952D01*
X130893571Y-97473809D02*
X130817380Y-97511904D01*
X130665000Y-97511904D01*
X130588809Y-97473809D01*
X130550714Y-97397619D01*
X130550714Y-97092857D01*
X130588809Y-97016666D01*
X130665000Y-96978571D01*
X130817380Y-96978571D01*
X130893571Y-97016666D01*
X130931666Y-97092857D01*
X130931666Y-97169047D01*
X130550714Y-97245238D01*
X131160238Y-96978571D02*
X131465000Y-96978571D01*
X131274523Y-97511904D02*
X131274523Y-96826190D01*
X131312619Y-96750000D01*
X131388809Y-96711904D01*
X131465000Y-96711904D01*
X132036428Y-97473809D02*
X131960238Y-97511904D01*
X131807857Y-97511904D01*
X131731666Y-97473809D01*
X131693571Y-97397619D01*
X131693571Y-97092857D01*
X131731666Y-97016666D01*
X131807857Y-96978571D01*
X131960238Y-96978571D01*
X132036428Y-97016666D01*
X132074523Y-97092857D01*
X132074523Y-97169047D01*
X131693571Y-97245238D01*
X132417380Y-97511904D02*
X132417380Y-96978571D01*
X132417380Y-97130952D02*
X132455476Y-97054761D01*
X132493571Y-97016666D01*
X132569761Y-96978571D01*
X132645952Y-96978571D01*
X133522142Y-97511904D02*
X133522142Y-96711904D01*
X133903095Y-97511904D02*
X133903095Y-96711904D01*
X134360238Y-97511904D01*
X134360238Y-96711904D01*
X134703095Y-97283333D02*
X135084047Y-97283333D01*
X134626904Y-97511904D02*
X134893571Y-96711904D01*
X135160238Y-97511904D01*
X135388809Y-96788095D02*
X135426904Y-96750000D01*
X135503095Y-96711904D01*
X135693571Y-96711904D01*
X135769761Y-96750000D01*
X135807857Y-96788095D01*
X135845952Y-96864285D01*
X135845952Y-96940476D01*
X135807857Y-97054761D01*
X135350714Y-97511904D01*
X135845952Y-97511904D01*
X136607857Y-97511904D02*
X136150714Y-97511904D01*
X136379285Y-97511904D02*
X136379285Y-96711904D01*
X136303095Y-96826190D01*
X136226904Y-96902380D01*
X136150714Y-96940476D01*
X136988809Y-97511904D02*
X137141190Y-97511904D01*
X137217380Y-97473809D01*
X137255476Y-97435714D01*
X137331666Y-97321428D01*
X137369761Y-97169047D01*
X137369761Y-96864285D01*
X137331666Y-96788095D01*
X137293571Y-96750000D01*
X137217380Y-96711904D01*
X137065000Y-96711904D01*
X136988809Y-96750000D01*
X136950714Y-96788095D01*
X136912619Y-96864285D01*
X136912619Y-97054761D01*
X136950714Y-97130952D01*
X136988809Y-97169047D01*
X137065000Y-97207142D01*
X137217380Y-97207142D01*
X137293571Y-97169047D01*
X137331666Y-97130952D01*
X137369761Y-97054761D01*
X138665000Y-97511904D02*
X138665000Y-96711904D01*
X138665000Y-97473809D02*
X138588809Y-97511904D01*
X138436428Y-97511904D01*
X138360238Y-97473809D01*
X138322142Y-97435714D01*
X138284047Y-97359523D01*
X138284047Y-97130952D01*
X138322142Y-97054761D01*
X138360238Y-97016666D01*
X138436428Y-96978571D01*
X138588809Y-96978571D01*
X138665000Y-97016666D01*
X139388809Y-97511904D02*
X139388809Y-97092857D01*
X139350714Y-97016666D01*
X139274523Y-96978571D01*
X139122142Y-96978571D01*
X139045952Y-97016666D01*
X139388809Y-97473809D02*
X139312619Y-97511904D01*
X139122142Y-97511904D01*
X139045952Y-97473809D01*
X139007857Y-97397619D01*
X139007857Y-97321428D01*
X139045952Y-97245238D01*
X139122142Y-97207142D01*
X139312619Y-97207142D01*
X139388809Y-97169047D01*
X139655476Y-96978571D02*
X139960238Y-96978571D01*
X139769761Y-96711904D02*
X139769761Y-97397619D01*
X139807857Y-97473809D01*
X139884047Y-97511904D01*
X139960238Y-97511904D01*
X140569761Y-97511904D02*
X140569761Y-97092857D01*
X140531666Y-97016666D01*
X140455476Y-96978571D01*
X140303095Y-96978571D01*
X140226904Y-97016666D01*
X140569761Y-97473809D02*
X140493571Y-97511904D01*
X140303095Y-97511904D01*
X140226904Y-97473809D01*
X140188809Y-97397619D01*
X140188809Y-97321428D01*
X140226904Y-97245238D01*
X140303095Y-97207142D01*
X140493571Y-97207142D01*
X140569761Y-97169047D01*
X140912619Y-97473809D02*
X140988809Y-97511904D01*
X141141190Y-97511904D01*
X141217380Y-97473809D01*
X141255476Y-97397619D01*
X141255476Y-97359523D01*
X141217380Y-97283333D01*
X141141190Y-97245238D01*
X141026904Y-97245238D01*
X140950714Y-97207142D01*
X140912619Y-97130952D01*
X140912619Y-97092857D01*
X140950714Y-97016666D01*
X141026904Y-96978571D01*
X141141190Y-96978571D01*
X141217380Y-97016666D01*
X141598333Y-97511904D02*
X141598333Y-96711904D01*
X141941190Y-97511904D02*
X141941190Y-97092857D01*
X141903095Y-97016666D01*
X141826904Y-96978571D01*
X141712619Y-96978571D01*
X141636428Y-97016666D01*
X141598333Y-97054761D01*
X142626904Y-97473809D02*
X142550714Y-97511904D01*
X142398333Y-97511904D01*
X142322142Y-97473809D01*
X142284047Y-97397619D01*
X142284047Y-97092857D01*
X142322142Y-97016666D01*
X142398333Y-96978571D01*
X142550714Y-96978571D01*
X142626904Y-97016666D01*
X142665000Y-97092857D01*
X142665000Y-97169047D01*
X142284047Y-97245238D01*
X143312619Y-97473809D02*
X143236428Y-97511904D01*
X143084047Y-97511904D01*
X143007857Y-97473809D01*
X142969761Y-97397619D01*
X142969761Y-97092857D01*
X143007857Y-97016666D01*
X143084047Y-96978571D01*
X143236428Y-96978571D01*
X143312619Y-97016666D01*
X143350714Y-97092857D01*
X143350714Y-97169047D01*
X142969761Y-97245238D01*
X143579285Y-96978571D02*
X143884047Y-96978571D01*
X143693571Y-96711904D02*
X143693571Y-97397619D01*
X143731666Y-97473809D01*
X143807857Y-97511904D01*
X143884047Y-97511904D01*
X144074523Y-97816666D02*
X144112619Y-97778571D01*
X144188809Y-97664285D01*
X144226904Y-97588095D01*
X144265000Y-97473809D01*
X144303095Y-97283333D01*
X144303095Y-97130952D01*
X144265000Y-96940476D01*
X144226904Y-96826190D01*
X144188809Y-96750000D01*
X144112619Y-96635714D01*
X144074523Y-96597619D01*
X150495238Y-92047619D02*
X150419047Y-92047619D01*
X150342857Y-92000000D01*
X150304761Y-91952380D01*
X150266666Y-91857142D01*
X150228571Y-91666666D01*
X150228571Y-91428571D01*
X150266666Y-91238095D01*
X150304761Y-91142857D01*
X150342857Y-91095238D01*
X150419047Y-91047619D01*
X150495238Y-91047619D01*
X150571428Y-91095238D01*
X150609523Y-91142857D01*
X150647619Y-91238095D01*
X150685714Y-91428571D01*
X150685714Y-91666666D01*
X150647619Y-91857142D01*
X150609523Y-91952380D01*
X150571428Y-92000000D01*
X150495238Y-92047619D01*
X150000000Y-92047619D02*
X149733333Y-91047619D01*
X149466666Y-92047619D01*
X148628571Y-91095238D02*
X148514285Y-91047619D01*
X148323809Y-91047619D01*
X148247619Y-91095238D01*
X148209523Y-91142857D01*
X148171428Y-91238095D01*
X148171428Y-91333333D01*
X148209523Y-91428571D01*
X148247619Y-91476190D01*
X148323809Y-91523809D01*
X148476190Y-91571428D01*
X148552380Y-91619047D01*
X148590476Y-91666666D01*
X148628571Y-91761904D01*
X148628571Y-91857142D01*
X148590476Y-91952380D01*
X148552380Y-92000000D01*
X148476190Y-92047619D01*
X148285714Y-92047619D01*
X148171428Y-92000000D01*
X147828571Y-91047619D02*
X147828571Y-92047619D01*
X147485714Y-91047619D02*
X147485714Y-91571428D01*
X147523809Y-91666666D01*
X147600000Y-91714285D01*
X147714285Y-91714285D01*
X147790476Y-91666666D01*
X147828571Y-91619047D01*
X147104761Y-91428571D02*
X146495238Y-91428571D01*
X145542857Y-91095238D02*
X145428571Y-91047619D01*
X145238095Y-91047619D01*
X145161904Y-91095238D01*
X145123809Y-91142857D01*
X145085714Y-91238095D01*
X145085714Y-91333333D01*
X145123809Y-91428571D01*
X145161904Y-91476190D01*
X145238095Y-91523809D01*
X145390476Y-91571428D01*
X145466666Y-91619047D01*
X145504761Y-91666666D01*
X145542857Y-91761904D01*
X145542857Y-91857142D01*
X145504761Y-91952380D01*
X145466666Y-92000000D01*
X145390476Y-92047619D01*
X145200000Y-92047619D01*
X145085714Y-92000000D01*
X144742857Y-91047619D02*
X144742857Y-92047619D01*
X144400000Y-91047619D02*
X144400000Y-91571428D01*
X144438095Y-91666666D01*
X144514285Y-91714285D01*
X144628571Y-91714285D01*
X144704761Y-91666666D01*
X144742857Y-91619047D01*
X144019047Y-91428571D02*
X143409523Y-91428571D01*
X143714285Y-91047619D02*
X143714285Y-91809523D01*
X142266666Y-92047619D02*
X142190476Y-92047619D01*
X142114285Y-92000000D01*
X142076190Y-91952380D01*
X142038095Y-91857142D01*
X142000000Y-91666666D01*
X142000000Y-91428571D01*
X142038095Y-91238095D01*
X142076190Y-91142857D01*
X142114285Y-91095238D01*
X142190476Y-91047619D01*
X142266666Y-91047619D01*
X142342857Y-91095238D01*
X142380952Y-91142857D01*
X142419047Y-91238095D01*
X142457142Y-91428571D01*
X142457142Y-91666666D01*
X142419047Y-91857142D01*
X142380952Y-91952380D01*
X142342857Y-92000000D01*
X142266666Y-92047619D01*
X141771428Y-92047619D02*
X141504761Y-91047619D01*
X141238095Y-92047619D01*
D15*
G04 #@! TO.C,C1*
X154738000Y-112641748D02*
X154738000Y-113164252D01*
X156158000Y-112641748D02*
X156158000Y-113164252D01*
G04 #@! TO.C,C2*
X155848000Y-110725000D02*
X158198000Y-110725000D01*
X162668000Y-110725000D02*
X160318000Y-110725000D01*
X162668000Y-104969437D02*
X162668000Y-110725000D01*
X155848000Y-104969437D02*
X155848000Y-110725000D01*
X156912437Y-103905000D02*
X158198000Y-103905000D01*
X161603563Y-103905000D02*
X160318000Y-103905000D01*
X161603563Y-103905000D02*
X162668000Y-104969437D01*
X156912437Y-103905000D02*
X155848000Y-104969437D01*
X161105500Y-102877500D02*
X161105500Y-103665000D01*
X161499250Y-103271250D02*
X160711750Y-103271250D01*
G04 #@! TO.C,C3*
X150360748Y-96064000D02*
X150883252Y-96064000D01*
X150360748Y-97484000D02*
X150883252Y-97484000D01*
G04 #@! TO.C,C4*
X164290000Y-109286252D02*
X164290000Y-108763748D01*
X165710000Y-109286252D02*
X165710000Y-108763748D01*
G04 #@! TO.C,C5*
X164290000Y-100703748D02*
X164290000Y-101226252D01*
X165710000Y-100703748D02*
X165710000Y-101226252D01*
G04 #@! TO.C,C6*
X124290000Y-100703748D02*
X124290000Y-101226252D01*
X125710000Y-100703748D02*
X125710000Y-101226252D01*
G04 #@! TO.C,C7*
X124290000Y-109261252D02*
X124290000Y-108738748D01*
X125710000Y-109261252D02*
X125710000Y-108738748D01*
G04 #@! TO.C,J1*
X153780000Y-118030000D02*
X153780000Y-112010000D01*
X153780000Y-112010000D02*
X138320000Y-112010000D01*
X138320000Y-112010000D02*
X138320000Y-118030000D01*
X138320000Y-118030000D02*
X153780000Y-118030000D01*
X154070000Y-117000000D02*
X154070000Y-113000000D01*
X152400000Y-112010000D02*
X152400000Y-113010000D01*
X152400000Y-113010000D02*
X139700000Y-113010000D01*
X139700000Y-113010000D02*
X139700000Y-112010000D01*
X152400000Y-113010000D02*
X152150000Y-113540000D01*
X152150000Y-113540000D02*
X139950000Y-113540000D01*
X139950000Y-113540000D02*
X139700000Y-113010000D01*
X152150000Y-112010000D02*
X152150000Y-113010000D01*
X139950000Y-112010000D02*
X139950000Y-113010000D01*
X153200000Y-118030000D02*
X153200000Y-117430000D01*
X153200000Y-117430000D02*
X151600000Y-117430000D01*
X151600000Y-117430000D02*
X151600000Y-118030000D01*
X150660000Y-118030000D02*
X150660000Y-117430000D01*
X150660000Y-117430000D02*
X149060000Y-117430000D01*
X149060000Y-117430000D02*
X149060000Y-118030000D01*
X148120000Y-118030000D02*
X148120000Y-117430000D01*
X148120000Y-117430000D02*
X146520000Y-117430000D01*
X146520000Y-117430000D02*
X146520000Y-118030000D01*
X145580000Y-118030000D02*
X145580000Y-117430000D01*
X145580000Y-117430000D02*
X143980000Y-117430000D01*
X143980000Y-117430000D02*
X143980000Y-118030000D01*
X143040000Y-118030000D02*
X143040000Y-117430000D01*
X143040000Y-117430000D02*
X141440000Y-117430000D01*
X141440000Y-117430000D02*
X141440000Y-118030000D01*
X140500000Y-118030000D02*
X140500000Y-117430000D01*
X140500000Y-117430000D02*
X138900000Y-117430000D01*
X138900000Y-117430000D02*
X138900000Y-118030000D01*
G04 #@! TO.C,J2*
X151190000Y-95310000D02*
X151190000Y-92650000D01*
X143510000Y-95310000D02*
X151190000Y-95310000D01*
X143510000Y-92650000D02*
X151190000Y-92650000D01*
X143510000Y-95310000D02*
X143510000Y-92650000D01*
X142240000Y-95310000D02*
X140910000Y-95310000D01*
X140910000Y-95310000D02*
X140910000Y-93980000D01*
G04 #@! TO.C,JP1*
X138627000Y-108007000D02*
X138927000Y-108307000D01*
X138327000Y-108307000D02*
X138927000Y-108307000D01*
X138627000Y-108007000D02*
X138327000Y-108307000D01*
X137777000Y-107107000D02*
X137777000Y-106507000D01*
X141227000Y-107807000D02*
X138427000Y-107807000D01*
X141877000Y-106507000D02*
X141877000Y-107107000D01*
X138427000Y-105807000D02*
X141227000Y-105807000D01*
X141177000Y-105807000D02*
G75*
G02X141877000Y-106507000I0J-700000D01*
G01*
X141877000Y-107107000D02*
G75*
G02X141177000Y-107807000I-700000J0D01*
G01*
X138477000Y-107807000D02*
G75*
G02X137777000Y-107107000I0J700000D01*
G01*
X137777000Y-106507000D02*
G75*
G02X138477000Y-105807000I700000J0D01*
G01*
G04 #@! TO.C,JP2*
X138627000Y-105467000D02*
X138927000Y-105767000D01*
X138327000Y-105767000D02*
X138927000Y-105767000D01*
X138627000Y-105467000D02*
X138327000Y-105767000D01*
X137777000Y-104567000D02*
X137777000Y-103967000D01*
X141227000Y-105267000D02*
X138427000Y-105267000D01*
X141877000Y-103967000D02*
X141877000Y-104567000D01*
X138427000Y-103267000D02*
X141227000Y-103267000D01*
X141177000Y-103267000D02*
G75*
G02X141877000Y-103967000I0J-700000D01*
G01*
X141877000Y-104567000D02*
G75*
G02X141177000Y-105267000I-700000J0D01*
G01*
X138477000Y-105267000D02*
G75*
G02X137777000Y-104567000I0J700000D01*
G01*
X137777000Y-103967000D02*
G75*
G02X138477000Y-103267000I700000J0D01*
G01*
G04 #@! TO.C,JP3*
X137777000Y-101427000D02*
G75*
G02X138477000Y-100727000I700000J0D01*
G01*
X138477000Y-102727000D02*
G75*
G02X137777000Y-102027000I0J700000D01*
G01*
X141877000Y-102027000D02*
G75*
G02X141177000Y-102727000I-700000J0D01*
G01*
X141177000Y-100727000D02*
G75*
G02X141877000Y-101427000I0J-700000D01*
G01*
X138427000Y-100727000D02*
X141227000Y-100727000D01*
X141877000Y-101427000D02*
X141877000Y-102027000D01*
X141227000Y-102727000D02*
X138427000Y-102727000D01*
X137777000Y-102027000D02*
X137777000Y-101427000D01*
X138627000Y-102927000D02*
X138327000Y-103227000D01*
X138327000Y-103227000D02*
X138927000Y-103227000D01*
X138627000Y-102927000D02*
X138927000Y-103227000D01*
G04 #@! TO.C,JP4*
X138627000Y-100387000D02*
X138927000Y-100687000D01*
X138327000Y-100687000D02*
X138927000Y-100687000D01*
X138627000Y-100387000D02*
X138327000Y-100687000D01*
X137777000Y-99487000D02*
X137777000Y-98887000D01*
X141227000Y-100187000D02*
X138427000Y-100187000D01*
X141877000Y-98887000D02*
X141877000Y-99487000D01*
X138427000Y-98187000D02*
X141227000Y-98187000D01*
X141177000Y-98187000D02*
G75*
G02X141877000Y-98887000I0J-700000D01*
G01*
X141877000Y-99487000D02*
G75*
G02X141177000Y-100187000I-700000J0D01*
G01*
X138477000Y-100187000D02*
G75*
G02X137777000Y-99487000I0J700000D01*
G01*
X137777000Y-98887000D02*
G75*
G02X138477000Y-98187000I700000J0D01*
G01*
G04 #@! TO.C,R12*
X151840000Y-100195748D02*
X151840000Y-100718252D01*
X150420000Y-100195748D02*
X150420000Y-100718252D01*
G04 #@! TO.C,R13*
X146677748Y-108406000D02*
X147200252Y-108406000D01*
X146677748Y-106986000D02*
X147200252Y-106986000D01*
D11*
G04 #@! TO.C,U1*
X155295000Y-106325000D02*
X155120000Y-106325000D01*
X155295000Y-109575000D02*
X155020000Y-109575000D01*
X152045000Y-109575000D02*
X152320000Y-109575000D01*
X152045000Y-106325000D02*
X152320000Y-106325000D01*
X155295000Y-106325000D02*
X155295000Y-109575000D01*
X152045000Y-106325000D02*
X152045000Y-109575000D01*
X155120000Y-106325000D02*
X155120000Y-105250000D01*
G04 #@! TO.C,U2*
X144745000Y-103675000D02*
X144795000Y-103675000D01*
X144745000Y-99525000D02*
X144890000Y-99525000D01*
X149895000Y-99525000D02*
X149750000Y-99525000D01*
X149895000Y-103675000D02*
X149750000Y-103675000D01*
X144745000Y-103675000D02*
X144745000Y-99525000D01*
X149895000Y-103675000D02*
X149895000Y-99525000D01*
X144795000Y-103675000D02*
X144795000Y-105075000D01*
G04 #@! TO.C,C1*
X157455142Y-113069666D02*
X157502761Y-113117285D01*
X157550380Y-113260142D01*
X157550380Y-113355380D01*
X157502761Y-113498238D01*
X157407523Y-113593476D01*
X157312285Y-113641095D01*
X157121809Y-113688714D01*
X156978952Y-113688714D01*
X156788476Y-113641095D01*
X156693238Y-113593476D01*
X156598000Y-113498238D01*
X156550380Y-113355380D01*
X156550380Y-113260142D01*
X156598000Y-113117285D01*
X156645619Y-113069666D01*
X157550380Y-112117285D02*
X157550380Y-112688714D01*
X157550380Y-112403000D02*
X156550380Y-112403000D01*
X156693238Y-112498238D01*
X156788476Y-112593476D01*
X156836095Y-112688714D01*
G04 #@! TO.C,C2*
X159857142Y-113166666D02*
X159904761Y-113214285D01*
X159952380Y-113357142D01*
X159952380Y-113452380D01*
X159904761Y-113595238D01*
X159809523Y-113690476D01*
X159714285Y-113738095D01*
X159523809Y-113785714D01*
X159380952Y-113785714D01*
X159190476Y-113738095D01*
X159095238Y-113690476D01*
X159000000Y-113595238D01*
X158952380Y-113452380D01*
X158952380Y-113357142D01*
X159000000Y-113214285D01*
X159047619Y-113166666D01*
X159047619Y-112785714D02*
X159000000Y-112738095D01*
X158952380Y-112642857D01*
X158952380Y-112404761D01*
X159000000Y-112309523D01*
X159047619Y-112261904D01*
X159142857Y-112214285D01*
X159238095Y-112214285D01*
X159380952Y-112261904D01*
X159952380Y-112833333D01*
X159952380Y-112214285D01*
G04 #@! TO.C,C3*
X153376333Y-97258142D02*
X153328714Y-97305761D01*
X153185857Y-97353380D01*
X153090619Y-97353380D01*
X152947761Y-97305761D01*
X152852523Y-97210523D01*
X152804904Y-97115285D01*
X152757285Y-96924809D01*
X152757285Y-96781952D01*
X152804904Y-96591476D01*
X152852523Y-96496238D01*
X152947761Y-96401000D01*
X153090619Y-96353380D01*
X153185857Y-96353380D01*
X153328714Y-96401000D01*
X153376333Y-96448619D01*
X153709666Y-96353380D02*
X154328714Y-96353380D01*
X153995380Y-96734333D01*
X154138238Y-96734333D01*
X154233476Y-96781952D01*
X154281095Y-96829571D01*
X154328714Y-96924809D01*
X154328714Y-97162904D01*
X154281095Y-97258142D01*
X154233476Y-97305761D01*
X154138238Y-97353380D01*
X153852523Y-97353380D01*
X153757285Y-97305761D01*
X153709666Y-97258142D01*
G04 #@! TO.C,J1*
X145716666Y-118572380D02*
X145716666Y-119286666D01*
X145669047Y-119429523D01*
X145573809Y-119524761D01*
X145430952Y-119572380D01*
X145335714Y-119572380D01*
X146716666Y-119572380D02*
X146145238Y-119572380D01*
X146430952Y-119572380D02*
X146430952Y-118572380D01*
X146335714Y-118715238D01*
X146240476Y-118810476D01*
X146145238Y-118858095D01*
G04 #@! TO.C,J2*
X139362380Y-94313333D02*
X140076666Y-94313333D01*
X140219523Y-94360952D01*
X140314761Y-94456190D01*
X140362380Y-94599047D01*
X140362380Y-94694285D01*
X139457619Y-93884761D02*
X139410000Y-93837142D01*
X139362380Y-93741904D01*
X139362380Y-93503809D01*
X139410000Y-93408571D01*
X139457619Y-93360952D01*
X139552857Y-93313333D01*
X139648095Y-93313333D01*
X139790952Y-93360952D01*
X140362380Y-93932380D01*
X140362380Y-93313333D01*
G04 #@! TO.C,JP1*
X135056666Y-106259380D02*
X135056666Y-106973666D01*
X135009047Y-107116523D01*
X134913809Y-107211761D01*
X134770952Y-107259380D01*
X134675714Y-107259380D01*
X135532857Y-107259380D02*
X135532857Y-106259380D01*
X135913809Y-106259380D01*
X136009047Y-106307000D01*
X136056666Y-106354619D01*
X136104285Y-106449857D01*
X136104285Y-106592714D01*
X136056666Y-106687952D01*
X136009047Y-106735571D01*
X135913809Y-106783190D01*
X135532857Y-106783190D01*
X137056666Y-107259380D02*
X136485238Y-107259380D01*
X136770952Y-107259380D02*
X136770952Y-106259380D01*
X136675714Y-106402238D01*
X136580476Y-106497476D01*
X136485238Y-106545095D01*
G04 #@! TO.C,JP2*
X135056666Y-103719380D02*
X135056666Y-104433666D01*
X135009047Y-104576523D01*
X134913809Y-104671761D01*
X134770952Y-104719380D01*
X134675714Y-104719380D01*
X135532857Y-104719380D02*
X135532857Y-103719380D01*
X135913809Y-103719380D01*
X136009047Y-103767000D01*
X136056666Y-103814619D01*
X136104285Y-103909857D01*
X136104285Y-104052714D01*
X136056666Y-104147952D01*
X136009047Y-104195571D01*
X135913809Y-104243190D01*
X135532857Y-104243190D01*
X136485238Y-103814619D02*
X136532857Y-103767000D01*
X136628095Y-103719380D01*
X136866190Y-103719380D01*
X136961428Y-103767000D01*
X137009047Y-103814619D01*
X137056666Y-103909857D01*
X137056666Y-104005095D01*
X137009047Y-104147952D01*
X136437619Y-104719380D01*
X137056666Y-104719380D01*
G04 #@! TO.C,JP3*
X135056666Y-101306380D02*
X135056666Y-102020666D01*
X135009047Y-102163523D01*
X134913809Y-102258761D01*
X134770952Y-102306380D01*
X134675714Y-102306380D01*
X135532857Y-102306380D02*
X135532857Y-101306380D01*
X135913809Y-101306380D01*
X136009047Y-101354000D01*
X136056666Y-101401619D01*
X136104285Y-101496857D01*
X136104285Y-101639714D01*
X136056666Y-101734952D01*
X136009047Y-101782571D01*
X135913809Y-101830190D01*
X135532857Y-101830190D01*
X136437619Y-101306380D02*
X137056666Y-101306380D01*
X136723333Y-101687333D01*
X136866190Y-101687333D01*
X136961428Y-101734952D01*
X137009047Y-101782571D01*
X137056666Y-101877809D01*
X137056666Y-102115904D01*
X137009047Y-102211142D01*
X136961428Y-102258761D01*
X136866190Y-102306380D01*
X136580476Y-102306380D01*
X136485238Y-102258761D01*
X136437619Y-102211142D01*
G04 #@! TO.C,JP4*
X135056666Y-98639380D02*
X135056666Y-99353666D01*
X135009047Y-99496523D01*
X134913809Y-99591761D01*
X134770952Y-99639380D01*
X134675714Y-99639380D01*
X135532857Y-99639380D02*
X135532857Y-98639380D01*
X135913809Y-98639380D01*
X136009047Y-98687000D01*
X136056666Y-98734619D01*
X136104285Y-98829857D01*
X136104285Y-98972714D01*
X136056666Y-99067952D01*
X136009047Y-99115571D01*
X135913809Y-99163190D01*
X135532857Y-99163190D01*
X136961428Y-98972714D02*
X136961428Y-99639380D01*
X136723333Y-98591761D02*
X136485238Y-99306047D01*
X137104285Y-99306047D01*
G04 #@! TO.C,R12*
X153360380Y-101607857D02*
X152884190Y-101941190D01*
X153360380Y-102179285D02*
X152360380Y-102179285D01*
X152360380Y-101798333D01*
X152408000Y-101703095D01*
X152455619Y-101655476D01*
X152550857Y-101607857D01*
X152693714Y-101607857D01*
X152788952Y-101655476D01*
X152836571Y-101703095D01*
X152884190Y-101798333D01*
X152884190Y-102179285D01*
X153360380Y-100655476D02*
X153360380Y-101226904D01*
X153360380Y-100941190D02*
X152360380Y-100941190D01*
X152503238Y-101036428D01*
X152598476Y-101131666D01*
X152646095Y-101226904D01*
X152455619Y-100274523D02*
X152408000Y-100226904D01*
X152360380Y-100131666D01*
X152360380Y-99893571D01*
X152408000Y-99798333D01*
X152455619Y-99750714D01*
X152550857Y-99703095D01*
X152646095Y-99703095D01*
X152788952Y-99750714D01*
X153360380Y-100322142D01*
X153360380Y-99703095D01*
X153725619Y-102131666D02*
X153678000Y-102084047D01*
X153630380Y-101988809D01*
X153630380Y-101750714D01*
X153678000Y-101655476D01*
X153725619Y-101607857D01*
X153820857Y-101560238D01*
X153916095Y-101560238D01*
X154058952Y-101607857D01*
X154630380Y-102179285D01*
X154630380Y-101560238D01*
X154630380Y-101131666D02*
X153630380Y-101131666D01*
X154249428Y-101036428D02*
X154630380Y-100750714D01*
X153963714Y-100750714D02*
X154344666Y-101131666D01*
X153725619Y-100369761D02*
X153678000Y-100322142D01*
X153630380Y-100226904D01*
X153630380Y-99988809D01*
X153678000Y-99893571D01*
X153725619Y-99845952D01*
X153820857Y-99798333D01*
X153916095Y-99798333D01*
X154058952Y-99845952D01*
X154630380Y-100417380D01*
X154630380Y-99798333D01*
G04 #@! TO.C,R13*
X142994142Y-108148380D02*
X142660809Y-107672190D01*
X142422714Y-108148380D02*
X142422714Y-107148380D01*
X142803666Y-107148380D01*
X142898904Y-107196000D01*
X142946523Y-107243619D01*
X142994142Y-107338857D01*
X142994142Y-107481714D01*
X142946523Y-107576952D01*
X142898904Y-107624571D01*
X142803666Y-107672190D01*
X142422714Y-107672190D01*
X143946523Y-108148380D02*
X143375095Y-108148380D01*
X143660809Y-108148380D02*
X143660809Y-107148380D01*
X143565571Y-107291238D01*
X143470333Y-107386476D01*
X143375095Y-107434095D01*
X144279857Y-107148380D02*
X144898904Y-107148380D01*
X144565571Y-107529333D01*
X144708428Y-107529333D01*
X144803666Y-107576952D01*
X144851285Y-107624571D01*
X144898904Y-107719809D01*
X144898904Y-107957904D01*
X144851285Y-108053142D01*
X144803666Y-108100761D01*
X144708428Y-108148380D01*
X144422714Y-108148380D01*
X144327476Y-108100761D01*
X144279857Y-108053142D01*
X142597333Y-108640619D02*
X142644952Y-108593000D01*
X142740190Y-108545380D01*
X142978285Y-108545380D01*
X143073523Y-108593000D01*
X143121142Y-108640619D01*
X143168761Y-108735857D01*
X143168761Y-108831095D01*
X143121142Y-108973952D01*
X142549714Y-109545380D01*
X143168761Y-109545380D01*
X143597333Y-109545380D02*
X143597333Y-108545380D01*
X143692571Y-109164428D02*
X143978285Y-109545380D01*
X143978285Y-108878714D02*
X143597333Y-109259666D01*
X144359238Y-108640619D02*
X144406857Y-108593000D01*
X144502095Y-108545380D01*
X144740190Y-108545380D01*
X144835428Y-108593000D01*
X144883047Y-108640619D01*
X144930666Y-108735857D01*
X144930666Y-108831095D01*
X144883047Y-108973952D01*
X144311619Y-109545380D01*
X144930666Y-109545380D01*
G04 #@! TO.C,U1*
X150114095Y-107275380D02*
X150114095Y-108084904D01*
X150161714Y-108180142D01*
X150209333Y-108227761D01*
X150304571Y-108275380D01*
X150495047Y-108275380D01*
X150590285Y-108227761D01*
X150637904Y-108180142D01*
X150685523Y-108084904D01*
X150685523Y-107275380D01*
X151685523Y-108275380D02*
X151114095Y-108275380D01*
X151399809Y-108275380D02*
X151399809Y-107275380D01*
X151304571Y-107418238D01*
X151209333Y-107513476D01*
X151114095Y-107561095D01*
X145367761Y-109799380D02*
X145367761Y-108799380D01*
X145748714Y-108799380D01*
X145843952Y-108847000D01*
X145891571Y-108894619D01*
X145939190Y-108989857D01*
X145939190Y-109132714D01*
X145891571Y-109227952D01*
X145843952Y-109275571D01*
X145748714Y-109323190D01*
X145367761Y-109323190D01*
X146939190Y-109704142D02*
X146891571Y-109751761D01*
X146748714Y-109799380D01*
X146653476Y-109799380D01*
X146510619Y-109751761D01*
X146415380Y-109656523D01*
X146367761Y-109561285D01*
X146320142Y-109370809D01*
X146320142Y-109227952D01*
X146367761Y-109037476D01*
X146415380Y-108942238D01*
X146510619Y-108847000D01*
X146653476Y-108799380D01*
X146748714Y-108799380D01*
X146891571Y-108847000D01*
X146939190Y-108894619D01*
X147320142Y-109513666D02*
X147796333Y-109513666D01*
X147224904Y-109799380D02*
X147558238Y-108799380D01*
X147891571Y-109799380D01*
X148272523Y-109799380D02*
X148463000Y-109799380D01*
X148558238Y-109751761D01*
X148605857Y-109704142D01*
X148701095Y-109561285D01*
X148748714Y-109370809D01*
X148748714Y-108989857D01*
X148701095Y-108894619D01*
X148653476Y-108847000D01*
X148558238Y-108799380D01*
X148367761Y-108799380D01*
X148272523Y-108847000D01*
X148224904Y-108894619D01*
X148177285Y-108989857D01*
X148177285Y-109227952D01*
X148224904Y-109323190D01*
X148272523Y-109370809D01*
X148367761Y-109418428D01*
X148558238Y-109418428D01*
X148653476Y-109370809D01*
X148701095Y-109323190D01*
X148748714Y-109227952D01*
X149605857Y-108799380D02*
X149415380Y-108799380D01*
X149320142Y-108847000D01*
X149272523Y-108894619D01*
X149177285Y-109037476D01*
X149129666Y-109227952D01*
X149129666Y-109608904D01*
X149177285Y-109704142D01*
X149224904Y-109751761D01*
X149320142Y-109799380D01*
X149510619Y-109799380D01*
X149605857Y-109751761D01*
X149653476Y-109704142D01*
X149701095Y-109608904D01*
X149701095Y-109370809D01*
X149653476Y-109275571D01*
X149605857Y-109227952D01*
X149510619Y-109180333D01*
X149320142Y-109180333D01*
X149224904Y-109227952D01*
X149177285Y-109275571D01*
X149129666Y-109370809D01*
X150653476Y-109799380D02*
X150082047Y-109799380D01*
X150367761Y-109799380D02*
X150367761Y-108799380D01*
X150272523Y-108942238D01*
X150177285Y-109037476D01*
X150082047Y-109085095D01*
X151558238Y-108799380D02*
X151082047Y-108799380D01*
X151034428Y-109275571D01*
X151082047Y-109227952D01*
X151177285Y-109180333D01*
X151415380Y-109180333D01*
X151510619Y-109227952D01*
X151558238Y-109275571D01*
X151605857Y-109370809D01*
X151605857Y-109608904D01*
X151558238Y-109704142D01*
X151510619Y-109751761D01*
X151415380Y-109799380D01*
X151177285Y-109799380D01*
X151082047Y-109751761D01*
X151034428Y-109704142D01*
G04 #@! TO.C,U2*
X142621095Y-104227380D02*
X142621095Y-105036904D01*
X142668714Y-105132142D01*
X142716333Y-105179761D01*
X142811571Y-105227380D01*
X143002047Y-105227380D01*
X143097285Y-105179761D01*
X143144904Y-105132142D01*
X143192523Y-105036904D01*
X143192523Y-104227380D01*
X143621095Y-104322619D02*
X143668714Y-104275000D01*
X143763952Y-104227380D01*
X144002047Y-104227380D01*
X144097285Y-104275000D01*
X144144904Y-104322619D01*
X144192523Y-104417857D01*
X144192523Y-104513095D01*
X144144904Y-104655952D01*
X143573476Y-105227380D01*
X144192523Y-105227380D01*
X142692952Y-106497380D02*
X142692952Y-105497380D01*
X143169142Y-106497380D02*
X143169142Y-105497380D01*
X143740571Y-106497380D01*
X143740571Y-105497380D01*
X144169142Y-106211666D02*
X144645333Y-106211666D01*
X144073904Y-106497380D02*
X144407238Y-105497380D01*
X144740571Y-106497380D01*
X145026285Y-105592619D02*
X145073904Y-105545000D01*
X145169142Y-105497380D01*
X145407238Y-105497380D01*
X145502476Y-105545000D01*
X145550095Y-105592619D01*
X145597714Y-105687857D01*
X145597714Y-105783095D01*
X145550095Y-105925952D01*
X144978666Y-106497380D01*
X145597714Y-106497380D01*
X146550095Y-106497380D02*
X145978666Y-106497380D01*
X146264380Y-106497380D02*
X146264380Y-105497380D01*
X146169142Y-105640238D01*
X146073904Y-105735476D01*
X145978666Y-105783095D01*
X147026285Y-106497380D02*
X147216761Y-106497380D01*
X147312000Y-106449761D01*
X147359619Y-106402142D01*
X147454857Y-106259285D01*
X147502476Y-106068809D01*
X147502476Y-105687857D01*
X147454857Y-105592619D01*
X147407238Y-105545000D01*
X147312000Y-105497380D01*
X147121523Y-105497380D01*
X147026285Y-105545000D01*
X146978666Y-105592619D01*
X146931047Y-105687857D01*
X146931047Y-105925952D01*
X146978666Y-106021190D01*
X147026285Y-106068809D01*
X147121523Y-106116428D01*
X147312000Y-106116428D01*
X147407238Y-106068809D01*
X147454857Y-106021190D01*
X147502476Y-105925952D01*
X148264380Y-105973571D02*
X148407238Y-106021190D01*
X148454857Y-106068809D01*
X148502476Y-106164047D01*
X148502476Y-106306904D01*
X148454857Y-106402142D01*
X148407238Y-106449761D01*
X148312000Y-106497380D01*
X147931047Y-106497380D01*
X147931047Y-105497380D01*
X148264380Y-105497380D01*
X148359619Y-105545000D01*
X148407238Y-105592619D01*
X148454857Y-105687857D01*
X148454857Y-105783095D01*
X148407238Y-105878333D01*
X148359619Y-105925952D01*
X148264380Y-105973571D01*
X147931047Y-105973571D01*
X148931047Y-106497380D02*
X148931047Y-105497380D01*
X149407238Y-106497380D02*
X149407238Y-105497380D01*
X149645333Y-105497380D01*
X149788190Y-105545000D01*
X149883428Y-105640238D01*
X149931047Y-105735476D01*
X149978666Y-105925952D01*
X149978666Y-106068809D01*
X149931047Y-106259285D01*
X149883428Y-106354523D01*
X149788190Y-106449761D01*
X149645333Y-106497380D01*
X149407238Y-106497380D01*
X150978666Y-106497380D02*
X150645333Y-106021190D01*
X150407238Y-106497380D02*
X150407238Y-105497380D01*
X150788190Y-105497380D01*
X150883428Y-105545000D01*
X150931047Y-105592619D01*
X150978666Y-105687857D01*
X150978666Y-105830714D01*
X150931047Y-105925952D01*
X150883428Y-105973571D01*
X150788190Y-106021190D01*
X150407238Y-106021190D01*
G04 #@! TD*
M02*
