G04 #@! TF.GenerationSoftware,KiCad,Pcbnew,5.0.0*
G04 #@! TF.CreationDate,2018-10-21T13:27:24+10:00*
G04 #@! TF.ProjectId,sensor,73656E736F722E6B696361645F706362,rev?*
G04 #@! TF.SameCoordinates,Original*
G04 #@! TF.FileFunction,Copper,L3,Inr,Signal*
G04 #@! TF.FilePolarity,Positive*
%FSLAX46Y46*%
G04 Gerber Fmt 4.6, Leading zero omitted, Abs format (unit mm)*
G04 Created by KiCad (PCBNEW 5.0.0) date Sun Oct 21 13:27:24 2018*
%MOMM*%
%LPD*%
G01*
G04 APERTURE LIST*
%ADD10C,0.100000*%
%ADD11C,0.150000*%
%ADD12C,0.300000*%
%ADD13C,0.400000*%
G04 #@! TA.AperFunction,ViaPad*
%ADD14R,1.740000X2.200000*%
G04 #@! TD*
G04 #@! TA.AperFunction,ViaPad*
%ADD15O,1.740000X2.200000*%
G04 #@! TD*
G04 #@! TA.AperFunction,ViaPad*
%ADD16R,1.700000X1.700000*%
G04 #@! TD*
G04 #@! TA.AperFunction,ViaPad*
%ADD17O,1.700000X1.700000*%
G04 #@! TD*
G04 #@! TA.AperFunction,ViaPad*
%ADD18C,0.800000*%
G04 #@! TD*
G04 #@! TA.AperFunction,ViaPad*
%ADD19C,6.400000*%
G04 #@! TD*
G04 #@! TA.AperFunction,Conductor*
%ADD20C,0.254000*%
G04 #@! TD*
G04 APERTURE END LIST*
D10*
D11*
X177002200Y-166007200D02*
X177002200Y-198007200D01*
X285002200Y-198007200D01*
X285002200Y-166007200D01*
X177002200Y-166007200D01*
D10*
D11*
X10000000Y-10000000D02*
X10000000Y-200007200D01*
X287002200Y-200007200D01*
X287002200Y-10000000D01*
X10000000Y-10000000D01*
D10*
D11*
X12000000Y-12000000D02*
X12000000Y-198007200D01*
X285002200Y-198007200D01*
X285002200Y-12000000D01*
X12000000Y-12000000D01*
D10*
D11*
X60000000Y-12000000D02*
X60000000Y-10000000D01*
D10*
D11*
X110000000Y-12000000D02*
X110000000Y-10000000D01*
D10*
D11*
X160000000Y-12000000D02*
X160000000Y-10000000D01*
D10*
D11*
X210000000Y-12000000D02*
X210000000Y-10000000D01*
D10*
D11*
X260000000Y-12000000D02*
X260000000Y-10000000D01*
D10*
D11*
X36065476Y-11588095D02*
X35322619Y-11588095D01*
X35694047Y-11588095D02*
X35694047Y-10288095D01*
X35570238Y-10473809D01*
X35446428Y-10597619D01*
X35322619Y-10659523D01*
D10*
D11*
X85322619Y-10411904D02*
X85384523Y-10350000D01*
X85508333Y-10288095D01*
X85817857Y-10288095D01*
X85941666Y-10350000D01*
X86003571Y-10411904D01*
X86065476Y-10535714D01*
X86065476Y-10659523D01*
X86003571Y-10845238D01*
X85260714Y-11588095D01*
X86065476Y-11588095D01*
D10*
D11*
X135260714Y-10288095D02*
X136065476Y-10288095D01*
X135632142Y-10783333D01*
X135817857Y-10783333D01*
X135941666Y-10845238D01*
X136003571Y-10907142D01*
X136065476Y-11030952D01*
X136065476Y-11340476D01*
X136003571Y-11464285D01*
X135941666Y-11526190D01*
X135817857Y-11588095D01*
X135446428Y-11588095D01*
X135322619Y-11526190D01*
X135260714Y-11464285D01*
D10*
D11*
X185941666Y-10721428D02*
X185941666Y-11588095D01*
X185632142Y-10226190D02*
X185322619Y-11154761D01*
X186127380Y-11154761D01*
D10*
D11*
X236003571Y-10288095D02*
X235384523Y-10288095D01*
X235322619Y-10907142D01*
X235384523Y-10845238D01*
X235508333Y-10783333D01*
X235817857Y-10783333D01*
X235941666Y-10845238D01*
X236003571Y-10907142D01*
X236065476Y-11030952D01*
X236065476Y-11340476D01*
X236003571Y-11464285D01*
X235941666Y-11526190D01*
X235817857Y-11588095D01*
X235508333Y-11588095D01*
X235384523Y-11526190D01*
X235322619Y-11464285D01*
D10*
D11*
X285941666Y-10288095D02*
X285694047Y-10288095D01*
X285570238Y-10350000D01*
X285508333Y-10411904D01*
X285384523Y-10597619D01*
X285322619Y-10845238D01*
X285322619Y-11340476D01*
X285384523Y-11464285D01*
X285446428Y-11526190D01*
X285570238Y-11588095D01*
X285817857Y-11588095D01*
X285941666Y-11526190D01*
X286003571Y-11464285D01*
X286065476Y-11340476D01*
X286065476Y-11030952D01*
X286003571Y-10907142D01*
X285941666Y-10845238D01*
X285817857Y-10783333D01*
X285570238Y-10783333D01*
X285446428Y-10845238D01*
X285384523Y-10907142D01*
X285322619Y-11030952D01*
D10*
D11*
X60000000Y-198007200D02*
X60000000Y-200007200D01*
D10*
D11*
X110000000Y-198007200D02*
X110000000Y-200007200D01*
D10*
D11*
X160000000Y-198007200D02*
X160000000Y-200007200D01*
D10*
D11*
X210000000Y-198007200D02*
X210000000Y-200007200D01*
D10*
D11*
X260000000Y-198007200D02*
X260000000Y-200007200D01*
D10*
D11*
X36065476Y-199595295D02*
X35322619Y-199595295D01*
X35694047Y-199595295D02*
X35694047Y-198295295D01*
X35570238Y-198481009D01*
X35446428Y-198604819D01*
X35322619Y-198666723D01*
D10*
D11*
X85322619Y-198419104D02*
X85384523Y-198357200D01*
X85508333Y-198295295D01*
X85817857Y-198295295D01*
X85941666Y-198357200D01*
X86003571Y-198419104D01*
X86065476Y-198542914D01*
X86065476Y-198666723D01*
X86003571Y-198852438D01*
X85260714Y-199595295D01*
X86065476Y-199595295D01*
D10*
D11*
X135260714Y-198295295D02*
X136065476Y-198295295D01*
X135632142Y-198790533D01*
X135817857Y-198790533D01*
X135941666Y-198852438D01*
X136003571Y-198914342D01*
X136065476Y-199038152D01*
X136065476Y-199347676D01*
X136003571Y-199471485D01*
X135941666Y-199533390D01*
X135817857Y-199595295D01*
X135446428Y-199595295D01*
X135322619Y-199533390D01*
X135260714Y-199471485D01*
D10*
D11*
X185941666Y-198728628D02*
X185941666Y-199595295D01*
X185632142Y-198233390D02*
X185322619Y-199161961D01*
X186127380Y-199161961D01*
D10*
D11*
X236003571Y-198295295D02*
X235384523Y-198295295D01*
X235322619Y-198914342D01*
X235384523Y-198852438D01*
X235508333Y-198790533D01*
X235817857Y-198790533D01*
X235941666Y-198852438D01*
X236003571Y-198914342D01*
X236065476Y-199038152D01*
X236065476Y-199347676D01*
X236003571Y-199471485D01*
X235941666Y-199533390D01*
X235817857Y-199595295D01*
X235508333Y-199595295D01*
X235384523Y-199533390D01*
X235322619Y-199471485D01*
D10*
D11*
X285941666Y-198295295D02*
X285694047Y-198295295D01*
X285570238Y-198357200D01*
X285508333Y-198419104D01*
X285384523Y-198604819D01*
X285322619Y-198852438D01*
X285322619Y-199347676D01*
X285384523Y-199471485D01*
X285446428Y-199533390D01*
X285570238Y-199595295D01*
X285817857Y-199595295D01*
X285941666Y-199533390D01*
X286003571Y-199471485D01*
X286065476Y-199347676D01*
X286065476Y-199038152D01*
X286003571Y-198914342D01*
X285941666Y-198852438D01*
X285817857Y-198790533D01*
X285570238Y-198790533D01*
X285446428Y-198852438D01*
X285384523Y-198914342D01*
X285322619Y-199038152D01*
D10*
D11*
X10000000Y-60000000D02*
X12000000Y-60000000D01*
D10*
D11*
X10000000Y-110000000D02*
X12000000Y-110000000D01*
D10*
D11*
X10000000Y-160000000D02*
X12000000Y-160000000D01*
D10*
D11*
X10690476Y-35216666D02*
X11309523Y-35216666D01*
X10566666Y-35588095D02*
X11000000Y-34288095D01*
X11433333Y-35588095D01*
D10*
D11*
X11092857Y-84907142D02*
X11278571Y-84969047D01*
X11340476Y-85030952D01*
X11402380Y-85154761D01*
X11402380Y-85340476D01*
X11340476Y-85464285D01*
X11278571Y-85526190D01*
X11154761Y-85588095D01*
X10659523Y-85588095D01*
X10659523Y-84288095D01*
X11092857Y-84288095D01*
X11216666Y-84350000D01*
X11278571Y-84411904D01*
X11340476Y-84535714D01*
X11340476Y-84659523D01*
X11278571Y-84783333D01*
X11216666Y-84845238D01*
X11092857Y-84907142D01*
X10659523Y-84907142D01*
D10*
D11*
X11402380Y-135464285D02*
X11340476Y-135526190D01*
X11154761Y-135588095D01*
X11030952Y-135588095D01*
X10845238Y-135526190D01*
X10721428Y-135402380D01*
X10659523Y-135278571D01*
X10597619Y-135030952D01*
X10597619Y-134845238D01*
X10659523Y-134597619D01*
X10721428Y-134473809D01*
X10845238Y-134350000D01*
X11030952Y-134288095D01*
X11154761Y-134288095D01*
X11340476Y-134350000D01*
X11402380Y-134411904D01*
D10*
D11*
X10659523Y-185588095D02*
X10659523Y-184288095D01*
X10969047Y-184288095D01*
X11154761Y-184350000D01*
X11278571Y-184473809D01*
X11340476Y-184597619D01*
X11402380Y-184845238D01*
X11402380Y-185030952D01*
X11340476Y-185278571D01*
X11278571Y-185402380D01*
X11154761Y-185526190D01*
X10969047Y-185588095D01*
X10659523Y-185588095D01*
D10*
D11*
X287002200Y-60000000D02*
X285002200Y-60000000D01*
D10*
D11*
X287002200Y-110000000D02*
X285002200Y-110000000D01*
D10*
D11*
X287002200Y-160000000D02*
X285002200Y-160000000D01*
D10*
D11*
X285692676Y-35216666D02*
X286311723Y-35216666D01*
X285568866Y-35588095D02*
X286002200Y-34288095D01*
X286435533Y-35588095D01*
D10*
D11*
X286095057Y-84907142D02*
X286280771Y-84969047D01*
X286342676Y-85030952D01*
X286404580Y-85154761D01*
X286404580Y-85340476D01*
X286342676Y-85464285D01*
X286280771Y-85526190D01*
X286156961Y-85588095D01*
X285661723Y-85588095D01*
X285661723Y-84288095D01*
X286095057Y-84288095D01*
X286218866Y-84350000D01*
X286280771Y-84411904D01*
X286342676Y-84535714D01*
X286342676Y-84659523D01*
X286280771Y-84783333D01*
X286218866Y-84845238D01*
X286095057Y-84907142D01*
X285661723Y-84907142D01*
D10*
D11*
X286404580Y-135464285D02*
X286342676Y-135526190D01*
X286156961Y-135588095D01*
X286033152Y-135588095D01*
X285847438Y-135526190D01*
X285723628Y-135402380D01*
X285661723Y-135278571D01*
X285599819Y-135030952D01*
X285599819Y-134845238D01*
X285661723Y-134597619D01*
X285723628Y-134473809D01*
X285847438Y-134350000D01*
X286033152Y-134288095D01*
X286156961Y-134288095D01*
X286342676Y-134350000D01*
X286404580Y-134411904D01*
D10*
D11*
X285661723Y-185588095D02*
X285661723Y-184288095D01*
X285971247Y-184288095D01*
X286156961Y-184350000D01*
X286280771Y-184473809D01*
X286342676Y-184597619D01*
X286404580Y-184845238D01*
X286404580Y-185030952D01*
X286342676Y-185278571D01*
X286280771Y-185402380D01*
X286156961Y-185526190D01*
X285971247Y-185588095D01*
X285661723Y-185588095D01*
D10*
D11*
X200434342Y-193785771D02*
X200434342Y-192285771D01*
X200791485Y-192285771D01*
X201005771Y-192357200D01*
X201148628Y-192500057D01*
X201220057Y-192642914D01*
X201291485Y-192928628D01*
X201291485Y-193142914D01*
X201220057Y-193428628D01*
X201148628Y-193571485D01*
X201005771Y-193714342D01*
X200791485Y-193785771D01*
X200434342Y-193785771D01*
X202577200Y-193785771D02*
X202577200Y-193000057D01*
X202505771Y-192857200D01*
X202362914Y-192785771D01*
X202077200Y-192785771D01*
X201934342Y-192857200D01*
X202577200Y-193714342D02*
X202434342Y-193785771D01*
X202077200Y-193785771D01*
X201934342Y-193714342D01*
X201862914Y-193571485D01*
X201862914Y-193428628D01*
X201934342Y-193285771D01*
X202077200Y-193214342D01*
X202434342Y-193214342D01*
X202577200Y-193142914D01*
X203077200Y-192785771D02*
X203648628Y-192785771D01*
X203291485Y-192285771D02*
X203291485Y-193571485D01*
X203362914Y-193714342D01*
X203505771Y-193785771D01*
X203648628Y-193785771D01*
X204720057Y-193714342D02*
X204577200Y-193785771D01*
X204291485Y-193785771D01*
X204148628Y-193714342D01*
X204077200Y-193571485D01*
X204077200Y-193000057D01*
X204148628Y-192857200D01*
X204291485Y-192785771D01*
X204577200Y-192785771D01*
X204720057Y-192857200D01*
X204791485Y-193000057D01*
X204791485Y-193142914D01*
X204077200Y-193285771D01*
X205434342Y-193642914D02*
X205505771Y-193714342D01*
X205434342Y-193785771D01*
X205362914Y-193714342D01*
X205434342Y-193642914D01*
X205434342Y-193785771D01*
X205434342Y-192857200D02*
X205505771Y-192928628D01*
X205434342Y-193000057D01*
X205362914Y-192928628D01*
X205434342Y-192857200D01*
X205434342Y-193000057D01*
D10*
D11*
X177002200Y-194507200D02*
X285002200Y-194507200D01*
D10*
D11*
X178434342Y-196585771D02*
X178434342Y-195085771D01*
X179291485Y-196585771D02*
X178648628Y-195728628D01*
X179291485Y-195085771D02*
X178434342Y-195942914D01*
X179934342Y-196585771D02*
X179934342Y-195585771D01*
X179934342Y-195085771D02*
X179862914Y-195157200D01*
X179934342Y-195228628D01*
X180005771Y-195157200D01*
X179934342Y-195085771D01*
X179934342Y-195228628D01*
X181505771Y-196442914D02*
X181434342Y-196514342D01*
X181220057Y-196585771D01*
X181077200Y-196585771D01*
X180862914Y-196514342D01*
X180720057Y-196371485D01*
X180648628Y-196228628D01*
X180577200Y-195942914D01*
X180577200Y-195728628D01*
X180648628Y-195442914D01*
X180720057Y-195300057D01*
X180862914Y-195157200D01*
X181077200Y-195085771D01*
X181220057Y-195085771D01*
X181434342Y-195157200D01*
X181505771Y-195228628D01*
X182791485Y-196585771D02*
X182791485Y-195800057D01*
X182720057Y-195657200D01*
X182577200Y-195585771D01*
X182291485Y-195585771D01*
X182148628Y-195657200D01*
X182791485Y-196514342D02*
X182648628Y-196585771D01*
X182291485Y-196585771D01*
X182148628Y-196514342D01*
X182077200Y-196371485D01*
X182077200Y-196228628D01*
X182148628Y-196085771D01*
X182291485Y-196014342D01*
X182648628Y-196014342D01*
X182791485Y-195942914D01*
X184148628Y-196585771D02*
X184148628Y-195085771D01*
X184148628Y-196514342D02*
X184005771Y-196585771D01*
X183720057Y-196585771D01*
X183577200Y-196514342D01*
X183505771Y-196442914D01*
X183434342Y-196300057D01*
X183434342Y-195871485D01*
X183505771Y-195728628D01*
X183577200Y-195657200D01*
X183720057Y-195585771D01*
X184005771Y-195585771D01*
X184148628Y-195657200D01*
X186005771Y-195800057D02*
X186505771Y-195800057D01*
X186720057Y-196585771D02*
X186005771Y-196585771D01*
X186005771Y-195085771D01*
X186720057Y-195085771D01*
X187362914Y-196442914D02*
X187434342Y-196514342D01*
X187362914Y-196585771D01*
X187291485Y-196514342D01*
X187362914Y-196442914D01*
X187362914Y-196585771D01*
X188077200Y-196585771D02*
X188077200Y-195085771D01*
X188434342Y-195085771D01*
X188648628Y-195157200D01*
X188791485Y-195300057D01*
X188862914Y-195442914D01*
X188934342Y-195728628D01*
X188934342Y-195942914D01*
X188862914Y-196228628D01*
X188791485Y-196371485D01*
X188648628Y-196514342D01*
X188434342Y-196585771D01*
X188077200Y-196585771D01*
X189577200Y-196442914D02*
X189648628Y-196514342D01*
X189577200Y-196585771D01*
X189505771Y-196514342D01*
X189577200Y-196442914D01*
X189577200Y-196585771D01*
X190220057Y-196157200D02*
X190934342Y-196157200D01*
X190077200Y-196585771D02*
X190577200Y-195085771D01*
X191077200Y-196585771D01*
X191577200Y-196442914D02*
X191648628Y-196514342D01*
X191577200Y-196585771D01*
X191505771Y-196514342D01*
X191577200Y-196442914D01*
X191577200Y-196585771D01*
X194577200Y-196585771D02*
X194577200Y-195085771D01*
X194720057Y-196014342D02*
X195148628Y-196585771D01*
X195148628Y-195585771D02*
X194577200Y-196157200D01*
X195791485Y-196585771D02*
X195791485Y-195585771D01*
X195791485Y-195085771D02*
X195720057Y-195157200D01*
X195791485Y-195228628D01*
X195862914Y-195157200D01*
X195791485Y-195085771D01*
X195791485Y-195228628D01*
X197148628Y-196514342D02*
X197005771Y-196585771D01*
X196720057Y-196585771D01*
X196577200Y-196514342D01*
X196505771Y-196442914D01*
X196434342Y-196300057D01*
X196434342Y-195871485D01*
X196505771Y-195728628D01*
X196577200Y-195657200D01*
X196720057Y-195585771D01*
X197005771Y-195585771D01*
X197148628Y-195657200D01*
X198434342Y-196585771D02*
X198434342Y-195800057D01*
X198362914Y-195657200D01*
X198220057Y-195585771D01*
X197934342Y-195585771D01*
X197791485Y-195657200D01*
X198434342Y-196514342D02*
X198291485Y-196585771D01*
X197934342Y-196585771D01*
X197791485Y-196514342D01*
X197720057Y-196371485D01*
X197720057Y-196228628D01*
X197791485Y-196085771D01*
X197934342Y-196014342D01*
X198291485Y-196014342D01*
X198434342Y-195942914D01*
X199791485Y-196585771D02*
X199791485Y-195085771D01*
X199791485Y-196514342D02*
X199648628Y-196585771D01*
X199362914Y-196585771D01*
X199220057Y-196514342D01*
X199148628Y-196442914D01*
X199077200Y-196300057D01*
X199077200Y-195871485D01*
X199148628Y-195728628D01*
X199220057Y-195657200D01*
X199362914Y-195585771D01*
X199648628Y-195585771D01*
X199791485Y-195657200D01*
X202362914Y-195085771D02*
X201648628Y-195085771D01*
X201577200Y-195800057D01*
X201648628Y-195728628D01*
X201791485Y-195657200D01*
X202148628Y-195657200D01*
X202291485Y-195728628D01*
X202362914Y-195800057D01*
X202434342Y-195942914D01*
X202434342Y-196300057D01*
X202362914Y-196442914D01*
X202291485Y-196514342D01*
X202148628Y-196585771D01*
X201791485Y-196585771D01*
X201648628Y-196514342D01*
X201577200Y-196442914D01*
X203077200Y-196442914D02*
X203148628Y-196514342D01*
X203077200Y-196585771D01*
X203005771Y-196514342D01*
X203077200Y-196442914D01*
X203077200Y-196585771D01*
X204077200Y-195085771D02*
X204220057Y-195085771D01*
X204362914Y-195157200D01*
X204434342Y-195228628D01*
X204505771Y-195371485D01*
X204577200Y-195657200D01*
X204577200Y-196014342D01*
X204505771Y-196300057D01*
X204434342Y-196442914D01*
X204362914Y-196514342D01*
X204220057Y-196585771D01*
X204077200Y-196585771D01*
X203934342Y-196514342D01*
X203862914Y-196442914D01*
X203791485Y-196300057D01*
X203720057Y-196014342D01*
X203720057Y-195657200D01*
X203791485Y-195371485D01*
X203862914Y-195228628D01*
X203934342Y-195157200D01*
X204077200Y-195085771D01*
X205220057Y-196442914D02*
X205291485Y-196514342D01*
X205220057Y-196585771D01*
X205148628Y-196514342D01*
X205220057Y-196442914D01*
X205220057Y-196585771D01*
X206220057Y-195085771D02*
X206362914Y-195085771D01*
X206505771Y-195157200D01*
X206577200Y-195228628D01*
X206648628Y-195371485D01*
X206720057Y-195657200D01*
X206720057Y-196014342D01*
X206648628Y-196300057D01*
X206577200Y-196442914D01*
X206505771Y-196514342D01*
X206362914Y-196585771D01*
X206220057Y-196585771D01*
X206077200Y-196514342D01*
X206005771Y-196442914D01*
X205934342Y-196300057D01*
X205862914Y-196014342D01*
X205862914Y-195657200D01*
X205934342Y-195371485D01*
X206005771Y-195228628D01*
X206077200Y-195157200D01*
X206220057Y-195085771D01*
D10*
D11*
X177002200Y-191507200D02*
X285002200Y-191507200D01*
D10*
D12*
X264411485Y-193785771D02*
X263911485Y-193071485D01*
X263554342Y-193785771D02*
X263554342Y-192285771D01*
X264125771Y-192285771D01*
X264268628Y-192357200D01*
X264340057Y-192428628D01*
X264411485Y-192571485D01*
X264411485Y-192785771D01*
X264340057Y-192928628D01*
X264268628Y-193000057D01*
X264125771Y-193071485D01*
X263554342Y-193071485D01*
X265625771Y-193714342D02*
X265482914Y-193785771D01*
X265197200Y-193785771D01*
X265054342Y-193714342D01*
X264982914Y-193571485D01*
X264982914Y-193000057D01*
X265054342Y-192857200D01*
X265197200Y-192785771D01*
X265482914Y-192785771D01*
X265625771Y-192857200D01*
X265697200Y-193000057D01*
X265697200Y-193142914D01*
X264982914Y-193285771D01*
X266197200Y-192785771D02*
X266554342Y-193785771D01*
X266911485Y-192785771D01*
X267482914Y-193642914D02*
X267554342Y-193714342D01*
X267482914Y-193785771D01*
X267411485Y-193714342D01*
X267482914Y-193642914D01*
X267482914Y-193785771D01*
X267482914Y-192857200D02*
X267554342Y-192928628D01*
X267482914Y-193000057D01*
X267411485Y-192928628D01*
X267482914Y-192857200D01*
X267482914Y-193000057D01*
D10*
D11*
X178362914Y-193714342D02*
X178577200Y-193785771D01*
X178934342Y-193785771D01*
X179077200Y-193714342D01*
X179148628Y-193642914D01*
X179220057Y-193500057D01*
X179220057Y-193357200D01*
X179148628Y-193214342D01*
X179077200Y-193142914D01*
X178934342Y-193071485D01*
X178648628Y-193000057D01*
X178505771Y-192928628D01*
X178434342Y-192857200D01*
X178362914Y-192714342D01*
X178362914Y-192571485D01*
X178434342Y-192428628D01*
X178505771Y-192357200D01*
X178648628Y-192285771D01*
X179005771Y-192285771D01*
X179220057Y-192357200D01*
X179862914Y-193785771D02*
X179862914Y-192785771D01*
X179862914Y-192285771D02*
X179791485Y-192357200D01*
X179862914Y-192428628D01*
X179934342Y-192357200D01*
X179862914Y-192285771D01*
X179862914Y-192428628D01*
X180434342Y-192785771D02*
X181220057Y-192785771D01*
X180434342Y-193785771D01*
X181220057Y-193785771D01*
X182362914Y-193714342D02*
X182220057Y-193785771D01*
X181934342Y-193785771D01*
X181791485Y-193714342D01*
X181720057Y-193571485D01*
X181720057Y-193000057D01*
X181791485Y-192857200D01*
X181934342Y-192785771D01*
X182220057Y-192785771D01*
X182362914Y-192857200D01*
X182434342Y-193000057D01*
X182434342Y-193142914D01*
X181720057Y-193285771D01*
X183077200Y-193642914D02*
X183148628Y-193714342D01*
X183077200Y-193785771D01*
X183005771Y-193714342D01*
X183077200Y-193642914D01*
X183077200Y-193785771D01*
X183077200Y-192857200D02*
X183148628Y-192928628D01*
X183077200Y-193000057D01*
X183005771Y-192928628D01*
X183077200Y-192857200D01*
X183077200Y-193000057D01*
X184862914Y-193357200D02*
X185577200Y-193357200D01*
X184720057Y-193785771D02*
X185220057Y-192285771D01*
X185720057Y-193785771D01*
X186862914Y-192785771D02*
X186862914Y-193785771D01*
X186505771Y-192214342D02*
X186148628Y-193285771D01*
X187077200Y-193285771D01*
D10*
D11*
X263434342Y-196585771D02*
X263434342Y-195085771D01*
X264791485Y-196585771D02*
X264791485Y-195085771D01*
X264791485Y-196514342D02*
X264648628Y-196585771D01*
X264362914Y-196585771D01*
X264220057Y-196514342D01*
X264148628Y-196442914D01*
X264077200Y-196300057D01*
X264077200Y-195871485D01*
X264148628Y-195728628D01*
X264220057Y-195657200D01*
X264362914Y-195585771D01*
X264648628Y-195585771D01*
X264791485Y-195657200D01*
X265505771Y-196442914D02*
X265577200Y-196514342D01*
X265505771Y-196585771D01*
X265434342Y-196514342D01*
X265505771Y-196442914D01*
X265505771Y-196585771D01*
X265505771Y-195657200D02*
X265577200Y-195728628D01*
X265505771Y-195800057D01*
X265434342Y-195728628D01*
X265505771Y-195657200D01*
X265505771Y-195800057D01*
X268148628Y-196585771D02*
X267291485Y-196585771D01*
X267720057Y-196585771D02*
X267720057Y-195085771D01*
X267577200Y-195300057D01*
X267434342Y-195442914D01*
X267291485Y-195514342D01*
X269862914Y-195014342D02*
X268577200Y-196942914D01*
X271148628Y-196585771D02*
X270291485Y-196585771D01*
X270720057Y-196585771D02*
X270720057Y-195085771D01*
X270577200Y-195300057D01*
X270434342Y-195442914D01*
X270291485Y-195514342D01*
D10*
D11*
X177002200Y-187507200D02*
X285002200Y-187507200D01*
D10*
D13*
X178714580Y-188211961D02*
X179857438Y-188211961D01*
X179036009Y-190211961D02*
X179286009Y-188211961D01*
X180274104Y-190211961D02*
X180440771Y-188878628D01*
X180524104Y-188211961D02*
X180416961Y-188307200D01*
X180500295Y-188402438D01*
X180607438Y-188307200D01*
X180524104Y-188211961D01*
X180500295Y-188402438D01*
X181107438Y-188878628D02*
X181869342Y-188878628D01*
X181476485Y-188211961D02*
X181262200Y-189926247D01*
X181333628Y-190116723D01*
X181512200Y-190211961D01*
X181702676Y-190211961D01*
X182655057Y-190211961D02*
X182476485Y-190116723D01*
X182405057Y-189926247D01*
X182619342Y-188211961D01*
X184190771Y-190116723D02*
X183988390Y-190211961D01*
X183607438Y-190211961D01*
X183428866Y-190116723D01*
X183357438Y-189926247D01*
X183452676Y-189164342D01*
X183571723Y-188973866D01*
X183774104Y-188878628D01*
X184155057Y-188878628D01*
X184333628Y-188973866D01*
X184405057Y-189164342D01*
X184381247Y-189354819D01*
X183405057Y-189545295D01*
X185155057Y-190021485D02*
X185238390Y-190116723D01*
X185131247Y-190211961D01*
X185047914Y-190116723D01*
X185155057Y-190021485D01*
X185131247Y-190211961D01*
X185286009Y-188973866D02*
X185369342Y-189069104D01*
X185262200Y-189164342D01*
X185178866Y-189069104D01*
X185286009Y-188973866D01*
X185262200Y-189164342D01*
D10*
D11*
X178934342Y-185600057D02*
X178434342Y-185600057D01*
X178434342Y-186385771D02*
X178434342Y-184885771D01*
X179148628Y-184885771D01*
X179720057Y-186385771D02*
X179720057Y-185385771D01*
X179720057Y-184885771D02*
X179648628Y-184957200D01*
X179720057Y-185028628D01*
X179791485Y-184957200D01*
X179720057Y-184885771D01*
X179720057Y-185028628D01*
X180648628Y-186385771D02*
X180505771Y-186314342D01*
X180434342Y-186171485D01*
X180434342Y-184885771D01*
X181791485Y-186314342D02*
X181648628Y-186385771D01*
X181362914Y-186385771D01*
X181220057Y-186314342D01*
X181148628Y-186171485D01*
X181148628Y-185600057D01*
X181220057Y-185457200D01*
X181362914Y-185385771D01*
X181648628Y-185385771D01*
X181791485Y-185457200D01*
X181862914Y-185600057D01*
X181862914Y-185742914D01*
X181148628Y-185885771D01*
X182505771Y-186242914D02*
X182577200Y-186314342D01*
X182505771Y-186385771D01*
X182434342Y-186314342D01*
X182505771Y-186242914D01*
X182505771Y-186385771D01*
X182505771Y-185457200D02*
X182577200Y-185528628D01*
X182505771Y-185600057D01*
X182434342Y-185528628D01*
X182505771Y-185457200D01*
X182505771Y-185600057D01*
X184291485Y-186314342D02*
X184434342Y-186385771D01*
X184720057Y-186385771D01*
X184862914Y-186314342D01*
X184934342Y-186171485D01*
X184934342Y-186100057D01*
X184862914Y-185957200D01*
X184720057Y-185885771D01*
X184505771Y-185885771D01*
X184362914Y-185814342D01*
X184291485Y-185671485D01*
X184291485Y-185600057D01*
X184362914Y-185457200D01*
X184505771Y-185385771D01*
X184720057Y-185385771D01*
X184862914Y-185457200D01*
X186148628Y-186314342D02*
X186005771Y-186385771D01*
X185720057Y-186385771D01*
X185577200Y-186314342D01*
X185505771Y-186171485D01*
X185505771Y-185600057D01*
X185577200Y-185457200D01*
X185720057Y-185385771D01*
X186005771Y-185385771D01*
X186148628Y-185457200D01*
X186220057Y-185600057D01*
X186220057Y-185742914D01*
X185505771Y-185885771D01*
X186862914Y-185385771D02*
X186862914Y-186385771D01*
X186862914Y-185528628D02*
X186934342Y-185457200D01*
X187077200Y-185385771D01*
X187291485Y-185385771D01*
X187434342Y-185457200D01*
X187505771Y-185600057D01*
X187505771Y-186385771D01*
X188148628Y-186314342D02*
X188291485Y-186385771D01*
X188577200Y-186385771D01*
X188720057Y-186314342D01*
X188791485Y-186171485D01*
X188791485Y-186100057D01*
X188720057Y-185957200D01*
X188577200Y-185885771D01*
X188362914Y-185885771D01*
X188220057Y-185814342D01*
X188148628Y-185671485D01*
X188148628Y-185600057D01*
X188220057Y-185457200D01*
X188362914Y-185385771D01*
X188577200Y-185385771D01*
X188720057Y-185457200D01*
X189648628Y-186385771D02*
X189505771Y-186314342D01*
X189434342Y-186242914D01*
X189362914Y-186100057D01*
X189362914Y-185671485D01*
X189434342Y-185528628D01*
X189505771Y-185457200D01*
X189648628Y-185385771D01*
X189862914Y-185385771D01*
X190005771Y-185457200D01*
X190077200Y-185528628D01*
X190148628Y-185671485D01*
X190148628Y-186100057D01*
X190077200Y-186242914D01*
X190005771Y-186314342D01*
X189862914Y-186385771D01*
X189648628Y-186385771D01*
X190791485Y-186385771D02*
X190791485Y-185385771D01*
X190791485Y-185671485D02*
X190862914Y-185528628D01*
X190934342Y-185457200D01*
X191077200Y-185385771D01*
X191220057Y-185385771D01*
X191720057Y-186242914D02*
X191791485Y-186314342D01*
X191720057Y-186385771D01*
X191648628Y-186314342D01*
X191720057Y-186242914D01*
X191720057Y-186385771D01*
X192434342Y-186385771D02*
X192434342Y-184885771D01*
X192577200Y-185814342D02*
X193005771Y-186385771D01*
X193005771Y-185385771D02*
X192434342Y-185957200D01*
X193648628Y-186385771D02*
X193648628Y-185385771D01*
X193648628Y-184885771D02*
X193577200Y-184957200D01*
X193648628Y-185028628D01*
X193720057Y-184957200D01*
X193648628Y-184885771D01*
X193648628Y-185028628D01*
X195005771Y-186314342D02*
X194862914Y-186385771D01*
X194577200Y-186385771D01*
X194434342Y-186314342D01*
X194362914Y-186242914D01*
X194291485Y-186100057D01*
X194291485Y-185671485D01*
X194362914Y-185528628D01*
X194434342Y-185457200D01*
X194577200Y-185385771D01*
X194862914Y-185385771D01*
X195005771Y-185457200D01*
X196291485Y-186385771D02*
X196291485Y-185600057D01*
X196220057Y-185457200D01*
X196077200Y-185385771D01*
X195791485Y-185385771D01*
X195648628Y-185457200D01*
X196291485Y-186314342D02*
X196148628Y-186385771D01*
X195791485Y-186385771D01*
X195648628Y-186314342D01*
X195577200Y-186171485D01*
X195577200Y-186028628D01*
X195648628Y-185885771D01*
X195791485Y-185814342D01*
X196148628Y-185814342D01*
X196291485Y-185742914D01*
X197648628Y-186385771D02*
X197648628Y-184885771D01*
X197648628Y-186314342D02*
X197505771Y-186385771D01*
X197220057Y-186385771D01*
X197077200Y-186314342D01*
X197005771Y-186242914D01*
X196934342Y-186100057D01*
X196934342Y-185671485D01*
X197005771Y-185528628D01*
X197077200Y-185457200D01*
X197220057Y-185385771D01*
X197505771Y-185385771D01*
X197648628Y-185457200D01*
X198005771Y-186528628D02*
X199148628Y-186528628D01*
X199505771Y-185385771D02*
X199505771Y-186885771D01*
X199505771Y-185457200D02*
X199648628Y-185385771D01*
X199934342Y-185385771D01*
X200077200Y-185457200D01*
X200148628Y-185528628D01*
X200220057Y-185671485D01*
X200220057Y-186100057D01*
X200148628Y-186242914D01*
X200077200Y-186314342D01*
X199934342Y-186385771D01*
X199648628Y-186385771D01*
X199505771Y-186314342D01*
X201505771Y-186314342D02*
X201362914Y-186385771D01*
X201077200Y-186385771D01*
X200934342Y-186314342D01*
X200862914Y-186242914D01*
X200791485Y-186100057D01*
X200791485Y-185671485D01*
X200862914Y-185528628D01*
X200934342Y-185457200D01*
X201077200Y-185385771D01*
X201362914Y-185385771D01*
X201505771Y-185457200D01*
X202148628Y-186385771D02*
X202148628Y-184885771D01*
X202148628Y-185457200D02*
X202291485Y-185385771D01*
X202577200Y-185385771D01*
X202720057Y-185457200D01*
X202791485Y-185528628D01*
X202862914Y-185671485D01*
X202862914Y-186100057D01*
X202791485Y-186242914D01*
X202720057Y-186314342D01*
X202577200Y-186385771D01*
X202291485Y-186385771D01*
X202148628Y-186314342D01*
D10*
D11*
X177002200Y-181507200D02*
X285002200Y-181507200D01*
D10*
D11*
X178362914Y-183614342D02*
X178577200Y-183685771D01*
X178934342Y-183685771D01*
X179077200Y-183614342D01*
X179148628Y-183542914D01*
X179220057Y-183400057D01*
X179220057Y-183257200D01*
X179148628Y-183114342D01*
X179077200Y-183042914D01*
X178934342Y-182971485D01*
X178648628Y-182900057D01*
X178505771Y-182828628D01*
X178434342Y-182757200D01*
X178362914Y-182614342D01*
X178362914Y-182471485D01*
X178434342Y-182328628D01*
X178505771Y-182257200D01*
X178648628Y-182185771D01*
X179005771Y-182185771D01*
X179220057Y-182257200D01*
X179862914Y-183685771D02*
X179862914Y-182185771D01*
X180505771Y-183685771D02*
X180505771Y-182900057D01*
X180434342Y-182757200D01*
X180291485Y-182685771D01*
X180077200Y-182685771D01*
X179934342Y-182757200D01*
X179862914Y-182828628D01*
X181791485Y-183614342D02*
X181648628Y-183685771D01*
X181362914Y-183685771D01*
X181220057Y-183614342D01*
X181148628Y-183471485D01*
X181148628Y-182900057D01*
X181220057Y-182757200D01*
X181362914Y-182685771D01*
X181648628Y-182685771D01*
X181791485Y-182757200D01*
X181862914Y-182900057D01*
X181862914Y-183042914D01*
X181148628Y-183185771D01*
X183077200Y-183614342D02*
X182934342Y-183685771D01*
X182648628Y-183685771D01*
X182505771Y-183614342D01*
X182434342Y-183471485D01*
X182434342Y-182900057D01*
X182505771Y-182757200D01*
X182648628Y-182685771D01*
X182934342Y-182685771D01*
X183077200Y-182757200D01*
X183148628Y-182900057D01*
X183148628Y-183042914D01*
X182434342Y-183185771D01*
X183577200Y-182685771D02*
X184148628Y-182685771D01*
X183791485Y-182185771D02*
X183791485Y-183471485D01*
X183862914Y-183614342D01*
X184005771Y-183685771D01*
X184148628Y-183685771D01*
X184648628Y-183542914D02*
X184720057Y-183614342D01*
X184648628Y-183685771D01*
X184577200Y-183614342D01*
X184648628Y-183542914D01*
X184648628Y-183685771D01*
X184648628Y-182757200D02*
X184720057Y-182828628D01*
X184648628Y-182900057D01*
X184577200Y-182828628D01*
X184648628Y-182757200D01*
X184648628Y-182900057D01*
D10*
D11*
X197002200Y-191507200D02*
X197002200Y-194507200D01*
D10*
D11*
X261002200Y-191507200D02*
X261002200Y-198007200D01*
D14*
G04 #@! TO.N,VCC*
G04 #@! TO.C,J1*
X152400000Y-115000000D03*
D15*
G04 #@! TO.N,GND*
X149860000Y-115000000D03*
G04 #@! TO.N,/SDA+*
X147320000Y-115000000D03*
G04 #@! TO.N,/SDA-*
X144780000Y-115000000D03*
G04 #@! TO.N,/SCL+*
X142240000Y-115000000D03*
G04 #@! TO.N,/SCL-*
X139700000Y-115000000D03*
G04 #@! TD*
D16*
G04 #@! TO.N,GND*
G04 #@! TO.C,J2*
X142240000Y-93980000D03*
D17*
G04 #@! TO.N,/SHUNT+*
X144780000Y-93980000D03*
G04 #@! TO.N,/SHUNT-*
X147320000Y-93980000D03*
G04 #@! TO.N,GND*
X149860000Y-93980000D03*
G04 #@! TD*
D18*
G04 #@! TO.N,Net-(C4-Pad1)*
G04 #@! TO.C,MH1*
X166697056Y-113302944D03*
X165000000Y-112600000D03*
X163302944Y-113302944D03*
X162600000Y-115000000D03*
X163302944Y-116697056D03*
X165000000Y-117400000D03*
X166697056Y-116697056D03*
X167400000Y-115000000D03*
D19*
X165000000Y-115000000D03*
G04 #@! TD*
G04 #@! TO.N,Net-(C5-Pad1)*
G04 #@! TO.C,MH2*
X165000000Y-95000000D03*
D18*
X167400000Y-95000000D03*
X166697056Y-96697056D03*
X165000000Y-97400000D03*
X163302944Y-96697056D03*
X162600000Y-95000000D03*
X163302944Y-93302944D03*
X165000000Y-92600000D03*
X166697056Y-93302944D03*
G04 #@! TD*
D19*
G04 #@! TO.N,Net-(C6-Pad1)*
G04 #@! TO.C,MH3*
X125000000Y-95000000D03*
D18*
X127400000Y-95000000D03*
X126697056Y-96697056D03*
X125000000Y-97400000D03*
X123302944Y-96697056D03*
X122600000Y-95000000D03*
X123302944Y-93302944D03*
X125000000Y-92600000D03*
X126697056Y-93302944D03*
G04 #@! TD*
G04 #@! TO.N,Net-(C7-Pad1)*
G04 #@! TO.C,MH4*
X126697056Y-113302944D03*
X125000000Y-112600000D03*
X123302944Y-113302944D03*
X122600000Y-115000000D03*
X123302944Y-116697056D03*
X125000000Y-117400000D03*
X126697056Y-116697056D03*
X127400000Y-115000000D03*
D19*
X125000000Y-115000000D03*
G04 #@! TD*
D18*
G04 #@! TO.N,VCC*
X155448000Y-111878000D03*
X159258000Y-104515000D03*
X154670000Y-107315000D03*
X151130000Y-99432000D03*
X149225000Y-98900000D03*
X149597000Y-96774000D03*
X145914000Y-107696000D03*
X141127000Y-104267000D03*
X141127000Y-99187000D03*
X136525000Y-106045000D03*
X136525000Y-109220000D03*
X136670000Y-112395000D03*
X136670000Y-115570000D03*
G04 #@! TO.N,GND*
X155448000Y-113928000D03*
X159258000Y-110115000D03*
X151647000Y-96774000D03*
X147955000Y-98900000D03*
X152444998Y-105800000D03*
X138527000Y-99187000D03*
X138527000Y-104267000D03*
X130665000Y-115570000D03*
X130665000Y-112395000D03*
X130665000Y-109220000D03*
X130665000Y-106045000D03*
X165000000Y-108000000D03*
X125000000Y-101990000D03*
X125000000Y-107975000D03*
X165000000Y-101990000D03*
G04 #@! TD*
D20*
G04 #@! TO.N,GND*
G36*
X169290001Y-119253000D02*
X120777000Y-119253000D01*
X120777000Y-114237171D01*
X121165000Y-114237171D01*
X121165000Y-115762829D01*
X121748844Y-117172353D01*
X122827647Y-118251156D01*
X124237171Y-118835000D01*
X125762829Y-118835000D01*
X127172353Y-118251156D01*
X128251156Y-117172353D01*
X128835000Y-115762829D01*
X128835000Y-115364126D01*
X135635000Y-115364126D01*
X135635000Y-115775874D01*
X135792569Y-116156280D01*
X136083720Y-116447431D01*
X136464126Y-116605000D01*
X136875874Y-116605000D01*
X137256280Y-116447431D01*
X137547431Y-116156280D01*
X137705000Y-115775874D01*
X137705000Y-115364126D01*
X137547431Y-114983720D01*
X137256280Y-114692569D01*
X137085366Y-114621774D01*
X138195000Y-114621774D01*
X138195000Y-115378225D01*
X138282322Y-115817221D01*
X138614956Y-116315044D01*
X139112778Y-116647678D01*
X139700000Y-116764484D01*
X140287221Y-116647678D01*
X140785044Y-116315044D01*
X140970000Y-116038237D01*
X141154956Y-116315044D01*
X141652778Y-116647678D01*
X142240000Y-116764484D01*
X142827221Y-116647678D01*
X143325044Y-116315044D01*
X143510000Y-116038237D01*
X143694956Y-116315044D01*
X144192778Y-116647678D01*
X144780000Y-116764484D01*
X145367221Y-116647678D01*
X145865044Y-116315044D01*
X146050000Y-116038237D01*
X146234956Y-116315044D01*
X146732778Y-116647678D01*
X147320000Y-116764484D01*
X147907221Y-116647678D01*
X148405044Y-116315044D01*
X148597160Y-116027523D01*
X148889509Y-116390533D01*
X149407500Y-116673584D01*
X149499969Y-116691302D01*
X149733000Y-116570246D01*
X149733000Y-115127000D01*
X149713000Y-115127000D01*
X149713000Y-114873000D01*
X149733000Y-114873000D01*
X149733000Y-113429754D01*
X149987000Y-113429754D01*
X149987000Y-114873000D01*
X150007000Y-114873000D01*
X150007000Y-115127000D01*
X149987000Y-115127000D01*
X149987000Y-116570246D01*
X150220031Y-116691302D01*
X150312500Y-116673584D01*
X150830491Y-116390533D01*
X150918591Y-116281140D01*
X150931843Y-116347765D01*
X151072191Y-116557809D01*
X151282235Y-116698157D01*
X151530000Y-116747440D01*
X153270000Y-116747440D01*
X153517765Y-116698157D01*
X153727809Y-116557809D01*
X153868157Y-116347765D01*
X153917440Y-116100000D01*
X153917440Y-114237171D01*
X161165000Y-114237171D01*
X161165000Y-115762829D01*
X161748844Y-117172353D01*
X162827647Y-118251156D01*
X164237171Y-118835000D01*
X165762829Y-118835000D01*
X167172353Y-118251156D01*
X168251156Y-117172353D01*
X168835000Y-115762829D01*
X168835000Y-114237171D01*
X168251156Y-112827647D01*
X167172353Y-111748844D01*
X165762829Y-111165000D01*
X164237171Y-111165000D01*
X162827647Y-111748844D01*
X161748844Y-112827647D01*
X161165000Y-114237171D01*
X153917440Y-114237171D01*
X153917440Y-113900000D01*
X153868157Y-113652235D01*
X153727809Y-113442191D01*
X153517765Y-113301843D01*
X153270000Y-113252560D01*
X151530000Y-113252560D01*
X151282235Y-113301843D01*
X151072191Y-113442191D01*
X150931843Y-113652235D01*
X150918591Y-113718860D01*
X150830491Y-113609467D01*
X150312500Y-113326416D01*
X150220031Y-113308698D01*
X149987000Y-113429754D01*
X149733000Y-113429754D01*
X149499969Y-113308698D01*
X149407500Y-113326416D01*
X148889509Y-113609467D01*
X148597159Y-113972478D01*
X148405044Y-113684956D01*
X147907222Y-113352322D01*
X147320000Y-113235516D01*
X146732779Y-113352322D01*
X146234956Y-113684956D01*
X146050000Y-113961763D01*
X145865044Y-113684956D01*
X145367222Y-113352322D01*
X144780000Y-113235516D01*
X144192779Y-113352322D01*
X143694956Y-113684956D01*
X143510000Y-113961763D01*
X143325044Y-113684956D01*
X142827222Y-113352322D01*
X142240000Y-113235516D01*
X141652779Y-113352322D01*
X141154956Y-113684956D01*
X140970000Y-113961763D01*
X140785044Y-113684956D01*
X140287222Y-113352322D01*
X139700000Y-113235516D01*
X139112779Y-113352322D01*
X138614956Y-113684956D01*
X138282322Y-114182778D01*
X138195000Y-114621774D01*
X137085366Y-114621774D01*
X136875874Y-114535000D01*
X136464126Y-114535000D01*
X136083720Y-114692569D01*
X135792569Y-114983720D01*
X135635000Y-115364126D01*
X128835000Y-115364126D01*
X128835000Y-114237171D01*
X128251156Y-112827647D01*
X127612635Y-112189126D01*
X135635000Y-112189126D01*
X135635000Y-112600874D01*
X135792569Y-112981280D01*
X136083720Y-113272431D01*
X136464126Y-113430000D01*
X136875874Y-113430000D01*
X137256280Y-113272431D01*
X137547431Y-112981280D01*
X137705000Y-112600874D01*
X137705000Y-112189126D01*
X137547431Y-111808720D01*
X137410837Y-111672126D01*
X154413000Y-111672126D01*
X154413000Y-112083874D01*
X154570569Y-112464280D01*
X154861720Y-112755431D01*
X155242126Y-112913000D01*
X155653874Y-112913000D01*
X156034280Y-112755431D01*
X156325431Y-112464280D01*
X156483000Y-112083874D01*
X156483000Y-111672126D01*
X156325431Y-111291720D01*
X156034280Y-111000569D01*
X155653874Y-110843000D01*
X155242126Y-110843000D01*
X154861720Y-111000569D01*
X154570569Y-111291720D01*
X154413000Y-111672126D01*
X137410837Y-111672126D01*
X137256280Y-111517569D01*
X136875874Y-111360000D01*
X136464126Y-111360000D01*
X136083720Y-111517569D01*
X135792569Y-111808720D01*
X135635000Y-112189126D01*
X127612635Y-112189126D01*
X127172353Y-111748844D01*
X125762829Y-111165000D01*
X124237171Y-111165000D01*
X122827647Y-111748844D01*
X121748844Y-112827647D01*
X121165000Y-114237171D01*
X120777000Y-114237171D01*
X120777000Y-109014126D01*
X135490000Y-109014126D01*
X135490000Y-109425874D01*
X135647569Y-109806280D01*
X135938720Y-110097431D01*
X136319126Y-110255000D01*
X136730874Y-110255000D01*
X137111280Y-110097431D01*
X137402431Y-109806280D01*
X137560000Y-109425874D01*
X137560000Y-109014126D01*
X137402431Y-108633720D01*
X137111280Y-108342569D01*
X136730874Y-108185000D01*
X136319126Y-108185000D01*
X135938720Y-108342569D01*
X135647569Y-108633720D01*
X135490000Y-109014126D01*
X120777000Y-109014126D01*
X120777000Y-107490126D01*
X144879000Y-107490126D01*
X144879000Y-107901874D01*
X145036569Y-108282280D01*
X145327720Y-108573431D01*
X145708126Y-108731000D01*
X146119874Y-108731000D01*
X146500280Y-108573431D01*
X146791431Y-108282280D01*
X146949000Y-107901874D01*
X146949000Y-107490126D01*
X146791431Y-107109720D01*
X146790837Y-107109126D01*
X153635000Y-107109126D01*
X153635000Y-107520874D01*
X153792569Y-107901280D01*
X154083720Y-108192431D01*
X154464126Y-108350000D01*
X154875874Y-108350000D01*
X155256280Y-108192431D01*
X155547431Y-107901280D01*
X155705000Y-107520874D01*
X155705000Y-107109126D01*
X155547431Y-106728720D01*
X155256280Y-106437569D01*
X154875874Y-106280000D01*
X154464126Y-106280000D01*
X154083720Y-106437569D01*
X153792569Y-106728720D01*
X153635000Y-107109126D01*
X146790837Y-107109126D01*
X146500280Y-106818569D01*
X146119874Y-106661000D01*
X145708126Y-106661000D01*
X145327720Y-106818569D01*
X145036569Y-107109720D01*
X144879000Y-107490126D01*
X120777000Y-107490126D01*
X120777000Y-105839126D01*
X135490000Y-105839126D01*
X135490000Y-106250874D01*
X135647569Y-106631280D01*
X135938720Y-106922431D01*
X136319126Y-107080000D01*
X136730874Y-107080000D01*
X137111280Y-106922431D01*
X137402431Y-106631280D01*
X137560000Y-106250874D01*
X137560000Y-105839126D01*
X137402431Y-105458720D01*
X137111280Y-105167569D01*
X136730874Y-105010000D01*
X136319126Y-105010000D01*
X135938720Y-105167569D01*
X135647569Y-105458720D01*
X135490000Y-105839126D01*
X120777000Y-105839126D01*
X120777000Y-104061126D01*
X140092000Y-104061126D01*
X140092000Y-104472874D01*
X140249569Y-104853280D01*
X140540720Y-105144431D01*
X140921126Y-105302000D01*
X141332874Y-105302000D01*
X141713280Y-105144431D01*
X142004431Y-104853280D01*
X142162000Y-104472874D01*
X142162000Y-104309126D01*
X158223000Y-104309126D01*
X158223000Y-104720874D01*
X158380569Y-105101280D01*
X158671720Y-105392431D01*
X159052126Y-105550000D01*
X159463874Y-105550000D01*
X159844280Y-105392431D01*
X160135431Y-105101280D01*
X160293000Y-104720874D01*
X160293000Y-104309126D01*
X160135431Y-103928720D01*
X159844280Y-103637569D01*
X159463874Y-103480000D01*
X159052126Y-103480000D01*
X158671720Y-103637569D01*
X158380569Y-103928720D01*
X158223000Y-104309126D01*
X142162000Y-104309126D01*
X142162000Y-104061126D01*
X142004431Y-103680720D01*
X141713280Y-103389569D01*
X141332874Y-103232000D01*
X140921126Y-103232000D01*
X140540720Y-103389569D01*
X140249569Y-103680720D01*
X140092000Y-104061126D01*
X120777000Y-104061126D01*
X120777000Y-98981126D01*
X140092000Y-98981126D01*
X140092000Y-99392874D01*
X140249569Y-99773280D01*
X140540720Y-100064431D01*
X140921126Y-100222000D01*
X141332874Y-100222000D01*
X141713280Y-100064431D01*
X142004431Y-99773280D01*
X142162000Y-99392874D01*
X142162000Y-98981126D01*
X142043121Y-98694126D01*
X148190000Y-98694126D01*
X148190000Y-99105874D01*
X148347569Y-99486280D01*
X148638720Y-99777431D01*
X149019126Y-99935000D01*
X149430874Y-99935000D01*
X149811280Y-99777431D01*
X150095000Y-99493711D01*
X150095000Y-99637874D01*
X150252569Y-100018280D01*
X150543720Y-100309431D01*
X150924126Y-100467000D01*
X151335874Y-100467000D01*
X151716280Y-100309431D01*
X152007431Y-100018280D01*
X152165000Y-99637874D01*
X152165000Y-99226126D01*
X152007431Y-98845720D01*
X151716280Y-98554569D01*
X151335874Y-98397000D01*
X150924126Y-98397000D01*
X150543720Y-98554569D01*
X150260000Y-98838289D01*
X150260000Y-98694126D01*
X150102431Y-98313720D01*
X149811280Y-98022569D01*
X149430874Y-97865000D01*
X149019126Y-97865000D01*
X148638720Y-98022569D01*
X148347569Y-98313720D01*
X148190000Y-98694126D01*
X142043121Y-98694126D01*
X142004431Y-98600720D01*
X141713280Y-98309569D01*
X141332874Y-98152000D01*
X140921126Y-98152000D01*
X140540720Y-98309569D01*
X140249569Y-98600720D01*
X140092000Y-98981126D01*
X120777000Y-98981126D01*
X120777000Y-94237171D01*
X121165000Y-94237171D01*
X121165000Y-95762829D01*
X121748844Y-97172353D01*
X122827647Y-98251156D01*
X124237171Y-98835000D01*
X125762829Y-98835000D01*
X127172353Y-98251156D01*
X128251156Y-97172353D01*
X128501435Y-96568126D01*
X148562000Y-96568126D01*
X148562000Y-96979874D01*
X148719569Y-97360280D01*
X149010720Y-97651431D01*
X149391126Y-97809000D01*
X149802874Y-97809000D01*
X150183280Y-97651431D01*
X150474431Y-97360280D01*
X150632000Y-96979874D01*
X150632000Y-96568126D01*
X150474431Y-96187720D01*
X150183280Y-95896569D01*
X149802874Y-95739000D01*
X149391126Y-95739000D01*
X149010720Y-95896569D01*
X148719569Y-96187720D01*
X148562000Y-96568126D01*
X128501435Y-96568126D01*
X128835000Y-95762829D01*
X128835000Y-94265750D01*
X140755000Y-94265750D01*
X140755000Y-94956309D01*
X140851673Y-95189698D01*
X141030301Y-95368327D01*
X141263690Y-95465000D01*
X141954250Y-95465000D01*
X142113000Y-95306250D01*
X142113000Y-94107000D01*
X140913750Y-94107000D01*
X140755000Y-94265750D01*
X128835000Y-94265750D01*
X128835000Y-94237171D01*
X128324076Y-93003691D01*
X140755000Y-93003691D01*
X140755000Y-93694250D01*
X140913750Y-93853000D01*
X142113000Y-93853000D01*
X142113000Y-92653750D01*
X142367000Y-92653750D01*
X142367000Y-93853000D01*
X142387000Y-93853000D01*
X142387000Y-94107000D01*
X142367000Y-94107000D01*
X142367000Y-95306250D01*
X142525750Y-95465000D01*
X143216310Y-95465000D01*
X143449699Y-95368327D01*
X143628327Y-95189698D01*
X143694904Y-95028967D01*
X143709375Y-95050625D01*
X144200582Y-95378839D01*
X144633744Y-95465000D01*
X144926256Y-95465000D01*
X145359418Y-95378839D01*
X145850625Y-95050625D01*
X146050000Y-94752239D01*
X146249375Y-95050625D01*
X146740582Y-95378839D01*
X147173744Y-95465000D01*
X147466256Y-95465000D01*
X147899418Y-95378839D01*
X148390625Y-95050625D01*
X148603843Y-94731522D01*
X148664817Y-94861358D01*
X149093076Y-95251645D01*
X149503110Y-95421476D01*
X149733000Y-95300155D01*
X149733000Y-94107000D01*
X149987000Y-94107000D01*
X149987000Y-95300155D01*
X150216890Y-95421476D01*
X150626924Y-95251645D01*
X151055183Y-94861358D01*
X151301486Y-94336892D01*
X151249144Y-94237171D01*
X161165000Y-94237171D01*
X161165000Y-95762829D01*
X161748844Y-97172353D01*
X162827647Y-98251156D01*
X164237171Y-98835000D01*
X165762829Y-98835000D01*
X167172353Y-98251156D01*
X168251156Y-97172353D01*
X168835000Y-95762829D01*
X168835000Y-94237171D01*
X168251156Y-92827647D01*
X167172353Y-91748844D01*
X165762829Y-91165000D01*
X164237171Y-91165000D01*
X162827647Y-91748844D01*
X161748844Y-92827647D01*
X161165000Y-94237171D01*
X151249144Y-94237171D01*
X151180819Y-94107000D01*
X149987000Y-94107000D01*
X149733000Y-94107000D01*
X149713000Y-94107000D01*
X149713000Y-93853000D01*
X149733000Y-93853000D01*
X149733000Y-92659845D01*
X149987000Y-92659845D01*
X149987000Y-93853000D01*
X151180819Y-93853000D01*
X151301486Y-93623108D01*
X151055183Y-93098642D01*
X150626924Y-92708355D01*
X150216890Y-92538524D01*
X149987000Y-92659845D01*
X149733000Y-92659845D01*
X149503110Y-92538524D01*
X149093076Y-92708355D01*
X148664817Y-93098642D01*
X148603843Y-93228478D01*
X148390625Y-92909375D01*
X147899418Y-92581161D01*
X147466256Y-92495000D01*
X147173744Y-92495000D01*
X146740582Y-92581161D01*
X146249375Y-92909375D01*
X146050000Y-93207761D01*
X145850625Y-92909375D01*
X145359418Y-92581161D01*
X144926256Y-92495000D01*
X144633744Y-92495000D01*
X144200582Y-92581161D01*
X143709375Y-92909375D01*
X143694904Y-92931033D01*
X143628327Y-92770302D01*
X143449699Y-92591673D01*
X143216310Y-92495000D01*
X142525750Y-92495000D01*
X142367000Y-92653750D01*
X142113000Y-92653750D01*
X141954250Y-92495000D01*
X141263690Y-92495000D01*
X141030301Y-92591673D01*
X140851673Y-92770302D01*
X140755000Y-93003691D01*
X128324076Y-93003691D01*
X128251156Y-92827647D01*
X127172353Y-91748844D01*
X125762829Y-91165000D01*
X124237171Y-91165000D01*
X122827647Y-91748844D01*
X121748844Y-92827647D01*
X121165000Y-94237171D01*
X120777000Y-94237171D01*
X120777000Y-90932000D01*
X169290000Y-90932000D01*
X169290001Y-119253000D01*
X169290001Y-119253000D01*
G37*
X169290001Y-119253000D02*
X120777000Y-119253000D01*
X120777000Y-114237171D01*
X121165000Y-114237171D01*
X121165000Y-115762829D01*
X121748844Y-117172353D01*
X122827647Y-118251156D01*
X124237171Y-118835000D01*
X125762829Y-118835000D01*
X127172353Y-118251156D01*
X128251156Y-117172353D01*
X128835000Y-115762829D01*
X128835000Y-115364126D01*
X135635000Y-115364126D01*
X135635000Y-115775874D01*
X135792569Y-116156280D01*
X136083720Y-116447431D01*
X136464126Y-116605000D01*
X136875874Y-116605000D01*
X137256280Y-116447431D01*
X137547431Y-116156280D01*
X137705000Y-115775874D01*
X137705000Y-115364126D01*
X137547431Y-114983720D01*
X137256280Y-114692569D01*
X137085366Y-114621774D01*
X138195000Y-114621774D01*
X138195000Y-115378225D01*
X138282322Y-115817221D01*
X138614956Y-116315044D01*
X139112778Y-116647678D01*
X139700000Y-116764484D01*
X140287221Y-116647678D01*
X140785044Y-116315044D01*
X140970000Y-116038237D01*
X141154956Y-116315044D01*
X141652778Y-116647678D01*
X142240000Y-116764484D01*
X142827221Y-116647678D01*
X143325044Y-116315044D01*
X143510000Y-116038237D01*
X143694956Y-116315044D01*
X144192778Y-116647678D01*
X144780000Y-116764484D01*
X145367221Y-116647678D01*
X145865044Y-116315044D01*
X146050000Y-116038237D01*
X146234956Y-116315044D01*
X146732778Y-116647678D01*
X147320000Y-116764484D01*
X147907221Y-116647678D01*
X148405044Y-116315044D01*
X148597160Y-116027523D01*
X148889509Y-116390533D01*
X149407500Y-116673584D01*
X149499969Y-116691302D01*
X149733000Y-116570246D01*
X149733000Y-115127000D01*
X149713000Y-115127000D01*
X149713000Y-114873000D01*
X149733000Y-114873000D01*
X149733000Y-113429754D01*
X149987000Y-113429754D01*
X149987000Y-114873000D01*
X150007000Y-114873000D01*
X150007000Y-115127000D01*
X149987000Y-115127000D01*
X149987000Y-116570246D01*
X150220031Y-116691302D01*
X150312500Y-116673584D01*
X150830491Y-116390533D01*
X150918591Y-116281140D01*
X150931843Y-116347765D01*
X151072191Y-116557809D01*
X151282235Y-116698157D01*
X151530000Y-116747440D01*
X153270000Y-116747440D01*
X153517765Y-116698157D01*
X153727809Y-116557809D01*
X153868157Y-116347765D01*
X153917440Y-116100000D01*
X153917440Y-114237171D01*
X161165000Y-114237171D01*
X161165000Y-115762829D01*
X161748844Y-117172353D01*
X162827647Y-118251156D01*
X164237171Y-118835000D01*
X165762829Y-118835000D01*
X167172353Y-118251156D01*
X168251156Y-117172353D01*
X168835000Y-115762829D01*
X168835000Y-114237171D01*
X168251156Y-112827647D01*
X167172353Y-111748844D01*
X165762829Y-111165000D01*
X164237171Y-111165000D01*
X162827647Y-111748844D01*
X161748844Y-112827647D01*
X161165000Y-114237171D01*
X153917440Y-114237171D01*
X153917440Y-113900000D01*
X153868157Y-113652235D01*
X153727809Y-113442191D01*
X153517765Y-113301843D01*
X153270000Y-113252560D01*
X151530000Y-113252560D01*
X151282235Y-113301843D01*
X151072191Y-113442191D01*
X150931843Y-113652235D01*
X150918591Y-113718860D01*
X150830491Y-113609467D01*
X150312500Y-113326416D01*
X150220031Y-113308698D01*
X149987000Y-113429754D01*
X149733000Y-113429754D01*
X149499969Y-113308698D01*
X149407500Y-113326416D01*
X148889509Y-113609467D01*
X148597159Y-113972478D01*
X148405044Y-113684956D01*
X147907222Y-113352322D01*
X147320000Y-113235516D01*
X146732779Y-113352322D01*
X146234956Y-113684956D01*
X146050000Y-113961763D01*
X145865044Y-113684956D01*
X145367222Y-113352322D01*
X144780000Y-113235516D01*
X144192779Y-113352322D01*
X143694956Y-113684956D01*
X143510000Y-113961763D01*
X143325044Y-113684956D01*
X142827222Y-113352322D01*
X142240000Y-113235516D01*
X141652779Y-113352322D01*
X141154956Y-113684956D01*
X140970000Y-113961763D01*
X140785044Y-113684956D01*
X140287222Y-113352322D01*
X139700000Y-113235516D01*
X139112779Y-113352322D01*
X138614956Y-113684956D01*
X138282322Y-114182778D01*
X138195000Y-114621774D01*
X137085366Y-114621774D01*
X136875874Y-114535000D01*
X136464126Y-114535000D01*
X136083720Y-114692569D01*
X135792569Y-114983720D01*
X135635000Y-115364126D01*
X128835000Y-115364126D01*
X128835000Y-114237171D01*
X128251156Y-112827647D01*
X127612635Y-112189126D01*
X135635000Y-112189126D01*
X135635000Y-112600874D01*
X135792569Y-112981280D01*
X136083720Y-113272431D01*
X136464126Y-113430000D01*
X136875874Y-113430000D01*
X137256280Y-113272431D01*
X137547431Y-112981280D01*
X137705000Y-112600874D01*
X137705000Y-112189126D01*
X137547431Y-111808720D01*
X137410837Y-111672126D01*
X154413000Y-111672126D01*
X154413000Y-112083874D01*
X154570569Y-112464280D01*
X154861720Y-112755431D01*
X155242126Y-112913000D01*
X155653874Y-112913000D01*
X156034280Y-112755431D01*
X156325431Y-112464280D01*
X156483000Y-112083874D01*
X156483000Y-111672126D01*
X156325431Y-111291720D01*
X156034280Y-111000569D01*
X155653874Y-110843000D01*
X155242126Y-110843000D01*
X154861720Y-111000569D01*
X154570569Y-111291720D01*
X154413000Y-111672126D01*
X137410837Y-111672126D01*
X137256280Y-111517569D01*
X136875874Y-111360000D01*
X136464126Y-111360000D01*
X136083720Y-111517569D01*
X135792569Y-111808720D01*
X135635000Y-112189126D01*
X127612635Y-112189126D01*
X127172353Y-111748844D01*
X125762829Y-111165000D01*
X124237171Y-111165000D01*
X122827647Y-111748844D01*
X121748844Y-112827647D01*
X121165000Y-114237171D01*
X120777000Y-114237171D01*
X120777000Y-109014126D01*
X135490000Y-109014126D01*
X135490000Y-109425874D01*
X135647569Y-109806280D01*
X135938720Y-110097431D01*
X136319126Y-110255000D01*
X136730874Y-110255000D01*
X137111280Y-110097431D01*
X137402431Y-109806280D01*
X137560000Y-109425874D01*
X137560000Y-109014126D01*
X137402431Y-108633720D01*
X137111280Y-108342569D01*
X136730874Y-108185000D01*
X136319126Y-108185000D01*
X135938720Y-108342569D01*
X135647569Y-108633720D01*
X135490000Y-109014126D01*
X120777000Y-109014126D01*
X120777000Y-107490126D01*
X144879000Y-107490126D01*
X144879000Y-107901874D01*
X145036569Y-108282280D01*
X145327720Y-108573431D01*
X145708126Y-108731000D01*
X146119874Y-108731000D01*
X146500280Y-108573431D01*
X146791431Y-108282280D01*
X146949000Y-107901874D01*
X146949000Y-107490126D01*
X146791431Y-107109720D01*
X146790837Y-107109126D01*
X153635000Y-107109126D01*
X153635000Y-107520874D01*
X153792569Y-107901280D01*
X154083720Y-108192431D01*
X154464126Y-108350000D01*
X154875874Y-108350000D01*
X155256280Y-108192431D01*
X155547431Y-107901280D01*
X155705000Y-107520874D01*
X155705000Y-107109126D01*
X155547431Y-106728720D01*
X155256280Y-106437569D01*
X154875874Y-106280000D01*
X154464126Y-106280000D01*
X154083720Y-106437569D01*
X153792569Y-106728720D01*
X153635000Y-107109126D01*
X146790837Y-107109126D01*
X146500280Y-106818569D01*
X146119874Y-106661000D01*
X145708126Y-106661000D01*
X145327720Y-106818569D01*
X145036569Y-107109720D01*
X144879000Y-107490126D01*
X120777000Y-107490126D01*
X120777000Y-105839126D01*
X135490000Y-105839126D01*
X135490000Y-106250874D01*
X135647569Y-106631280D01*
X135938720Y-106922431D01*
X136319126Y-107080000D01*
X136730874Y-107080000D01*
X137111280Y-106922431D01*
X137402431Y-106631280D01*
X137560000Y-106250874D01*
X137560000Y-105839126D01*
X137402431Y-105458720D01*
X137111280Y-105167569D01*
X136730874Y-105010000D01*
X136319126Y-105010000D01*
X135938720Y-105167569D01*
X135647569Y-105458720D01*
X135490000Y-105839126D01*
X120777000Y-105839126D01*
X120777000Y-104061126D01*
X140092000Y-104061126D01*
X140092000Y-104472874D01*
X140249569Y-104853280D01*
X140540720Y-105144431D01*
X140921126Y-105302000D01*
X141332874Y-105302000D01*
X141713280Y-105144431D01*
X142004431Y-104853280D01*
X142162000Y-104472874D01*
X142162000Y-104309126D01*
X158223000Y-104309126D01*
X158223000Y-104720874D01*
X158380569Y-105101280D01*
X158671720Y-105392431D01*
X159052126Y-105550000D01*
X159463874Y-105550000D01*
X159844280Y-105392431D01*
X160135431Y-105101280D01*
X160293000Y-104720874D01*
X160293000Y-104309126D01*
X160135431Y-103928720D01*
X159844280Y-103637569D01*
X159463874Y-103480000D01*
X159052126Y-103480000D01*
X158671720Y-103637569D01*
X158380569Y-103928720D01*
X158223000Y-104309126D01*
X142162000Y-104309126D01*
X142162000Y-104061126D01*
X142004431Y-103680720D01*
X141713280Y-103389569D01*
X141332874Y-103232000D01*
X140921126Y-103232000D01*
X140540720Y-103389569D01*
X140249569Y-103680720D01*
X140092000Y-104061126D01*
X120777000Y-104061126D01*
X120777000Y-98981126D01*
X140092000Y-98981126D01*
X140092000Y-99392874D01*
X140249569Y-99773280D01*
X140540720Y-100064431D01*
X140921126Y-100222000D01*
X141332874Y-100222000D01*
X141713280Y-100064431D01*
X142004431Y-99773280D01*
X142162000Y-99392874D01*
X142162000Y-98981126D01*
X142043121Y-98694126D01*
X148190000Y-98694126D01*
X148190000Y-99105874D01*
X148347569Y-99486280D01*
X148638720Y-99777431D01*
X149019126Y-99935000D01*
X149430874Y-99935000D01*
X149811280Y-99777431D01*
X150095000Y-99493711D01*
X150095000Y-99637874D01*
X150252569Y-100018280D01*
X150543720Y-100309431D01*
X150924126Y-100467000D01*
X151335874Y-100467000D01*
X151716280Y-100309431D01*
X152007431Y-100018280D01*
X152165000Y-99637874D01*
X152165000Y-99226126D01*
X152007431Y-98845720D01*
X151716280Y-98554569D01*
X151335874Y-98397000D01*
X150924126Y-98397000D01*
X150543720Y-98554569D01*
X150260000Y-98838289D01*
X150260000Y-98694126D01*
X150102431Y-98313720D01*
X149811280Y-98022569D01*
X149430874Y-97865000D01*
X149019126Y-97865000D01*
X148638720Y-98022569D01*
X148347569Y-98313720D01*
X148190000Y-98694126D01*
X142043121Y-98694126D01*
X142004431Y-98600720D01*
X141713280Y-98309569D01*
X141332874Y-98152000D01*
X140921126Y-98152000D01*
X140540720Y-98309569D01*
X140249569Y-98600720D01*
X140092000Y-98981126D01*
X120777000Y-98981126D01*
X120777000Y-94237171D01*
X121165000Y-94237171D01*
X121165000Y-95762829D01*
X121748844Y-97172353D01*
X122827647Y-98251156D01*
X124237171Y-98835000D01*
X125762829Y-98835000D01*
X127172353Y-98251156D01*
X128251156Y-97172353D01*
X128501435Y-96568126D01*
X148562000Y-96568126D01*
X148562000Y-96979874D01*
X148719569Y-97360280D01*
X149010720Y-97651431D01*
X149391126Y-97809000D01*
X149802874Y-97809000D01*
X150183280Y-97651431D01*
X150474431Y-97360280D01*
X150632000Y-96979874D01*
X150632000Y-96568126D01*
X150474431Y-96187720D01*
X150183280Y-95896569D01*
X149802874Y-95739000D01*
X149391126Y-95739000D01*
X149010720Y-95896569D01*
X148719569Y-96187720D01*
X148562000Y-96568126D01*
X128501435Y-96568126D01*
X128835000Y-95762829D01*
X128835000Y-94265750D01*
X140755000Y-94265750D01*
X140755000Y-94956309D01*
X140851673Y-95189698D01*
X141030301Y-95368327D01*
X141263690Y-95465000D01*
X141954250Y-95465000D01*
X142113000Y-95306250D01*
X142113000Y-94107000D01*
X140913750Y-94107000D01*
X140755000Y-94265750D01*
X128835000Y-94265750D01*
X128835000Y-94237171D01*
X128324076Y-93003691D01*
X140755000Y-93003691D01*
X140755000Y-93694250D01*
X140913750Y-93853000D01*
X142113000Y-93853000D01*
X142113000Y-92653750D01*
X142367000Y-92653750D01*
X142367000Y-93853000D01*
X142387000Y-93853000D01*
X142387000Y-94107000D01*
X142367000Y-94107000D01*
X142367000Y-95306250D01*
X142525750Y-95465000D01*
X143216310Y-95465000D01*
X143449699Y-95368327D01*
X143628327Y-95189698D01*
X143694904Y-95028967D01*
X143709375Y-95050625D01*
X144200582Y-95378839D01*
X144633744Y-95465000D01*
X144926256Y-95465000D01*
X145359418Y-95378839D01*
X145850625Y-95050625D01*
X146050000Y-94752239D01*
X146249375Y-95050625D01*
X146740582Y-95378839D01*
X147173744Y-95465000D01*
X147466256Y-95465000D01*
X147899418Y-95378839D01*
X148390625Y-95050625D01*
X148603843Y-94731522D01*
X148664817Y-94861358D01*
X149093076Y-95251645D01*
X149503110Y-95421476D01*
X149733000Y-95300155D01*
X149733000Y-94107000D01*
X149987000Y-94107000D01*
X149987000Y-95300155D01*
X150216890Y-95421476D01*
X150626924Y-95251645D01*
X151055183Y-94861358D01*
X151301486Y-94336892D01*
X151249144Y-94237171D01*
X161165000Y-94237171D01*
X161165000Y-95762829D01*
X161748844Y-97172353D01*
X162827647Y-98251156D01*
X164237171Y-98835000D01*
X165762829Y-98835000D01*
X167172353Y-98251156D01*
X168251156Y-97172353D01*
X168835000Y-95762829D01*
X168835000Y-94237171D01*
X168251156Y-92827647D01*
X167172353Y-91748844D01*
X165762829Y-91165000D01*
X164237171Y-91165000D01*
X162827647Y-91748844D01*
X161748844Y-92827647D01*
X161165000Y-94237171D01*
X151249144Y-94237171D01*
X151180819Y-94107000D01*
X149987000Y-94107000D01*
X149733000Y-94107000D01*
X149713000Y-94107000D01*
X149713000Y-93853000D01*
X149733000Y-93853000D01*
X149733000Y-92659845D01*
X149987000Y-92659845D01*
X149987000Y-93853000D01*
X151180819Y-93853000D01*
X151301486Y-93623108D01*
X151055183Y-93098642D01*
X150626924Y-92708355D01*
X150216890Y-92538524D01*
X149987000Y-92659845D01*
X149733000Y-92659845D01*
X149503110Y-92538524D01*
X149093076Y-92708355D01*
X148664817Y-93098642D01*
X148603843Y-93228478D01*
X148390625Y-92909375D01*
X147899418Y-92581161D01*
X147466256Y-92495000D01*
X147173744Y-92495000D01*
X146740582Y-92581161D01*
X146249375Y-92909375D01*
X146050000Y-93207761D01*
X145850625Y-92909375D01*
X145359418Y-92581161D01*
X144926256Y-92495000D01*
X144633744Y-92495000D01*
X144200582Y-92581161D01*
X143709375Y-92909375D01*
X143694904Y-92931033D01*
X143628327Y-92770302D01*
X143449699Y-92591673D01*
X143216310Y-92495000D01*
X142525750Y-92495000D01*
X142367000Y-92653750D01*
X142113000Y-92653750D01*
X141954250Y-92495000D01*
X141263690Y-92495000D01*
X141030301Y-92591673D01*
X140851673Y-92770302D01*
X140755000Y-93003691D01*
X128324076Y-93003691D01*
X128251156Y-92827647D01*
X127172353Y-91748844D01*
X125762829Y-91165000D01*
X124237171Y-91165000D01*
X122827647Y-91748844D01*
X121748844Y-92827647D01*
X121165000Y-94237171D01*
X120777000Y-94237171D01*
X120777000Y-90932000D01*
X169290000Y-90932000D01*
X169290001Y-119253000D01*
G04 #@! TD*
M02*
