G04 #@! TF.GenerationSoftware,KiCad,Pcbnew,5.0.0*
G04 #@! TF.CreationDate,2018-10-21T13:27:24+10:00*
G04 #@! TF.ProjectId,sensor,73656E736F722E6B696361645F706362,rev?*
G04 #@! TF.SameCoordinates,Original*
G04 #@! TF.FileFunction,Soldermask,Bot*
G04 #@! TF.FilePolarity,Negative*
%FSLAX46Y46*%
G04 Gerber Fmt 4.6, Leading zero omitted, Abs format (unit mm)*
G04 Created by KiCad (PCBNEW 5.0.0) date Sun Oct 21 13:27:24 2018*
%MOMM*%
%LPD*%
G01*
G04 APERTURE LIST*
%ADD10C,0.100000*%
%ADD11C,0.150000*%
%ADD12C,0.300000*%
%ADD13C,0.400000*%
%ADD14R,2.140000X2.600000*%
%ADD15O,2.140000X2.600000*%
%ADD16R,2.100000X2.100000*%
%ADD17O,2.100000X2.100000*%
%ADD18C,1.200000*%
%ADD19C,6.800000*%
%ADD20C,1.550000*%
G04 APERTURE END LIST*
D10*
D11*
X177002200Y-166007200D02*
X177002200Y-198007200D01*
X285002200Y-198007200D01*
X285002200Y-166007200D01*
X177002200Y-166007200D01*
D10*
D11*
X10000000Y-10000000D02*
X10000000Y-200007200D01*
X287002200Y-200007200D01*
X287002200Y-10000000D01*
X10000000Y-10000000D01*
D10*
D11*
X12000000Y-12000000D02*
X12000000Y-198007200D01*
X285002200Y-198007200D01*
X285002200Y-12000000D01*
X12000000Y-12000000D01*
D10*
D11*
X60000000Y-12000000D02*
X60000000Y-10000000D01*
D10*
D11*
X110000000Y-12000000D02*
X110000000Y-10000000D01*
D10*
D11*
X160000000Y-12000000D02*
X160000000Y-10000000D01*
D10*
D11*
X210000000Y-12000000D02*
X210000000Y-10000000D01*
D10*
D11*
X260000000Y-12000000D02*
X260000000Y-10000000D01*
D10*
D11*
X36065476Y-11588095D02*
X35322619Y-11588095D01*
X35694047Y-11588095D02*
X35694047Y-10288095D01*
X35570238Y-10473809D01*
X35446428Y-10597619D01*
X35322619Y-10659523D01*
D10*
D11*
X85322619Y-10411904D02*
X85384523Y-10350000D01*
X85508333Y-10288095D01*
X85817857Y-10288095D01*
X85941666Y-10350000D01*
X86003571Y-10411904D01*
X86065476Y-10535714D01*
X86065476Y-10659523D01*
X86003571Y-10845238D01*
X85260714Y-11588095D01*
X86065476Y-11588095D01*
D10*
D11*
X135260714Y-10288095D02*
X136065476Y-10288095D01*
X135632142Y-10783333D01*
X135817857Y-10783333D01*
X135941666Y-10845238D01*
X136003571Y-10907142D01*
X136065476Y-11030952D01*
X136065476Y-11340476D01*
X136003571Y-11464285D01*
X135941666Y-11526190D01*
X135817857Y-11588095D01*
X135446428Y-11588095D01*
X135322619Y-11526190D01*
X135260714Y-11464285D01*
D10*
D11*
X185941666Y-10721428D02*
X185941666Y-11588095D01*
X185632142Y-10226190D02*
X185322619Y-11154761D01*
X186127380Y-11154761D01*
D10*
D11*
X236003571Y-10288095D02*
X235384523Y-10288095D01*
X235322619Y-10907142D01*
X235384523Y-10845238D01*
X235508333Y-10783333D01*
X235817857Y-10783333D01*
X235941666Y-10845238D01*
X236003571Y-10907142D01*
X236065476Y-11030952D01*
X236065476Y-11340476D01*
X236003571Y-11464285D01*
X235941666Y-11526190D01*
X235817857Y-11588095D01*
X235508333Y-11588095D01*
X235384523Y-11526190D01*
X235322619Y-11464285D01*
D10*
D11*
X285941666Y-10288095D02*
X285694047Y-10288095D01*
X285570238Y-10350000D01*
X285508333Y-10411904D01*
X285384523Y-10597619D01*
X285322619Y-10845238D01*
X285322619Y-11340476D01*
X285384523Y-11464285D01*
X285446428Y-11526190D01*
X285570238Y-11588095D01*
X285817857Y-11588095D01*
X285941666Y-11526190D01*
X286003571Y-11464285D01*
X286065476Y-11340476D01*
X286065476Y-11030952D01*
X286003571Y-10907142D01*
X285941666Y-10845238D01*
X285817857Y-10783333D01*
X285570238Y-10783333D01*
X285446428Y-10845238D01*
X285384523Y-10907142D01*
X285322619Y-11030952D01*
D10*
D11*
X60000000Y-198007200D02*
X60000000Y-200007200D01*
D10*
D11*
X110000000Y-198007200D02*
X110000000Y-200007200D01*
D10*
D11*
X160000000Y-198007200D02*
X160000000Y-200007200D01*
D10*
D11*
X210000000Y-198007200D02*
X210000000Y-200007200D01*
D10*
D11*
X260000000Y-198007200D02*
X260000000Y-200007200D01*
D10*
D11*
X36065476Y-199595295D02*
X35322619Y-199595295D01*
X35694047Y-199595295D02*
X35694047Y-198295295D01*
X35570238Y-198481009D01*
X35446428Y-198604819D01*
X35322619Y-198666723D01*
D10*
D11*
X85322619Y-198419104D02*
X85384523Y-198357200D01*
X85508333Y-198295295D01*
X85817857Y-198295295D01*
X85941666Y-198357200D01*
X86003571Y-198419104D01*
X86065476Y-198542914D01*
X86065476Y-198666723D01*
X86003571Y-198852438D01*
X85260714Y-199595295D01*
X86065476Y-199595295D01*
D10*
D11*
X135260714Y-198295295D02*
X136065476Y-198295295D01*
X135632142Y-198790533D01*
X135817857Y-198790533D01*
X135941666Y-198852438D01*
X136003571Y-198914342D01*
X136065476Y-199038152D01*
X136065476Y-199347676D01*
X136003571Y-199471485D01*
X135941666Y-199533390D01*
X135817857Y-199595295D01*
X135446428Y-199595295D01*
X135322619Y-199533390D01*
X135260714Y-199471485D01*
D10*
D11*
X185941666Y-198728628D02*
X185941666Y-199595295D01*
X185632142Y-198233390D02*
X185322619Y-199161961D01*
X186127380Y-199161961D01*
D10*
D11*
X236003571Y-198295295D02*
X235384523Y-198295295D01*
X235322619Y-198914342D01*
X235384523Y-198852438D01*
X235508333Y-198790533D01*
X235817857Y-198790533D01*
X235941666Y-198852438D01*
X236003571Y-198914342D01*
X236065476Y-199038152D01*
X236065476Y-199347676D01*
X236003571Y-199471485D01*
X235941666Y-199533390D01*
X235817857Y-199595295D01*
X235508333Y-199595295D01*
X235384523Y-199533390D01*
X235322619Y-199471485D01*
D10*
D11*
X285941666Y-198295295D02*
X285694047Y-198295295D01*
X285570238Y-198357200D01*
X285508333Y-198419104D01*
X285384523Y-198604819D01*
X285322619Y-198852438D01*
X285322619Y-199347676D01*
X285384523Y-199471485D01*
X285446428Y-199533390D01*
X285570238Y-199595295D01*
X285817857Y-199595295D01*
X285941666Y-199533390D01*
X286003571Y-199471485D01*
X286065476Y-199347676D01*
X286065476Y-199038152D01*
X286003571Y-198914342D01*
X285941666Y-198852438D01*
X285817857Y-198790533D01*
X285570238Y-198790533D01*
X285446428Y-198852438D01*
X285384523Y-198914342D01*
X285322619Y-199038152D01*
D10*
D11*
X10000000Y-60000000D02*
X12000000Y-60000000D01*
D10*
D11*
X10000000Y-110000000D02*
X12000000Y-110000000D01*
D10*
D11*
X10000000Y-160000000D02*
X12000000Y-160000000D01*
D10*
D11*
X10690476Y-35216666D02*
X11309523Y-35216666D01*
X10566666Y-35588095D02*
X11000000Y-34288095D01*
X11433333Y-35588095D01*
D10*
D11*
X11092857Y-84907142D02*
X11278571Y-84969047D01*
X11340476Y-85030952D01*
X11402380Y-85154761D01*
X11402380Y-85340476D01*
X11340476Y-85464285D01*
X11278571Y-85526190D01*
X11154761Y-85588095D01*
X10659523Y-85588095D01*
X10659523Y-84288095D01*
X11092857Y-84288095D01*
X11216666Y-84350000D01*
X11278571Y-84411904D01*
X11340476Y-84535714D01*
X11340476Y-84659523D01*
X11278571Y-84783333D01*
X11216666Y-84845238D01*
X11092857Y-84907142D01*
X10659523Y-84907142D01*
D10*
D11*
X11402380Y-135464285D02*
X11340476Y-135526190D01*
X11154761Y-135588095D01*
X11030952Y-135588095D01*
X10845238Y-135526190D01*
X10721428Y-135402380D01*
X10659523Y-135278571D01*
X10597619Y-135030952D01*
X10597619Y-134845238D01*
X10659523Y-134597619D01*
X10721428Y-134473809D01*
X10845238Y-134350000D01*
X11030952Y-134288095D01*
X11154761Y-134288095D01*
X11340476Y-134350000D01*
X11402380Y-134411904D01*
D10*
D11*
X10659523Y-185588095D02*
X10659523Y-184288095D01*
X10969047Y-184288095D01*
X11154761Y-184350000D01*
X11278571Y-184473809D01*
X11340476Y-184597619D01*
X11402380Y-184845238D01*
X11402380Y-185030952D01*
X11340476Y-185278571D01*
X11278571Y-185402380D01*
X11154761Y-185526190D01*
X10969047Y-185588095D01*
X10659523Y-185588095D01*
D10*
D11*
X287002200Y-60000000D02*
X285002200Y-60000000D01*
D10*
D11*
X287002200Y-110000000D02*
X285002200Y-110000000D01*
D10*
D11*
X287002200Y-160000000D02*
X285002200Y-160000000D01*
D10*
D11*
X285692676Y-35216666D02*
X286311723Y-35216666D01*
X285568866Y-35588095D02*
X286002200Y-34288095D01*
X286435533Y-35588095D01*
D10*
D11*
X286095057Y-84907142D02*
X286280771Y-84969047D01*
X286342676Y-85030952D01*
X286404580Y-85154761D01*
X286404580Y-85340476D01*
X286342676Y-85464285D01*
X286280771Y-85526190D01*
X286156961Y-85588095D01*
X285661723Y-85588095D01*
X285661723Y-84288095D01*
X286095057Y-84288095D01*
X286218866Y-84350000D01*
X286280771Y-84411904D01*
X286342676Y-84535714D01*
X286342676Y-84659523D01*
X286280771Y-84783333D01*
X286218866Y-84845238D01*
X286095057Y-84907142D01*
X285661723Y-84907142D01*
D10*
D11*
X286404580Y-135464285D02*
X286342676Y-135526190D01*
X286156961Y-135588095D01*
X286033152Y-135588095D01*
X285847438Y-135526190D01*
X285723628Y-135402380D01*
X285661723Y-135278571D01*
X285599819Y-135030952D01*
X285599819Y-134845238D01*
X285661723Y-134597619D01*
X285723628Y-134473809D01*
X285847438Y-134350000D01*
X286033152Y-134288095D01*
X286156961Y-134288095D01*
X286342676Y-134350000D01*
X286404580Y-134411904D01*
D10*
D11*
X285661723Y-185588095D02*
X285661723Y-184288095D01*
X285971247Y-184288095D01*
X286156961Y-184350000D01*
X286280771Y-184473809D01*
X286342676Y-184597619D01*
X286404580Y-184845238D01*
X286404580Y-185030952D01*
X286342676Y-185278571D01*
X286280771Y-185402380D01*
X286156961Y-185526190D01*
X285971247Y-185588095D01*
X285661723Y-185588095D01*
D10*
D11*
X200434342Y-193785771D02*
X200434342Y-192285771D01*
X200791485Y-192285771D01*
X201005771Y-192357200D01*
X201148628Y-192500057D01*
X201220057Y-192642914D01*
X201291485Y-192928628D01*
X201291485Y-193142914D01*
X201220057Y-193428628D01*
X201148628Y-193571485D01*
X201005771Y-193714342D01*
X200791485Y-193785771D01*
X200434342Y-193785771D01*
X202577200Y-193785771D02*
X202577200Y-193000057D01*
X202505771Y-192857200D01*
X202362914Y-192785771D01*
X202077200Y-192785771D01*
X201934342Y-192857200D01*
X202577200Y-193714342D02*
X202434342Y-193785771D01*
X202077200Y-193785771D01*
X201934342Y-193714342D01*
X201862914Y-193571485D01*
X201862914Y-193428628D01*
X201934342Y-193285771D01*
X202077200Y-193214342D01*
X202434342Y-193214342D01*
X202577200Y-193142914D01*
X203077200Y-192785771D02*
X203648628Y-192785771D01*
X203291485Y-192285771D02*
X203291485Y-193571485D01*
X203362914Y-193714342D01*
X203505771Y-193785771D01*
X203648628Y-193785771D01*
X204720057Y-193714342D02*
X204577200Y-193785771D01*
X204291485Y-193785771D01*
X204148628Y-193714342D01*
X204077200Y-193571485D01*
X204077200Y-193000057D01*
X204148628Y-192857200D01*
X204291485Y-192785771D01*
X204577200Y-192785771D01*
X204720057Y-192857200D01*
X204791485Y-193000057D01*
X204791485Y-193142914D01*
X204077200Y-193285771D01*
X205434342Y-193642914D02*
X205505771Y-193714342D01*
X205434342Y-193785771D01*
X205362914Y-193714342D01*
X205434342Y-193642914D01*
X205434342Y-193785771D01*
X205434342Y-192857200D02*
X205505771Y-192928628D01*
X205434342Y-193000057D01*
X205362914Y-192928628D01*
X205434342Y-192857200D01*
X205434342Y-193000057D01*
D10*
D11*
X177002200Y-194507200D02*
X285002200Y-194507200D01*
D10*
D11*
X178434342Y-196585771D02*
X178434342Y-195085771D01*
X179291485Y-196585771D02*
X178648628Y-195728628D01*
X179291485Y-195085771D02*
X178434342Y-195942914D01*
X179934342Y-196585771D02*
X179934342Y-195585771D01*
X179934342Y-195085771D02*
X179862914Y-195157200D01*
X179934342Y-195228628D01*
X180005771Y-195157200D01*
X179934342Y-195085771D01*
X179934342Y-195228628D01*
X181505771Y-196442914D02*
X181434342Y-196514342D01*
X181220057Y-196585771D01*
X181077200Y-196585771D01*
X180862914Y-196514342D01*
X180720057Y-196371485D01*
X180648628Y-196228628D01*
X180577200Y-195942914D01*
X180577200Y-195728628D01*
X180648628Y-195442914D01*
X180720057Y-195300057D01*
X180862914Y-195157200D01*
X181077200Y-195085771D01*
X181220057Y-195085771D01*
X181434342Y-195157200D01*
X181505771Y-195228628D01*
X182791485Y-196585771D02*
X182791485Y-195800057D01*
X182720057Y-195657200D01*
X182577200Y-195585771D01*
X182291485Y-195585771D01*
X182148628Y-195657200D01*
X182791485Y-196514342D02*
X182648628Y-196585771D01*
X182291485Y-196585771D01*
X182148628Y-196514342D01*
X182077200Y-196371485D01*
X182077200Y-196228628D01*
X182148628Y-196085771D01*
X182291485Y-196014342D01*
X182648628Y-196014342D01*
X182791485Y-195942914D01*
X184148628Y-196585771D02*
X184148628Y-195085771D01*
X184148628Y-196514342D02*
X184005771Y-196585771D01*
X183720057Y-196585771D01*
X183577200Y-196514342D01*
X183505771Y-196442914D01*
X183434342Y-196300057D01*
X183434342Y-195871485D01*
X183505771Y-195728628D01*
X183577200Y-195657200D01*
X183720057Y-195585771D01*
X184005771Y-195585771D01*
X184148628Y-195657200D01*
X186005771Y-195800057D02*
X186505771Y-195800057D01*
X186720057Y-196585771D02*
X186005771Y-196585771D01*
X186005771Y-195085771D01*
X186720057Y-195085771D01*
X187362914Y-196442914D02*
X187434342Y-196514342D01*
X187362914Y-196585771D01*
X187291485Y-196514342D01*
X187362914Y-196442914D01*
X187362914Y-196585771D01*
X188077200Y-196585771D02*
X188077200Y-195085771D01*
X188434342Y-195085771D01*
X188648628Y-195157200D01*
X188791485Y-195300057D01*
X188862914Y-195442914D01*
X188934342Y-195728628D01*
X188934342Y-195942914D01*
X188862914Y-196228628D01*
X188791485Y-196371485D01*
X188648628Y-196514342D01*
X188434342Y-196585771D01*
X188077200Y-196585771D01*
X189577200Y-196442914D02*
X189648628Y-196514342D01*
X189577200Y-196585771D01*
X189505771Y-196514342D01*
X189577200Y-196442914D01*
X189577200Y-196585771D01*
X190220057Y-196157200D02*
X190934342Y-196157200D01*
X190077200Y-196585771D02*
X190577200Y-195085771D01*
X191077200Y-196585771D01*
X191577200Y-196442914D02*
X191648628Y-196514342D01*
X191577200Y-196585771D01*
X191505771Y-196514342D01*
X191577200Y-196442914D01*
X191577200Y-196585771D01*
X194577200Y-196585771D02*
X194577200Y-195085771D01*
X194720057Y-196014342D02*
X195148628Y-196585771D01*
X195148628Y-195585771D02*
X194577200Y-196157200D01*
X195791485Y-196585771D02*
X195791485Y-195585771D01*
X195791485Y-195085771D02*
X195720057Y-195157200D01*
X195791485Y-195228628D01*
X195862914Y-195157200D01*
X195791485Y-195085771D01*
X195791485Y-195228628D01*
X197148628Y-196514342D02*
X197005771Y-196585771D01*
X196720057Y-196585771D01*
X196577200Y-196514342D01*
X196505771Y-196442914D01*
X196434342Y-196300057D01*
X196434342Y-195871485D01*
X196505771Y-195728628D01*
X196577200Y-195657200D01*
X196720057Y-195585771D01*
X197005771Y-195585771D01*
X197148628Y-195657200D01*
X198434342Y-196585771D02*
X198434342Y-195800057D01*
X198362914Y-195657200D01*
X198220057Y-195585771D01*
X197934342Y-195585771D01*
X197791485Y-195657200D01*
X198434342Y-196514342D02*
X198291485Y-196585771D01*
X197934342Y-196585771D01*
X197791485Y-196514342D01*
X197720057Y-196371485D01*
X197720057Y-196228628D01*
X197791485Y-196085771D01*
X197934342Y-196014342D01*
X198291485Y-196014342D01*
X198434342Y-195942914D01*
X199791485Y-196585771D02*
X199791485Y-195085771D01*
X199791485Y-196514342D02*
X199648628Y-196585771D01*
X199362914Y-196585771D01*
X199220057Y-196514342D01*
X199148628Y-196442914D01*
X199077200Y-196300057D01*
X199077200Y-195871485D01*
X199148628Y-195728628D01*
X199220057Y-195657200D01*
X199362914Y-195585771D01*
X199648628Y-195585771D01*
X199791485Y-195657200D01*
X202362914Y-195085771D02*
X201648628Y-195085771D01*
X201577200Y-195800057D01*
X201648628Y-195728628D01*
X201791485Y-195657200D01*
X202148628Y-195657200D01*
X202291485Y-195728628D01*
X202362914Y-195800057D01*
X202434342Y-195942914D01*
X202434342Y-196300057D01*
X202362914Y-196442914D01*
X202291485Y-196514342D01*
X202148628Y-196585771D01*
X201791485Y-196585771D01*
X201648628Y-196514342D01*
X201577200Y-196442914D01*
X203077200Y-196442914D02*
X203148628Y-196514342D01*
X203077200Y-196585771D01*
X203005771Y-196514342D01*
X203077200Y-196442914D01*
X203077200Y-196585771D01*
X204077200Y-195085771D02*
X204220057Y-195085771D01*
X204362914Y-195157200D01*
X204434342Y-195228628D01*
X204505771Y-195371485D01*
X204577200Y-195657200D01*
X204577200Y-196014342D01*
X204505771Y-196300057D01*
X204434342Y-196442914D01*
X204362914Y-196514342D01*
X204220057Y-196585771D01*
X204077200Y-196585771D01*
X203934342Y-196514342D01*
X203862914Y-196442914D01*
X203791485Y-196300057D01*
X203720057Y-196014342D01*
X203720057Y-195657200D01*
X203791485Y-195371485D01*
X203862914Y-195228628D01*
X203934342Y-195157200D01*
X204077200Y-195085771D01*
X205220057Y-196442914D02*
X205291485Y-196514342D01*
X205220057Y-196585771D01*
X205148628Y-196514342D01*
X205220057Y-196442914D01*
X205220057Y-196585771D01*
X206220057Y-195085771D02*
X206362914Y-195085771D01*
X206505771Y-195157200D01*
X206577200Y-195228628D01*
X206648628Y-195371485D01*
X206720057Y-195657200D01*
X206720057Y-196014342D01*
X206648628Y-196300057D01*
X206577200Y-196442914D01*
X206505771Y-196514342D01*
X206362914Y-196585771D01*
X206220057Y-196585771D01*
X206077200Y-196514342D01*
X206005771Y-196442914D01*
X205934342Y-196300057D01*
X205862914Y-196014342D01*
X205862914Y-195657200D01*
X205934342Y-195371485D01*
X206005771Y-195228628D01*
X206077200Y-195157200D01*
X206220057Y-195085771D01*
D10*
D11*
X177002200Y-191507200D02*
X285002200Y-191507200D01*
D10*
D12*
X264411485Y-193785771D02*
X263911485Y-193071485D01*
X263554342Y-193785771D02*
X263554342Y-192285771D01*
X264125771Y-192285771D01*
X264268628Y-192357200D01*
X264340057Y-192428628D01*
X264411485Y-192571485D01*
X264411485Y-192785771D01*
X264340057Y-192928628D01*
X264268628Y-193000057D01*
X264125771Y-193071485D01*
X263554342Y-193071485D01*
X265625771Y-193714342D02*
X265482914Y-193785771D01*
X265197200Y-193785771D01*
X265054342Y-193714342D01*
X264982914Y-193571485D01*
X264982914Y-193000057D01*
X265054342Y-192857200D01*
X265197200Y-192785771D01*
X265482914Y-192785771D01*
X265625771Y-192857200D01*
X265697200Y-193000057D01*
X265697200Y-193142914D01*
X264982914Y-193285771D01*
X266197200Y-192785771D02*
X266554342Y-193785771D01*
X266911485Y-192785771D01*
X267482914Y-193642914D02*
X267554342Y-193714342D01*
X267482914Y-193785771D01*
X267411485Y-193714342D01*
X267482914Y-193642914D01*
X267482914Y-193785771D01*
X267482914Y-192857200D02*
X267554342Y-192928628D01*
X267482914Y-193000057D01*
X267411485Y-192928628D01*
X267482914Y-192857200D01*
X267482914Y-193000057D01*
D10*
D11*
X178362914Y-193714342D02*
X178577200Y-193785771D01*
X178934342Y-193785771D01*
X179077200Y-193714342D01*
X179148628Y-193642914D01*
X179220057Y-193500057D01*
X179220057Y-193357200D01*
X179148628Y-193214342D01*
X179077200Y-193142914D01*
X178934342Y-193071485D01*
X178648628Y-193000057D01*
X178505771Y-192928628D01*
X178434342Y-192857200D01*
X178362914Y-192714342D01*
X178362914Y-192571485D01*
X178434342Y-192428628D01*
X178505771Y-192357200D01*
X178648628Y-192285771D01*
X179005771Y-192285771D01*
X179220057Y-192357200D01*
X179862914Y-193785771D02*
X179862914Y-192785771D01*
X179862914Y-192285771D02*
X179791485Y-192357200D01*
X179862914Y-192428628D01*
X179934342Y-192357200D01*
X179862914Y-192285771D01*
X179862914Y-192428628D01*
X180434342Y-192785771D02*
X181220057Y-192785771D01*
X180434342Y-193785771D01*
X181220057Y-193785771D01*
X182362914Y-193714342D02*
X182220057Y-193785771D01*
X181934342Y-193785771D01*
X181791485Y-193714342D01*
X181720057Y-193571485D01*
X181720057Y-193000057D01*
X181791485Y-192857200D01*
X181934342Y-192785771D01*
X182220057Y-192785771D01*
X182362914Y-192857200D01*
X182434342Y-193000057D01*
X182434342Y-193142914D01*
X181720057Y-193285771D01*
X183077200Y-193642914D02*
X183148628Y-193714342D01*
X183077200Y-193785771D01*
X183005771Y-193714342D01*
X183077200Y-193642914D01*
X183077200Y-193785771D01*
X183077200Y-192857200D02*
X183148628Y-192928628D01*
X183077200Y-193000057D01*
X183005771Y-192928628D01*
X183077200Y-192857200D01*
X183077200Y-193000057D01*
X184862914Y-193357200D02*
X185577200Y-193357200D01*
X184720057Y-193785771D02*
X185220057Y-192285771D01*
X185720057Y-193785771D01*
X186862914Y-192785771D02*
X186862914Y-193785771D01*
X186505771Y-192214342D02*
X186148628Y-193285771D01*
X187077200Y-193285771D01*
D10*
D11*
X263434342Y-196585771D02*
X263434342Y-195085771D01*
X264791485Y-196585771D02*
X264791485Y-195085771D01*
X264791485Y-196514342D02*
X264648628Y-196585771D01*
X264362914Y-196585771D01*
X264220057Y-196514342D01*
X264148628Y-196442914D01*
X264077200Y-196300057D01*
X264077200Y-195871485D01*
X264148628Y-195728628D01*
X264220057Y-195657200D01*
X264362914Y-195585771D01*
X264648628Y-195585771D01*
X264791485Y-195657200D01*
X265505771Y-196442914D02*
X265577200Y-196514342D01*
X265505771Y-196585771D01*
X265434342Y-196514342D01*
X265505771Y-196442914D01*
X265505771Y-196585771D01*
X265505771Y-195657200D02*
X265577200Y-195728628D01*
X265505771Y-195800057D01*
X265434342Y-195728628D01*
X265505771Y-195657200D01*
X265505771Y-195800057D01*
X268148628Y-196585771D02*
X267291485Y-196585771D01*
X267720057Y-196585771D02*
X267720057Y-195085771D01*
X267577200Y-195300057D01*
X267434342Y-195442914D01*
X267291485Y-195514342D01*
X269862914Y-195014342D02*
X268577200Y-196942914D01*
X271148628Y-196585771D02*
X270291485Y-196585771D01*
X270720057Y-196585771D02*
X270720057Y-195085771D01*
X270577200Y-195300057D01*
X270434342Y-195442914D01*
X270291485Y-195514342D01*
D10*
D11*
X177002200Y-187507200D02*
X285002200Y-187507200D01*
D10*
D13*
X178714580Y-188211961D02*
X179857438Y-188211961D01*
X179036009Y-190211961D02*
X179286009Y-188211961D01*
X180274104Y-190211961D02*
X180440771Y-188878628D01*
X180524104Y-188211961D02*
X180416961Y-188307200D01*
X180500295Y-188402438D01*
X180607438Y-188307200D01*
X180524104Y-188211961D01*
X180500295Y-188402438D01*
X181107438Y-188878628D02*
X181869342Y-188878628D01*
X181476485Y-188211961D02*
X181262200Y-189926247D01*
X181333628Y-190116723D01*
X181512200Y-190211961D01*
X181702676Y-190211961D01*
X182655057Y-190211961D02*
X182476485Y-190116723D01*
X182405057Y-189926247D01*
X182619342Y-188211961D01*
X184190771Y-190116723D02*
X183988390Y-190211961D01*
X183607438Y-190211961D01*
X183428866Y-190116723D01*
X183357438Y-189926247D01*
X183452676Y-189164342D01*
X183571723Y-188973866D01*
X183774104Y-188878628D01*
X184155057Y-188878628D01*
X184333628Y-188973866D01*
X184405057Y-189164342D01*
X184381247Y-189354819D01*
X183405057Y-189545295D01*
X185155057Y-190021485D02*
X185238390Y-190116723D01*
X185131247Y-190211961D01*
X185047914Y-190116723D01*
X185155057Y-190021485D01*
X185131247Y-190211961D01*
X185286009Y-188973866D02*
X185369342Y-189069104D01*
X185262200Y-189164342D01*
X185178866Y-189069104D01*
X185286009Y-188973866D01*
X185262200Y-189164342D01*
D10*
D11*
X178934342Y-185600057D02*
X178434342Y-185600057D01*
X178434342Y-186385771D02*
X178434342Y-184885771D01*
X179148628Y-184885771D01*
X179720057Y-186385771D02*
X179720057Y-185385771D01*
X179720057Y-184885771D02*
X179648628Y-184957200D01*
X179720057Y-185028628D01*
X179791485Y-184957200D01*
X179720057Y-184885771D01*
X179720057Y-185028628D01*
X180648628Y-186385771D02*
X180505771Y-186314342D01*
X180434342Y-186171485D01*
X180434342Y-184885771D01*
X181791485Y-186314342D02*
X181648628Y-186385771D01*
X181362914Y-186385771D01*
X181220057Y-186314342D01*
X181148628Y-186171485D01*
X181148628Y-185600057D01*
X181220057Y-185457200D01*
X181362914Y-185385771D01*
X181648628Y-185385771D01*
X181791485Y-185457200D01*
X181862914Y-185600057D01*
X181862914Y-185742914D01*
X181148628Y-185885771D01*
X182505771Y-186242914D02*
X182577200Y-186314342D01*
X182505771Y-186385771D01*
X182434342Y-186314342D01*
X182505771Y-186242914D01*
X182505771Y-186385771D01*
X182505771Y-185457200D02*
X182577200Y-185528628D01*
X182505771Y-185600057D01*
X182434342Y-185528628D01*
X182505771Y-185457200D01*
X182505771Y-185600057D01*
X184291485Y-186314342D02*
X184434342Y-186385771D01*
X184720057Y-186385771D01*
X184862914Y-186314342D01*
X184934342Y-186171485D01*
X184934342Y-186100057D01*
X184862914Y-185957200D01*
X184720057Y-185885771D01*
X184505771Y-185885771D01*
X184362914Y-185814342D01*
X184291485Y-185671485D01*
X184291485Y-185600057D01*
X184362914Y-185457200D01*
X184505771Y-185385771D01*
X184720057Y-185385771D01*
X184862914Y-185457200D01*
X186148628Y-186314342D02*
X186005771Y-186385771D01*
X185720057Y-186385771D01*
X185577200Y-186314342D01*
X185505771Y-186171485D01*
X185505771Y-185600057D01*
X185577200Y-185457200D01*
X185720057Y-185385771D01*
X186005771Y-185385771D01*
X186148628Y-185457200D01*
X186220057Y-185600057D01*
X186220057Y-185742914D01*
X185505771Y-185885771D01*
X186862914Y-185385771D02*
X186862914Y-186385771D01*
X186862914Y-185528628D02*
X186934342Y-185457200D01*
X187077200Y-185385771D01*
X187291485Y-185385771D01*
X187434342Y-185457200D01*
X187505771Y-185600057D01*
X187505771Y-186385771D01*
X188148628Y-186314342D02*
X188291485Y-186385771D01*
X188577200Y-186385771D01*
X188720057Y-186314342D01*
X188791485Y-186171485D01*
X188791485Y-186100057D01*
X188720057Y-185957200D01*
X188577200Y-185885771D01*
X188362914Y-185885771D01*
X188220057Y-185814342D01*
X188148628Y-185671485D01*
X188148628Y-185600057D01*
X188220057Y-185457200D01*
X188362914Y-185385771D01*
X188577200Y-185385771D01*
X188720057Y-185457200D01*
X189648628Y-186385771D02*
X189505771Y-186314342D01*
X189434342Y-186242914D01*
X189362914Y-186100057D01*
X189362914Y-185671485D01*
X189434342Y-185528628D01*
X189505771Y-185457200D01*
X189648628Y-185385771D01*
X189862914Y-185385771D01*
X190005771Y-185457200D01*
X190077200Y-185528628D01*
X190148628Y-185671485D01*
X190148628Y-186100057D01*
X190077200Y-186242914D01*
X190005771Y-186314342D01*
X189862914Y-186385771D01*
X189648628Y-186385771D01*
X190791485Y-186385771D02*
X190791485Y-185385771D01*
X190791485Y-185671485D02*
X190862914Y-185528628D01*
X190934342Y-185457200D01*
X191077200Y-185385771D01*
X191220057Y-185385771D01*
X191720057Y-186242914D02*
X191791485Y-186314342D01*
X191720057Y-186385771D01*
X191648628Y-186314342D01*
X191720057Y-186242914D01*
X191720057Y-186385771D01*
X192434342Y-186385771D02*
X192434342Y-184885771D01*
X192577200Y-185814342D02*
X193005771Y-186385771D01*
X193005771Y-185385771D02*
X192434342Y-185957200D01*
X193648628Y-186385771D02*
X193648628Y-185385771D01*
X193648628Y-184885771D02*
X193577200Y-184957200D01*
X193648628Y-185028628D01*
X193720057Y-184957200D01*
X193648628Y-184885771D01*
X193648628Y-185028628D01*
X195005771Y-186314342D02*
X194862914Y-186385771D01*
X194577200Y-186385771D01*
X194434342Y-186314342D01*
X194362914Y-186242914D01*
X194291485Y-186100057D01*
X194291485Y-185671485D01*
X194362914Y-185528628D01*
X194434342Y-185457200D01*
X194577200Y-185385771D01*
X194862914Y-185385771D01*
X195005771Y-185457200D01*
X196291485Y-186385771D02*
X196291485Y-185600057D01*
X196220057Y-185457200D01*
X196077200Y-185385771D01*
X195791485Y-185385771D01*
X195648628Y-185457200D01*
X196291485Y-186314342D02*
X196148628Y-186385771D01*
X195791485Y-186385771D01*
X195648628Y-186314342D01*
X195577200Y-186171485D01*
X195577200Y-186028628D01*
X195648628Y-185885771D01*
X195791485Y-185814342D01*
X196148628Y-185814342D01*
X196291485Y-185742914D01*
X197648628Y-186385771D02*
X197648628Y-184885771D01*
X197648628Y-186314342D02*
X197505771Y-186385771D01*
X197220057Y-186385771D01*
X197077200Y-186314342D01*
X197005771Y-186242914D01*
X196934342Y-186100057D01*
X196934342Y-185671485D01*
X197005771Y-185528628D01*
X197077200Y-185457200D01*
X197220057Y-185385771D01*
X197505771Y-185385771D01*
X197648628Y-185457200D01*
X198005771Y-186528628D02*
X199148628Y-186528628D01*
X199505771Y-185385771D02*
X199505771Y-186885771D01*
X199505771Y-185457200D02*
X199648628Y-185385771D01*
X199934342Y-185385771D01*
X200077200Y-185457200D01*
X200148628Y-185528628D01*
X200220057Y-185671485D01*
X200220057Y-186100057D01*
X200148628Y-186242914D01*
X200077200Y-186314342D01*
X199934342Y-186385771D01*
X199648628Y-186385771D01*
X199505771Y-186314342D01*
X201505771Y-186314342D02*
X201362914Y-186385771D01*
X201077200Y-186385771D01*
X200934342Y-186314342D01*
X200862914Y-186242914D01*
X200791485Y-186100057D01*
X200791485Y-185671485D01*
X200862914Y-185528628D01*
X200934342Y-185457200D01*
X201077200Y-185385771D01*
X201362914Y-185385771D01*
X201505771Y-185457200D01*
X202148628Y-186385771D02*
X202148628Y-184885771D01*
X202148628Y-185457200D02*
X202291485Y-185385771D01*
X202577200Y-185385771D01*
X202720057Y-185457200D01*
X202791485Y-185528628D01*
X202862914Y-185671485D01*
X202862914Y-186100057D01*
X202791485Y-186242914D01*
X202720057Y-186314342D01*
X202577200Y-186385771D01*
X202291485Y-186385771D01*
X202148628Y-186314342D01*
D10*
D11*
X177002200Y-181507200D02*
X285002200Y-181507200D01*
D10*
D11*
X178362914Y-183614342D02*
X178577200Y-183685771D01*
X178934342Y-183685771D01*
X179077200Y-183614342D01*
X179148628Y-183542914D01*
X179220057Y-183400057D01*
X179220057Y-183257200D01*
X179148628Y-183114342D01*
X179077200Y-183042914D01*
X178934342Y-182971485D01*
X178648628Y-182900057D01*
X178505771Y-182828628D01*
X178434342Y-182757200D01*
X178362914Y-182614342D01*
X178362914Y-182471485D01*
X178434342Y-182328628D01*
X178505771Y-182257200D01*
X178648628Y-182185771D01*
X179005771Y-182185771D01*
X179220057Y-182257200D01*
X179862914Y-183685771D02*
X179862914Y-182185771D01*
X180505771Y-183685771D02*
X180505771Y-182900057D01*
X180434342Y-182757200D01*
X180291485Y-182685771D01*
X180077200Y-182685771D01*
X179934342Y-182757200D01*
X179862914Y-182828628D01*
X181791485Y-183614342D02*
X181648628Y-183685771D01*
X181362914Y-183685771D01*
X181220057Y-183614342D01*
X181148628Y-183471485D01*
X181148628Y-182900057D01*
X181220057Y-182757200D01*
X181362914Y-182685771D01*
X181648628Y-182685771D01*
X181791485Y-182757200D01*
X181862914Y-182900057D01*
X181862914Y-183042914D01*
X181148628Y-183185771D01*
X183077200Y-183614342D02*
X182934342Y-183685771D01*
X182648628Y-183685771D01*
X182505771Y-183614342D01*
X182434342Y-183471485D01*
X182434342Y-182900057D01*
X182505771Y-182757200D01*
X182648628Y-182685771D01*
X182934342Y-182685771D01*
X183077200Y-182757200D01*
X183148628Y-182900057D01*
X183148628Y-183042914D01*
X182434342Y-183185771D01*
X183577200Y-182685771D02*
X184148628Y-182685771D01*
X183791485Y-182185771D02*
X183791485Y-183471485D01*
X183862914Y-183614342D01*
X184005771Y-183685771D01*
X184148628Y-183685771D01*
X184648628Y-183542914D02*
X184720057Y-183614342D01*
X184648628Y-183685771D01*
X184577200Y-183614342D01*
X184648628Y-183542914D01*
X184648628Y-183685771D01*
X184648628Y-182757200D02*
X184720057Y-182828628D01*
X184648628Y-182900057D01*
X184577200Y-182828628D01*
X184648628Y-182757200D01*
X184648628Y-182900057D01*
D10*
D11*
X197002200Y-191507200D02*
X197002200Y-194507200D01*
D10*
D11*
X261002200Y-191507200D02*
X261002200Y-198007200D01*
D14*
G04 #@! TO.C,J1*
X152400000Y-115000000D03*
D15*
X149860000Y-115000000D03*
X147320000Y-115000000D03*
X144780000Y-115000000D03*
X142240000Y-115000000D03*
X139700000Y-115000000D03*
G04 #@! TD*
D16*
G04 #@! TO.C,J2*
X142240000Y-93980000D03*
D17*
X144780000Y-93980000D03*
X147320000Y-93980000D03*
X149860000Y-93980000D03*
G04 #@! TD*
D18*
G04 #@! TO.C,MH1*
X166697056Y-113302944D03*
X165000000Y-112600000D03*
X163302944Y-113302944D03*
X162600000Y-115000000D03*
X163302944Y-116697056D03*
X165000000Y-117400000D03*
X166697056Y-116697056D03*
X167400000Y-115000000D03*
D19*
X165000000Y-115000000D03*
G04 #@! TD*
G04 #@! TO.C,MH2*
X165000000Y-95000000D03*
D18*
X167400000Y-95000000D03*
X166697056Y-96697056D03*
X165000000Y-97400000D03*
X163302944Y-96697056D03*
X162600000Y-95000000D03*
X163302944Y-93302944D03*
X165000000Y-92600000D03*
X166697056Y-93302944D03*
G04 #@! TD*
D19*
G04 #@! TO.C,MH3*
X125000000Y-95000000D03*
D18*
X127400000Y-95000000D03*
X126697056Y-96697056D03*
X125000000Y-97400000D03*
X123302944Y-96697056D03*
X122600000Y-95000000D03*
X123302944Y-93302944D03*
X125000000Y-92600000D03*
X126697056Y-93302944D03*
G04 #@! TD*
G04 #@! TO.C,MH4*
X126697056Y-113302944D03*
X125000000Y-112600000D03*
X123302944Y-113302944D03*
X122600000Y-115000000D03*
X123302944Y-116697056D03*
X125000000Y-117400000D03*
X126697056Y-116697056D03*
X127400000Y-115000000D03*
D19*
X125000000Y-115000000D03*
G04 #@! TD*
D10*
G04 #@! TO.C,R1*
G36*
X136996071Y-105146623D02*
X137028781Y-105151475D01*
X137060857Y-105159509D01*
X137091991Y-105170649D01*
X137121884Y-105184787D01*
X137150247Y-105201787D01*
X137176807Y-105221485D01*
X137201308Y-105243692D01*
X137223515Y-105268193D01*
X137243213Y-105294753D01*
X137260213Y-105323116D01*
X137274351Y-105353009D01*
X137285491Y-105384143D01*
X137293525Y-105416219D01*
X137298377Y-105448929D01*
X137300000Y-105481956D01*
X137300000Y-106608044D01*
X137298377Y-106641071D01*
X137293525Y-106673781D01*
X137285491Y-106705857D01*
X137274351Y-106736991D01*
X137260213Y-106766884D01*
X137243213Y-106795247D01*
X137223515Y-106821807D01*
X137201308Y-106846308D01*
X137176807Y-106868515D01*
X137150247Y-106888213D01*
X137121884Y-106905213D01*
X137091991Y-106919351D01*
X137060857Y-106930491D01*
X137028781Y-106938525D01*
X136996071Y-106943377D01*
X136963044Y-106945000D01*
X136086956Y-106945000D01*
X136053929Y-106943377D01*
X136021219Y-106938525D01*
X135989143Y-106930491D01*
X135958009Y-106919351D01*
X135928116Y-106905213D01*
X135899753Y-106888213D01*
X135873193Y-106868515D01*
X135848692Y-106846308D01*
X135826485Y-106821807D01*
X135806787Y-106795247D01*
X135789787Y-106766884D01*
X135775649Y-106736991D01*
X135764509Y-106705857D01*
X135756475Y-106673781D01*
X135751623Y-106641071D01*
X135750000Y-106608044D01*
X135750000Y-105481956D01*
X135751623Y-105448929D01*
X135756475Y-105416219D01*
X135764509Y-105384143D01*
X135775649Y-105353009D01*
X135789787Y-105323116D01*
X135806787Y-105294753D01*
X135826485Y-105268193D01*
X135848692Y-105243692D01*
X135873193Y-105221485D01*
X135899753Y-105201787D01*
X135928116Y-105184787D01*
X135958009Y-105170649D01*
X135989143Y-105159509D01*
X136021219Y-105151475D01*
X136053929Y-105146623D01*
X136086956Y-105145000D01*
X136963044Y-105145000D01*
X136996071Y-105146623D01*
X136996071Y-105146623D01*
G37*
D20*
X136525000Y-106045000D03*
D10*
G36*
X134946071Y-105146623D02*
X134978781Y-105151475D01*
X135010857Y-105159509D01*
X135041991Y-105170649D01*
X135071884Y-105184787D01*
X135100247Y-105201787D01*
X135126807Y-105221485D01*
X135151308Y-105243692D01*
X135173515Y-105268193D01*
X135193213Y-105294753D01*
X135210213Y-105323116D01*
X135224351Y-105353009D01*
X135235491Y-105384143D01*
X135243525Y-105416219D01*
X135248377Y-105448929D01*
X135250000Y-105481956D01*
X135250000Y-106608044D01*
X135248377Y-106641071D01*
X135243525Y-106673781D01*
X135235491Y-106705857D01*
X135224351Y-106736991D01*
X135210213Y-106766884D01*
X135193213Y-106795247D01*
X135173515Y-106821807D01*
X135151308Y-106846308D01*
X135126807Y-106868515D01*
X135100247Y-106888213D01*
X135071884Y-106905213D01*
X135041991Y-106919351D01*
X135010857Y-106930491D01*
X134978781Y-106938525D01*
X134946071Y-106943377D01*
X134913044Y-106945000D01*
X134036956Y-106945000D01*
X134003929Y-106943377D01*
X133971219Y-106938525D01*
X133939143Y-106930491D01*
X133908009Y-106919351D01*
X133878116Y-106905213D01*
X133849753Y-106888213D01*
X133823193Y-106868515D01*
X133798692Y-106846308D01*
X133776485Y-106821807D01*
X133756787Y-106795247D01*
X133739787Y-106766884D01*
X133725649Y-106736991D01*
X133714509Y-106705857D01*
X133706475Y-106673781D01*
X133701623Y-106641071D01*
X133700000Y-106608044D01*
X133700000Y-105481956D01*
X133701623Y-105448929D01*
X133706475Y-105416219D01*
X133714509Y-105384143D01*
X133725649Y-105353009D01*
X133739787Y-105323116D01*
X133756787Y-105294753D01*
X133776485Y-105268193D01*
X133798692Y-105243692D01*
X133823193Y-105221485D01*
X133849753Y-105201787D01*
X133878116Y-105184787D01*
X133908009Y-105170649D01*
X133939143Y-105159509D01*
X133971219Y-105151475D01*
X134003929Y-105146623D01*
X134036956Y-105145000D01*
X134913044Y-105145000D01*
X134946071Y-105146623D01*
X134946071Y-105146623D01*
G37*
D20*
X134475000Y-106045000D03*
G04 #@! TD*
D10*
G04 #@! TO.C,R2*
G36*
X131136071Y-105146623D02*
X131168781Y-105151475D01*
X131200857Y-105159509D01*
X131231991Y-105170649D01*
X131261884Y-105184787D01*
X131290247Y-105201787D01*
X131316807Y-105221485D01*
X131341308Y-105243692D01*
X131363515Y-105268193D01*
X131383213Y-105294753D01*
X131400213Y-105323116D01*
X131414351Y-105353009D01*
X131425491Y-105384143D01*
X131433525Y-105416219D01*
X131438377Y-105448929D01*
X131440000Y-105481956D01*
X131440000Y-106608044D01*
X131438377Y-106641071D01*
X131433525Y-106673781D01*
X131425491Y-106705857D01*
X131414351Y-106736991D01*
X131400213Y-106766884D01*
X131383213Y-106795247D01*
X131363515Y-106821807D01*
X131341308Y-106846308D01*
X131316807Y-106868515D01*
X131290247Y-106888213D01*
X131261884Y-106905213D01*
X131231991Y-106919351D01*
X131200857Y-106930491D01*
X131168781Y-106938525D01*
X131136071Y-106943377D01*
X131103044Y-106945000D01*
X130226956Y-106945000D01*
X130193929Y-106943377D01*
X130161219Y-106938525D01*
X130129143Y-106930491D01*
X130098009Y-106919351D01*
X130068116Y-106905213D01*
X130039753Y-106888213D01*
X130013193Y-106868515D01*
X129988692Y-106846308D01*
X129966485Y-106821807D01*
X129946787Y-106795247D01*
X129929787Y-106766884D01*
X129915649Y-106736991D01*
X129904509Y-106705857D01*
X129896475Y-106673781D01*
X129891623Y-106641071D01*
X129890000Y-106608044D01*
X129890000Y-105481956D01*
X129891623Y-105448929D01*
X129896475Y-105416219D01*
X129904509Y-105384143D01*
X129915649Y-105353009D01*
X129929787Y-105323116D01*
X129946787Y-105294753D01*
X129966485Y-105268193D01*
X129988692Y-105243692D01*
X130013193Y-105221485D01*
X130039753Y-105201787D01*
X130068116Y-105184787D01*
X130098009Y-105170649D01*
X130129143Y-105159509D01*
X130161219Y-105151475D01*
X130193929Y-105146623D01*
X130226956Y-105145000D01*
X131103044Y-105145000D01*
X131136071Y-105146623D01*
X131136071Y-105146623D01*
G37*
D20*
X130665000Y-106045000D03*
D10*
G36*
X133186071Y-105146623D02*
X133218781Y-105151475D01*
X133250857Y-105159509D01*
X133281991Y-105170649D01*
X133311884Y-105184787D01*
X133340247Y-105201787D01*
X133366807Y-105221485D01*
X133391308Y-105243692D01*
X133413515Y-105268193D01*
X133433213Y-105294753D01*
X133450213Y-105323116D01*
X133464351Y-105353009D01*
X133475491Y-105384143D01*
X133483525Y-105416219D01*
X133488377Y-105448929D01*
X133490000Y-105481956D01*
X133490000Y-106608044D01*
X133488377Y-106641071D01*
X133483525Y-106673781D01*
X133475491Y-106705857D01*
X133464351Y-106736991D01*
X133450213Y-106766884D01*
X133433213Y-106795247D01*
X133413515Y-106821807D01*
X133391308Y-106846308D01*
X133366807Y-106868515D01*
X133340247Y-106888213D01*
X133311884Y-106905213D01*
X133281991Y-106919351D01*
X133250857Y-106930491D01*
X133218781Y-106938525D01*
X133186071Y-106943377D01*
X133153044Y-106945000D01*
X132276956Y-106945000D01*
X132243929Y-106943377D01*
X132211219Y-106938525D01*
X132179143Y-106930491D01*
X132148009Y-106919351D01*
X132118116Y-106905213D01*
X132089753Y-106888213D01*
X132063193Y-106868515D01*
X132038692Y-106846308D01*
X132016485Y-106821807D01*
X131996787Y-106795247D01*
X131979787Y-106766884D01*
X131965649Y-106736991D01*
X131954509Y-106705857D01*
X131946475Y-106673781D01*
X131941623Y-106641071D01*
X131940000Y-106608044D01*
X131940000Y-105481956D01*
X131941623Y-105448929D01*
X131946475Y-105416219D01*
X131954509Y-105384143D01*
X131965649Y-105353009D01*
X131979787Y-105323116D01*
X131996787Y-105294753D01*
X132016485Y-105268193D01*
X132038692Y-105243692D01*
X132063193Y-105221485D01*
X132089753Y-105201787D01*
X132118116Y-105184787D01*
X132148009Y-105170649D01*
X132179143Y-105159509D01*
X132211219Y-105151475D01*
X132243929Y-105146623D01*
X132276956Y-105145000D01*
X133153044Y-105145000D01*
X133186071Y-105146623D01*
X133186071Y-105146623D01*
G37*
D20*
X132715000Y-106045000D03*
G04 #@! TD*
D10*
G04 #@! TO.C,R3*
G36*
X145496071Y-111496623D02*
X145528781Y-111501475D01*
X145560857Y-111509509D01*
X145591991Y-111520649D01*
X145621884Y-111534787D01*
X145650247Y-111551787D01*
X145676807Y-111571485D01*
X145701308Y-111593692D01*
X145723515Y-111618193D01*
X145743213Y-111644753D01*
X145760213Y-111673116D01*
X145774351Y-111703009D01*
X145785491Y-111734143D01*
X145793525Y-111766219D01*
X145798377Y-111798929D01*
X145800000Y-111831956D01*
X145800000Y-112958044D01*
X145798377Y-112991071D01*
X145793525Y-113023781D01*
X145785491Y-113055857D01*
X145774351Y-113086991D01*
X145760213Y-113116884D01*
X145743213Y-113145247D01*
X145723515Y-113171807D01*
X145701308Y-113196308D01*
X145676807Y-113218515D01*
X145650247Y-113238213D01*
X145621884Y-113255213D01*
X145591991Y-113269351D01*
X145560857Y-113280491D01*
X145528781Y-113288525D01*
X145496071Y-113293377D01*
X145463044Y-113295000D01*
X144586956Y-113295000D01*
X144553929Y-113293377D01*
X144521219Y-113288525D01*
X144489143Y-113280491D01*
X144458009Y-113269351D01*
X144428116Y-113255213D01*
X144399753Y-113238213D01*
X144373193Y-113218515D01*
X144348692Y-113196308D01*
X144326485Y-113171807D01*
X144306787Y-113145247D01*
X144289787Y-113116884D01*
X144275649Y-113086991D01*
X144264509Y-113055857D01*
X144256475Y-113023781D01*
X144251623Y-112991071D01*
X144250000Y-112958044D01*
X144250000Y-111831956D01*
X144251623Y-111798929D01*
X144256475Y-111766219D01*
X144264509Y-111734143D01*
X144275649Y-111703009D01*
X144289787Y-111673116D01*
X144306787Y-111644753D01*
X144326485Y-111618193D01*
X144348692Y-111593692D01*
X144373193Y-111571485D01*
X144399753Y-111551787D01*
X144428116Y-111534787D01*
X144458009Y-111520649D01*
X144489143Y-111509509D01*
X144521219Y-111501475D01*
X144553929Y-111496623D01*
X144586956Y-111495000D01*
X145463044Y-111495000D01*
X145496071Y-111496623D01*
X145496071Y-111496623D01*
G37*
D20*
X145025000Y-112395000D03*
D10*
G36*
X147546071Y-111496623D02*
X147578781Y-111501475D01*
X147610857Y-111509509D01*
X147641991Y-111520649D01*
X147671884Y-111534787D01*
X147700247Y-111551787D01*
X147726807Y-111571485D01*
X147751308Y-111593692D01*
X147773515Y-111618193D01*
X147793213Y-111644753D01*
X147810213Y-111673116D01*
X147824351Y-111703009D01*
X147835491Y-111734143D01*
X147843525Y-111766219D01*
X147848377Y-111798929D01*
X147850000Y-111831956D01*
X147850000Y-112958044D01*
X147848377Y-112991071D01*
X147843525Y-113023781D01*
X147835491Y-113055857D01*
X147824351Y-113086991D01*
X147810213Y-113116884D01*
X147793213Y-113145247D01*
X147773515Y-113171807D01*
X147751308Y-113196308D01*
X147726807Y-113218515D01*
X147700247Y-113238213D01*
X147671884Y-113255213D01*
X147641991Y-113269351D01*
X147610857Y-113280491D01*
X147578781Y-113288525D01*
X147546071Y-113293377D01*
X147513044Y-113295000D01*
X146636956Y-113295000D01*
X146603929Y-113293377D01*
X146571219Y-113288525D01*
X146539143Y-113280491D01*
X146508009Y-113269351D01*
X146478116Y-113255213D01*
X146449753Y-113238213D01*
X146423193Y-113218515D01*
X146398692Y-113196308D01*
X146376485Y-113171807D01*
X146356787Y-113145247D01*
X146339787Y-113116884D01*
X146325649Y-113086991D01*
X146314509Y-113055857D01*
X146306475Y-113023781D01*
X146301623Y-112991071D01*
X146300000Y-112958044D01*
X146300000Y-111831956D01*
X146301623Y-111798929D01*
X146306475Y-111766219D01*
X146314509Y-111734143D01*
X146325649Y-111703009D01*
X146339787Y-111673116D01*
X146356787Y-111644753D01*
X146376485Y-111618193D01*
X146398692Y-111593692D01*
X146423193Y-111571485D01*
X146449753Y-111551787D01*
X146478116Y-111534787D01*
X146508009Y-111520649D01*
X146539143Y-111509509D01*
X146571219Y-111501475D01*
X146603929Y-111496623D01*
X146636956Y-111495000D01*
X147513044Y-111495000D01*
X147546071Y-111496623D01*
X147546071Y-111496623D01*
G37*
D20*
X147075000Y-112395000D03*
G04 #@! TD*
D10*
G04 #@! TO.C,R4*
G36*
X134946071Y-108321623D02*
X134978781Y-108326475D01*
X135010857Y-108334509D01*
X135041991Y-108345649D01*
X135071884Y-108359787D01*
X135100247Y-108376787D01*
X135126807Y-108396485D01*
X135151308Y-108418692D01*
X135173515Y-108443193D01*
X135193213Y-108469753D01*
X135210213Y-108498116D01*
X135224351Y-108528009D01*
X135235491Y-108559143D01*
X135243525Y-108591219D01*
X135248377Y-108623929D01*
X135250000Y-108656956D01*
X135250000Y-109783044D01*
X135248377Y-109816071D01*
X135243525Y-109848781D01*
X135235491Y-109880857D01*
X135224351Y-109911991D01*
X135210213Y-109941884D01*
X135193213Y-109970247D01*
X135173515Y-109996807D01*
X135151308Y-110021308D01*
X135126807Y-110043515D01*
X135100247Y-110063213D01*
X135071884Y-110080213D01*
X135041991Y-110094351D01*
X135010857Y-110105491D01*
X134978781Y-110113525D01*
X134946071Y-110118377D01*
X134913044Y-110120000D01*
X134036956Y-110120000D01*
X134003929Y-110118377D01*
X133971219Y-110113525D01*
X133939143Y-110105491D01*
X133908009Y-110094351D01*
X133878116Y-110080213D01*
X133849753Y-110063213D01*
X133823193Y-110043515D01*
X133798692Y-110021308D01*
X133776485Y-109996807D01*
X133756787Y-109970247D01*
X133739787Y-109941884D01*
X133725649Y-109911991D01*
X133714509Y-109880857D01*
X133706475Y-109848781D01*
X133701623Y-109816071D01*
X133700000Y-109783044D01*
X133700000Y-108656956D01*
X133701623Y-108623929D01*
X133706475Y-108591219D01*
X133714509Y-108559143D01*
X133725649Y-108528009D01*
X133739787Y-108498116D01*
X133756787Y-108469753D01*
X133776485Y-108443193D01*
X133798692Y-108418692D01*
X133823193Y-108396485D01*
X133849753Y-108376787D01*
X133878116Y-108359787D01*
X133908009Y-108345649D01*
X133939143Y-108334509D01*
X133971219Y-108326475D01*
X134003929Y-108321623D01*
X134036956Y-108320000D01*
X134913044Y-108320000D01*
X134946071Y-108321623D01*
X134946071Y-108321623D01*
G37*
D20*
X134475000Y-109220000D03*
D10*
G36*
X136996071Y-108321623D02*
X137028781Y-108326475D01*
X137060857Y-108334509D01*
X137091991Y-108345649D01*
X137121884Y-108359787D01*
X137150247Y-108376787D01*
X137176807Y-108396485D01*
X137201308Y-108418692D01*
X137223515Y-108443193D01*
X137243213Y-108469753D01*
X137260213Y-108498116D01*
X137274351Y-108528009D01*
X137285491Y-108559143D01*
X137293525Y-108591219D01*
X137298377Y-108623929D01*
X137300000Y-108656956D01*
X137300000Y-109783044D01*
X137298377Y-109816071D01*
X137293525Y-109848781D01*
X137285491Y-109880857D01*
X137274351Y-109911991D01*
X137260213Y-109941884D01*
X137243213Y-109970247D01*
X137223515Y-109996807D01*
X137201308Y-110021308D01*
X137176807Y-110043515D01*
X137150247Y-110063213D01*
X137121884Y-110080213D01*
X137091991Y-110094351D01*
X137060857Y-110105491D01*
X137028781Y-110113525D01*
X136996071Y-110118377D01*
X136963044Y-110120000D01*
X136086956Y-110120000D01*
X136053929Y-110118377D01*
X136021219Y-110113525D01*
X135989143Y-110105491D01*
X135958009Y-110094351D01*
X135928116Y-110080213D01*
X135899753Y-110063213D01*
X135873193Y-110043515D01*
X135848692Y-110021308D01*
X135826485Y-109996807D01*
X135806787Y-109970247D01*
X135789787Y-109941884D01*
X135775649Y-109911991D01*
X135764509Y-109880857D01*
X135756475Y-109848781D01*
X135751623Y-109816071D01*
X135750000Y-109783044D01*
X135750000Y-108656956D01*
X135751623Y-108623929D01*
X135756475Y-108591219D01*
X135764509Y-108559143D01*
X135775649Y-108528009D01*
X135789787Y-108498116D01*
X135806787Y-108469753D01*
X135826485Y-108443193D01*
X135848692Y-108418692D01*
X135873193Y-108396485D01*
X135899753Y-108376787D01*
X135928116Y-108359787D01*
X135958009Y-108345649D01*
X135989143Y-108334509D01*
X136021219Y-108326475D01*
X136053929Y-108321623D01*
X136086956Y-108320000D01*
X136963044Y-108320000D01*
X136996071Y-108321623D01*
X136996071Y-108321623D01*
G37*
D20*
X136525000Y-109220000D03*
G04 #@! TD*
D10*
G04 #@! TO.C,R5*
G36*
X133186071Y-108321623D02*
X133218781Y-108326475D01*
X133250857Y-108334509D01*
X133281991Y-108345649D01*
X133311884Y-108359787D01*
X133340247Y-108376787D01*
X133366807Y-108396485D01*
X133391308Y-108418692D01*
X133413515Y-108443193D01*
X133433213Y-108469753D01*
X133450213Y-108498116D01*
X133464351Y-108528009D01*
X133475491Y-108559143D01*
X133483525Y-108591219D01*
X133488377Y-108623929D01*
X133490000Y-108656956D01*
X133490000Y-109783044D01*
X133488377Y-109816071D01*
X133483525Y-109848781D01*
X133475491Y-109880857D01*
X133464351Y-109911991D01*
X133450213Y-109941884D01*
X133433213Y-109970247D01*
X133413515Y-109996807D01*
X133391308Y-110021308D01*
X133366807Y-110043515D01*
X133340247Y-110063213D01*
X133311884Y-110080213D01*
X133281991Y-110094351D01*
X133250857Y-110105491D01*
X133218781Y-110113525D01*
X133186071Y-110118377D01*
X133153044Y-110120000D01*
X132276956Y-110120000D01*
X132243929Y-110118377D01*
X132211219Y-110113525D01*
X132179143Y-110105491D01*
X132148009Y-110094351D01*
X132118116Y-110080213D01*
X132089753Y-110063213D01*
X132063193Y-110043515D01*
X132038692Y-110021308D01*
X132016485Y-109996807D01*
X131996787Y-109970247D01*
X131979787Y-109941884D01*
X131965649Y-109911991D01*
X131954509Y-109880857D01*
X131946475Y-109848781D01*
X131941623Y-109816071D01*
X131940000Y-109783044D01*
X131940000Y-108656956D01*
X131941623Y-108623929D01*
X131946475Y-108591219D01*
X131954509Y-108559143D01*
X131965649Y-108528009D01*
X131979787Y-108498116D01*
X131996787Y-108469753D01*
X132016485Y-108443193D01*
X132038692Y-108418692D01*
X132063193Y-108396485D01*
X132089753Y-108376787D01*
X132118116Y-108359787D01*
X132148009Y-108345649D01*
X132179143Y-108334509D01*
X132211219Y-108326475D01*
X132243929Y-108321623D01*
X132276956Y-108320000D01*
X133153044Y-108320000D01*
X133186071Y-108321623D01*
X133186071Y-108321623D01*
G37*
D20*
X132715000Y-109220000D03*
D10*
G36*
X131136071Y-108321623D02*
X131168781Y-108326475D01*
X131200857Y-108334509D01*
X131231991Y-108345649D01*
X131261884Y-108359787D01*
X131290247Y-108376787D01*
X131316807Y-108396485D01*
X131341308Y-108418692D01*
X131363515Y-108443193D01*
X131383213Y-108469753D01*
X131400213Y-108498116D01*
X131414351Y-108528009D01*
X131425491Y-108559143D01*
X131433525Y-108591219D01*
X131438377Y-108623929D01*
X131440000Y-108656956D01*
X131440000Y-109783044D01*
X131438377Y-109816071D01*
X131433525Y-109848781D01*
X131425491Y-109880857D01*
X131414351Y-109911991D01*
X131400213Y-109941884D01*
X131383213Y-109970247D01*
X131363515Y-109996807D01*
X131341308Y-110021308D01*
X131316807Y-110043515D01*
X131290247Y-110063213D01*
X131261884Y-110080213D01*
X131231991Y-110094351D01*
X131200857Y-110105491D01*
X131168781Y-110113525D01*
X131136071Y-110118377D01*
X131103044Y-110120000D01*
X130226956Y-110120000D01*
X130193929Y-110118377D01*
X130161219Y-110113525D01*
X130129143Y-110105491D01*
X130098009Y-110094351D01*
X130068116Y-110080213D01*
X130039753Y-110063213D01*
X130013193Y-110043515D01*
X129988692Y-110021308D01*
X129966485Y-109996807D01*
X129946787Y-109970247D01*
X129929787Y-109941884D01*
X129915649Y-109911991D01*
X129904509Y-109880857D01*
X129896475Y-109848781D01*
X129891623Y-109816071D01*
X129890000Y-109783044D01*
X129890000Y-108656956D01*
X129891623Y-108623929D01*
X129896475Y-108591219D01*
X129904509Y-108559143D01*
X129915649Y-108528009D01*
X129929787Y-108498116D01*
X129946787Y-108469753D01*
X129966485Y-108443193D01*
X129988692Y-108418692D01*
X130013193Y-108396485D01*
X130039753Y-108376787D01*
X130068116Y-108359787D01*
X130098009Y-108345649D01*
X130129143Y-108334509D01*
X130161219Y-108326475D01*
X130193929Y-108321623D01*
X130226956Y-108320000D01*
X131103044Y-108320000D01*
X131136071Y-108321623D01*
X131136071Y-108321623D01*
G37*
D20*
X130665000Y-109220000D03*
G04 #@! TD*
D10*
G04 #@! TO.C,R6*
G36*
X137141071Y-111496623D02*
X137173781Y-111501475D01*
X137205857Y-111509509D01*
X137236991Y-111520649D01*
X137266884Y-111534787D01*
X137295247Y-111551787D01*
X137321807Y-111571485D01*
X137346308Y-111593692D01*
X137368515Y-111618193D01*
X137388213Y-111644753D01*
X137405213Y-111673116D01*
X137419351Y-111703009D01*
X137430491Y-111734143D01*
X137438525Y-111766219D01*
X137443377Y-111798929D01*
X137445000Y-111831956D01*
X137445000Y-112958044D01*
X137443377Y-112991071D01*
X137438525Y-113023781D01*
X137430491Y-113055857D01*
X137419351Y-113086991D01*
X137405213Y-113116884D01*
X137388213Y-113145247D01*
X137368515Y-113171807D01*
X137346308Y-113196308D01*
X137321807Y-113218515D01*
X137295247Y-113238213D01*
X137266884Y-113255213D01*
X137236991Y-113269351D01*
X137205857Y-113280491D01*
X137173781Y-113288525D01*
X137141071Y-113293377D01*
X137108044Y-113295000D01*
X136231956Y-113295000D01*
X136198929Y-113293377D01*
X136166219Y-113288525D01*
X136134143Y-113280491D01*
X136103009Y-113269351D01*
X136073116Y-113255213D01*
X136044753Y-113238213D01*
X136018193Y-113218515D01*
X135993692Y-113196308D01*
X135971485Y-113171807D01*
X135951787Y-113145247D01*
X135934787Y-113116884D01*
X135920649Y-113086991D01*
X135909509Y-113055857D01*
X135901475Y-113023781D01*
X135896623Y-112991071D01*
X135895000Y-112958044D01*
X135895000Y-111831956D01*
X135896623Y-111798929D01*
X135901475Y-111766219D01*
X135909509Y-111734143D01*
X135920649Y-111703009D01*
X135934787Y-111673116D01*
X135951787Y-111644753D01*
X135971485Y-111618193D01*
X135993692Y-111593692D01*
X136018193Y-111571485D01*
X136044753Y-111551787D01*
X136073116Y-111534787D01*
X136103009Y-111520649D01*
X136134143Y-111509509D01*
X136166219Y-111501475D01*
X136198929Y-111496623D01*
X136231956Y-111495000D01*
X137108044Y-111495000D01*
X137141071Y-111496623D01*
X137141071Y-111496623D01*
G37*
D20*
X136670000Y-112395000D03*
D10*
G36*
X135091071Y-111496623D02*
X135123781Y-111501475D01*
X135155857Y-111509509D01*
X135186991Y-111520649D01*
X135216884Y-111534787D01*
X135245247Y-111551787D01*
X135271807Y-111571485D01*
X135296308Y-111593692D01*
X135318515Y-111618193D01*
X135338213Y-111644753D01*
X135355213Y-111673116D01*
X135369351Y-111703009D01*
X135380491Y-111734143D01*
X135388525Y-111766219D01*
X135393377Y-111798929D01*
X135395000Y-111831956D01*
X135395000Y-112958044D01*
X135393377Y-112991071D01*
X135388525Y-113023781D01*
X135380491Y-113055857D01*
X135369351Y-113086991D01*
X135355213Y-113116884D01*
X135338213Y-113145247D01*
X135318515Y-113171807D01*
X135296308Y-113196308D01*
X135271807Y-113218515D01*
X135245247Y-113238213D01*
X135216884Y-113255213D01*
X135186991Y-113269351D01*
X135155857Y-113280491D01*
X135123781Y-113288525D01*
X135091071Y-113293377D01*
X135058044Y-113295000D01*
X134181956Y-113295000D01*
X134148929Y-113293377D01*
X134116219Y-113288525D01*
X134084143Y-113280491D01*
X134053009Y-113269351D01*
X134023116Y-113255213D01*
X133994753Y-113238213D01*
X133968193Y-113218515D01*
X133943692Y-113196308D01*
X133921485Y-113171807D01*
X133901787Y-113145247D01*
X133884787Y-113116884D01*
X133870649Y-113086991D01*
X133859509Y-113055857D01*
X133851475Y-113023781D01*
X133846623Y-112991071D01*
X133845000Y-112958044D01*
X133845000Y-111831956D01*
X133846623Y-111798929D01*
X133851475Y-111766219D01*
X133859509Y-111734143D01*
X133870649Y-111703009D01*
X133884787Y-111673116D01*
X133901787Y-111644753D01*
X133921485Y-111618193D01*
X133943692Y-111593692D01*
X133968193Y-111571485D01*
X133994753Y-111551787D01*
X134023116Y-111534787D01*
X134053009Y-111520649D01*
X134084143Y-111509509D01*
X134116219Y-111501475D01*
X134148929Y-111496623D01*
X134181956Y-111495000D01*
X135058044Y-111495000D01*
X135091071Y-111496623D01*
X135091071Y-111496623D01*
G37*
D20*
X134620000Y-112395000D03*
G04 #@! TD*
D10*
G04 #@! TO.C,R7*
G36*
X131136071Y-111496623D02*
X131168781Y-111501475D01*
X131200857Y-111509509D01*
X131231991Y-111520649D01*
X131261884Y-111534787D01*
X131290247Y-111551787D01*
X131316807Y-111571485D01*
X131341308Y-111593692D01*
X131363515Y-111618193D01*
X131383213Y-111644753D01*
X131400213Y-111673116D01*
X131414351Y-111703009D01*
X131425491Y-111734143D01*
X131433525Y-111766219D01*
X131438377Y-111798929D01*
X131440000Y-111831956D01*
X131440000Y-112958044D01*
X131438377Y-112991071D01*
X131433525Y-113023781D01*
X131425491Y-113055857D01*
X131414351Y-113086991D01*
X131400213Y-113116884D01*
X131383213Y-113145247D01*
X131363515Y-113171807D01*
X131341308Y-113196308D01*
X131316807Y-113218515D01*
X131290247Y-113238213D01*
X131261884Y-113255213D01*
X131231991Y-113269351D01*
X131200857Y-113280491D01*
X131168781Y-113288525D01*
X131136071Y-113293377D01*
X131103044Y-113295000D01*
X130226956Y-113295000D01*
X130193929Y-113293377D01*
X130161219Y-113288525D01*
X130129143Y-113280491D01*
X130098009Y-113269351D01*
X130068116Y-113255213D01*
X130039753Y-113238213D01*
X130013193Y-113218515D01*
X129988692Y-113196308D01*
X129966485Y-113171807D01*
X129946787Y-113145247D01*
X129929787Y-113116884D01*
X129915649Y-113086991D01*
X129904509Y-113055857D01*
X129896475Y-113023781D01*
X129891623Y-112991071D01*
X129890000Y-112958044D01*
X129890000Y-111831956D01*
X129891623Y-111798929D01*
X129896475Y-111766219D01*
X129904509Y-111734143D01*
X129915649Y-111703009D01*
X129929787Y-111673116D01*
X129946787Y-111644753D01*
X129966485Y-111618193D01*
X129988692Y-111593692D01*
X130013193Y-111571485D01*
X130039753Y-111551787D01*
X130068116Y-111534787D01*
X130098009Y-111520649D01*
X130129143Y-111509509D01*
X130161219Y-111501475D01*
X130193929Y-111496623D01*
X130226956Y-111495000D01*
X131103044Y-111495000D01*
X131136071Y-111496623D01*
X131136071Y-111496623D01*
G37*
D20*
X130665000Y-112395000D03*
D10*
G36*
X133186071Y-111496623D02*
X133218781Y-111501475D01*
X133250857Y-111509509D01*
X133281991Y-111520649D01*
X133311884Y-111534787D01*
X133340247Y-111551787D01*
X133366807Y-111571485D01*
X133391308Y-111593692D01*
X133413515Y-111618193D01*
X133433213Y-111644753D01*
X133450213Y-111673116D01*
X133464351Y-111703009D01*
X133475491Y-111734143D01*
X133483525Y-111766219D01*
X133488377Y-111798929D01*
X133490000Y-111831956D01*
X133490000Y-112958044D01*
X133488377Y-112991071D01*
X133483525Y-113023781D01*
X133475491Y-113055857D01*
X133464351Y-113086991D01*
X133450213Y-113116884D01*
X133433213Y-113145247D01*
X133413515Y-113171807D01*
X133391308Y-113196308D01*
X133366807Y-113218515D01*
X133340247Y-113238213D01*
X133311884Y-113255213D01*
X133281991Y-113269351D01*
X133250857Y-113280491D01*
X133218781Y-113288525D01*
X133186071Y-113293377D01*
X133153044Y-113295000D01*
X132276956Y-113295000D01*
X132243929Y-113293377D01*
X132211219Y-113288525D01*
X132179143Y-113280491D01*
X132148009Y-113269351D01*
X132118116Y-113255213D01*
X132089753Y-113238213D01*
X132063193Y-113218515D01*
X132038692Y-113196308D01*
X132016485Y-113171807D01*
X131996787Y-113145247D01*
X131979787Y-113116884D01*
X131965649Y-113086991D01*
X131954509Y-113055857D01*
X131946475Y-113023781D01*
X131941623Y-112991071D01*
X131940000Y-112958044D01*
X131940000Y-111831956D01*
X131941623Y-111798929D01*
X131946475Y-111766219D01*
X131954509Y-111734143D01*
X131965649Y-111703009D01*
X131979787Y-111673116D01*
X131996787Y-111644753D01*
X132016485Y-111618193D01*
X132038692Y-111593692D01*
X132063193Y-111571485D01*
X132089753Y-111551787D01*
X132118116Y-111534787D01*
X132148009Y-111520649D01*
X132179143Y-111509509D01*
X132211219Y-111501475D01*
X132243929Y-111496623D01*
X132276956Y-111495000D01*
X133153044Y-111495000D01*
X133186071Y-111496623D01*
X133186071Y-111496623D01*
G37*
D20*
X132715000Y-112395000D03*
G04 #@! TD*
D10*
G04 #@! TO.C,R8*
G36*
X142466071Y-111496623D02*
X142498781Y-111501475D01*
X142530857Y-111509509D01*
X142561991Y-111520649D01*
X142591884Y-111534787D01*
X142620247Y-111551787D01*
X142646807Y-111571485D01*
X142671308Y-111593692D01*
X142693515Y-111618193D01*
X142713213Y-111644753D01*
X142730213Y-111673116D01*
X142744351Y-111703009D01*
X142755491Y-111734143D01*
X142763525Y-111766219D01*
X142768377Y-111798929D01*
X142770000Y-111831956D01*
X142770000Y-112958044D01*
X142768377Y-112991071D01*
X142763525Y-113023781D01*
X142755491Y-113055857D01*
X142744351Y-113086991D01*
X142730213Y-113116884D01*
X142713213Y-113145247D01*
X142693515Y-113171807D01*
X142671308Y-113196308D01*
X142646807Y-113218515D01*
X142620247Y-113238213D01*
X142591884Y-113255213D01*
X142561991Y-113269351D01*
X142530857Y-113280491D01*
X142498781Y-113288525D01*
X142466071Y-113293377D01*
X142433044Y-113295000D01*
X141556956Y-113295000D01*
X141523929Y-113293377D01*
X141491219Y-113288525D01*
X141459143Y-113280491D01*
X141428009Y-113269351D01*
X141398116Y-113255213D01*
X141369753Y-113238213D01*
X141343193Y-113218515D01*
X141318692Y-113196308D01*
X141296485Y-113171807D01*
X141276787Y-113145247D01*
X141259787Y-113116884D01*
X141245649Y-113086991D01*
X141234509Y-113055857D01*
X141226475Y-113023781D01*
X141221623Y-112991071D01*
X141220000Y-112958044D01*
X141220000Y-111831956D01*
X141221623Y-111798929D01*
X141226475Y-111766219D01*
X141234509Y-111734143D01*
X141245649Y-111703009D01*
X141259787Y-111673116D01*
X141276787Y-111644753D01*
X141296485Y-111618193D01*
X141318692Y-111593692D01*
X141343193Y-111571485D01*
X141369753Y-111551787D01*
X141398116Y-111534787D01*
X141428009Y-111520649D01*
X141459143Y-111509509D01*
X141491219Y-111501475D01*
X141523929Y-111496623D01*
X141556956Y-111495000D01*
X142433044Y-111495000D01*
X142466071Y-111496623D01*
X142466071Y-111496623D01*
G37*
D20*
X141995000Y-112395000D03*
D10*
G36*
X140416071Y-111496623D02*
X140448781Y-111501475D01*
X140480857Y-111509509D01*
X140511991Y-111520649D01*
X140541884Y-111534787D01*
X140570247Y-111551787D01*
X140596807Y-111571485D01*
X140621308Y-111593692D01*
X140643515Y-111618193D01*
X140663213Y-111644753D01*
X140680213Y-111673116D01*
X140694351Y-111703009D01*
X140705491Y-111734143D01*
X140713525Y-111766219D01*
X140718377Y-111798929D01*
X140720000Y-111831956D01*
X140720000Y-112958044D01*
X140718377Y-112991071D01*
X140713525Y-113023781D01*
X140705491Y-113055857D01*
X140694351Y-113086991D01*
X140680213Y-113116884D01*
X140663213Y-113145247D01*
X140643515Y-113171807D01*
X140621308Y-113196308D01*
X140596807Y-113218515D01*
X140570247Y-113238213D01*
X140541884Y-113255213D01*
X140511991Y-113269351D01*
X140480857Y-113280491D01*
X140448781Y-113288525D01*
X140416071Y-113293377D01*
X140383044Y-113295000D01*
X139506956Y-113295000D01*
X139473929Y-113293377D01*
X139441219Y-113288525D01*
X139409143Y-113280491D01*
X139378009Y-113269351D01*
X139348116Y-113255213D01*
X139319753Y-113238213D01*
X139293193Y-113218515D01*
X139268692Y-113196308D01*
X139246485Y-113171807D01*
X139226787Y-113145247D01*
X139209787Y-113116884D01*
X139195649Y-113086991D01*
X139184509Y-113055857D01*
X139176475Y-113023781D01*
X139171623Y-112991071D01*
X139170000Y-112958044D01*
X139170000Y-111831956D01*
X139171623Y-111798929D01*
X139176475Y-111766219D01*
X139184509Y-111734143D01*
X139195649Y-111703009D01*
X139209787Y-111673116D01*
X139226787Y-111644753D01*
X139246485Y-111618193D01*
X139268692Y-111593692D01*
X139293193Y-111571485D01*
X139319753Y-111551787D01*
X139348116Y-111534787D01*
X139378009Y-111520649D01*
X139409143Y-111509509D01*
X139441219Y-111501475D01*
X139473929Y-111496623D01*
X139506956Y-111495000D01*
X140383044Y-111495000D01*
X140416071Y-111496623D01*
X140416071Y-111496623D01*
G37*
D20*
X139945000Y-112395000D03*
G04 #@! TD*
D10*
G04 #@! TO.C,R9*
G36*
X135091071Y-114671623D02*
X135123781Y-114676475D01*
X135155857Y-114684509D01*
X135186991Y-114695649D01*
X135216884Y-114709787D01*
X135245247Y-114726787D01*
X135271807Y-114746485D01*
X135296308Y-114768692D01*
X135318515Y-114793193D01*
X135338213Y-114819753D01*
X135355213Y-114848116D01*
X135369351Y-114878009D01*
X135380491Y-114909143D01*
X135388525Y-114941219D01*
X135393377Y-114973929D01*
X135395000Y-115006956D01*
X135395000Y-116133044D01*
X135393377Y-116166071D01*
X135388525Y-116198781D01*
X135380491Y-116230857D01*
X135369351Y-116261991D01*
X135355213Y-116291884D01*
X135338213Y-116320247D01*
X135318515Y-116346807D01*
X135296308Y-116371308D01*
X135271807Y-116393515D01*
X135245247Y-116413213D01*
X135216884Y-116430213D01*
X135186991Y-116444351D01*
X135155857Y-116455491D01*
X135123781Y-116463525D01*
X135091071Y-116468377D01*
X135058044Y-116470000D01*
X134181956Y-116470000D01*
X134148929Y-116468377D01*
X134116219Y-116463525D01*
X134084143Y-116455491D01*
X134053009Y-116444351D01*
X134023116Y-116430213D01*
X133994753Y-116413213D01*
X133968193Y-116393515D01*
X133943692Y-116371308D01*
X133921485Y-116346807D01*
X133901787Y-116320247D01*
X133884787Y-116291884D01*
X133870649Y-116261991D01*
X133859509Y-116230857D01*
X133851475Y-116198781D01*
X133846623Y-116166071D01*
X133845000Y-116133044D01*
X133845000Y-115006956D01*
X133846623Y-114973929D01*
X133851475Y-114941219D01*
X133859509Y-114909143D01*
X133870649Y-114878009D01*
X133884787Y-114848116D01*
X133901787Y-114819753D01*
X133921485Y-114793193D01*
X133943692Y-114768692D01*
X133968193Y-114746485D01*
X133994753Y-114726787D01*
X134023116Y-114709787D01*
X134053009Y-114695649D01*
X134084143Y-114684509D01*
X134116219Y-114676475D01*
X134148929Y-114671623D01*
X134181956Y-114670000D01*
X135058044Y-114670000D01*
X135091071Y-114671623D01*
X135091071Y-114671623D01*
G37*
D20*
X134620000Y-115570000D03*
D10*
G36*
X137141071Y-114671623D02*
X137173781Y-114676475D01*
X137205857Y-114684509D01*
X137236991Y-114695649D01*
X137266884Y-114709787D01*
X137295247Y-114726787D01*
X137321807Y-114746485D01*
X137346308Y-114768692D01*
X137368515Y-114793193D01*
X137388213Y-114819753D01*
X137405213Y-114848116D01*
X137419351Y-114878009D01*
X137430491Y-114909143D01*
X137438525Y-114941219D01*
X137443377Y-114973929D01*
X137445000Y-115006956D01*
X137445000Y-116133044D01*
X137443377Y-116166071D01*
X137438525Y-116198781D01*
X137430491Y-116230857D01*
X137419351Y-116261991D01*
X137405213Y-116291884D01*
X137388213Y-116320247D01*
X137368515Y-116346807D01*
X137346308Y-116371308D01*
X137321807Y-116393515D01*
X137295247Y-116413213D01*
X137266884Y-116430213D01*
X137236991Y-116444351D01*
X137205857Y-116455491D01*
X137173781Y-116463525D01*
X137141071Y-116468377D01*
X137108044Y-116470000D01*
X136231956Y-116470000D01*
X136198929Y-116468377D01*
X136166219Y-116463525D01*
X136134143Y-116455491D01*
X136103009Y-116444351D01*
X136073116Y-116430213D01*
X136044753Y-116413213D01*
X136018193Y-116393515D01*
X135993692Y-116371308D01*
X135971485Y-116346807D01*
X135951787Y-116320247D01*
X135934787Y-116291884D01*
X135920649Y-116261991D01*
X135909509Y-116230857D01*
X135901475Y-116198781D01*
X135896623Y-116166071D01*
X135895000Y-116133044D01*
X135895000Y-115006956D01*
X135896623Y-114973929D01*
X135901475Y-114941219D01*
X135909509Y-114909143D01*
X135920649Y-114878009D01*
X135934787Y-114848116D01*
X135951787Y-114819753D01*
X135971485Y-114793193D01*
X135993692Y-114768692D01*
X136018193Y-114746485D01*
X136044753Y-114726787D01*
X136073116Y-114709787D01*
X136103009Y-114695649D01*
X136134143Y-114684509D01*
X136166219Y-114676475D01*
X136198929Y-114671623D01*
X136231956Y-114670000D01*
X137108044Y-114670000D01*
X137141071Y-114671623D01*
X137141071Y-114671623D01*
G37*
D20*
X136670000Y-115570000D03*
G04 #@! TD*
D10*
G04 #@! TO.C,R10*
G36*
X133186071Y-114671623D02*
X133218781Y-114676475D01*
X133250857Y-114684509D01*
X133281991Y-114695649D01*
X133311884Y-114709787D01*
X133340247Y-114726787D01*
X133366807Y-114746485D01*
X133391308Y-114768692D01*
X133413515Y-114793193D01*
X133433213Y-114819753D01*
X133450213Y-114848116D01*
X133464351Y-114878009D01*
X133475491Y-114909143D01*
X133483525Y-114941219D01*
X133488377Y-114973929D01*
X133490000Y-115006956D01*
X133490000Y-116133044D01*
X133488377Y-116166071D01*
X133483525Y-116198781D01*
X133475491Y-116230857D01*
X133464351Y-116261991D01*
X133450213Y-116291884D01*
X133433213Y-116320247D01*
X133413515Y-116346807D01*
X133391308Y-116371308D01*
X133366807Y-116393515D01*
X133340247Y-116413213D01*
X133311884Y-116430213D01*
X133281991Y-116444351D01*
X133250857Y-116455491D01*
X133218781Y-116463525D01*
X133186071Y-116468377D01*
X133153044Y-116470000D01*
X132276956Y-116470000D01*
X132243929Y-116468377D01*
X132211219Y-116463525D01*
X132179143Y-116455491D01*
X132148009Y-116444351D01*
X132118116Y-116430213D01*
X132089753Y-116413213D01*
X132063193Y-116393515D01*
X132038692Y-116371308D01*
X132016485Y-116346807D01*
X131996787Y-116320247D01*
X131979787Y-116291884D01*
X131965649Y-116261991D01*
X131954509Y-116230857D01*
X131946475Y-116198781D01*
X131941623Y-116166071D01*
X131940000Y-116133044D01*
X131940000Y-115006956D01*
X131941623Y-114973929D01*
X131946475Y-114941219D01*
X131954509Y-114909143D01*
X131965649Y-114878009D01*
X131979787Y-114848116D01*
X131996787Y-114819753D01*
X132016485Y-114793193D01*
X132038692Y-114768692D01*
X132063193Y-114746485D01*
X132089753Y-114726787D01*
X132118116Y-114709787D01*
X132148009Y-114695649D01*
X132179143Y-114684509D01*
X132211219Y-114676475D01*
X132243929Y-114671623D01*
X132276956Y-114670000D01*
X133153044Y-114670000D01*
X133186071Y-114671623D01*
X133186071Y-114671623D01*
G37*
D20*
X132715000Y-115570000D03*
D10*
G36*
X131136071Y-114671623D02*
X131168781Y-114676475D01*
X131200857Y-114684509D01*
X131231991Y-114695649D01*
X131261884Y-114709787D01*
X131290247Y-114726787D01*
X131316807Y-114746485D01*
X131341308Y-114768692D01*
X131363515Y-114793193D01*
X131383213Y-114819753D01*
X131400213Y-114848116D01*
X131414351Y-114878009D01*
X131425491Y-114909143D01*
X131433525Y-114941219D01*
X131438377Y-114973929D01*
X131440000Y-115006956D01*
X131440000Y-116133044D01*
X131438377Y-116166071D01*
X131433525Y-116198781D01*
X131425491Y-116230857D01*
X131414351Y-116261991D01*
X131400213Y-116291884D01*
X131383213Y-116320247D01*
X131363515Y-116346807D01*
X131341308Y-116371308D01*
X131316807Y-116393515D01*
X131290247Y-116413213D01*
X131261884Y-116430213D01*
X131231991Y-116444351D01*
X131200857Y-116455491D01*
X131168781Y-116463525D01*
X131136071Y-116468377D01*
X131103044Y-116470000D01*
X130226956Y-116470000D01*
X130193929Y-116468377D01*
X130161219Y-116463525D01*
X130129143Y-116455491D01*
X130098009Y-116444351D01*
X130068116Y-116430213D01*
X130039753Y-116413213D01*
X130013193Y-116393515D01*
X129988692Y-116371308D01*
X129966485Y-116346807D01*
X129946787Y-116320247D01*
X129929787Y-116291884D01*
X129915649Y-116261991D01*
X129904509Y-116230857D01*
X129896475Y-116198781D01*
X129891623Y-116166071D01*
X129890000Y-116133044D01*
X129890000Y-115006956D01*
X129891623Y-114973929D01*
X129896475Y-114941219D01*
X129904509Y-114909143D01*
X129915649Y-114878009D01*
X129929787Y-114848116D01*
X129946787Y-114819753D01*
X129966485Y-114793193D01*
X129988692Y-114768692D01*
X130013193Y-114746485D01*
X130039753Y-114726787D01*
X130068116Y-114709787D01*
X130098009Y-114695649D01*
X130129143Y-114684509D01*
X130161219Y-114676475D01*
X130193929Y-114671623D01*
X130226956Y-114670000D01*
X131103044Y-114670000D01*
X131136071Y-114671623D01*
X131136071Y-114671623D01*
G37*
D20*
X130665000Y-115570000D03*
G04 #@! TD*
M02*
