M48
;DRILL file {KiCad 5.0.0} date Sun Oct 21 13:27:39 2018
;FORMAT={-:-/ absolute / metric / decimal}
FMAT,2
METRIC,TZ
T1C0.400
T2C0.500
T3C1.000
T4C1.200
T5C3.200
%
G90
G05
M71
T1
X125.Y-101.99
X125.Y-107.975
X130.665Y-106.045
X130.665Y-109.22
X130.665Y-112.395
X130.665Y-115.57
X136.525Y-106.045
X136.525Y-109.22
X136.67Y-112.395
X136.67Y-115.57
X138.527Y-99.187
X138.527Y-104.267
X141.127Y-99.187
X141.127Y-104.267
X145.914Y-107.696
X147.955Y-98.9
X149.225Y-98.9
X149.597Y-96.774
X151.13Y-99.432
X151.647Y-96.774
X152.445Y-105.8
X154.67Y-107.315
X155.448Y-111.878
X155.448Y-113.928
X159.258Y-104.515
X159.258Y-110.115
X165.Y-101.99
X165.Y-108.
T2
X122.6Y-95.
X123.303Y-93.303
X123.303Y-96.697
X125.Y-92.6
X125.Y-97.4
X126.697Y-93.303
X126.697Y-96.697
X127.4Y-95.
X162.6Y-95.
X163.303Y-93.303
X163.303Y-96.697
X165.Y-92.6
X165.Y-97.4
X166.697Y-93.303
X166.697Y-96.697
X167.4Y-95.
X122.6Y-115.
X123.303Y-113.303
X123.303Y-116.697
X125.Y-112.6
X125.Y-117.4
X126.697Y-113.303
X126.697Y-116.697
X127.4Y-115.
X162.6Y-115.
X163.303Y-113.303
X163.303Y-116.697
X165.Y-112.6
X165.Y-117.4
X166.697Y-113.303
X166.697Y-116.697
X167.4Y-115.
T3
X142.24Y-93.98
X144.78Y-93.98
X147.32Y-93.98
X149.86Y-93.98
T4
X139.7Y-115.
X142.24Y-115.
X144.78Y-115.
X147.32Y-115.
X149.86Y-115.
X152.4Y-115.
T5
X125.Y-95.
X165.Y-95.
X125.Y-115.
X165.Y-115.
T0
M30
